<?xml version="1.0" encoding="UTF-8" standalone="no"?>
<!-- Created with Inkscape (http://www.inkscape.org/) -->

<svg
   xmlns:dc="http://purl.org/dc/elements/1.1/"
   xmlns:cc="http://creativecommons.org/ns#"
   xmlns:rdf="http://www.w3.org/1999/02/22-rdf-syntax-ns#"
   xmlns:svg="http://www.w3.org/2000/svg"
   xmlns="http://www.w3.org/2000/svg"
   xmlns:sodipodi="http://sodipodi.sourceforge.net/DTD/sodipodi-0.dtd"
   xmlns:inkscape="http://www.inkscape.org/namespaces/inkscape"
   width="800px"
   height="600px"
   viewBox="0 0 800 600"
   version="1.1"
   id="SVGRoot"
   inkscape:version="0.92.4 (5da689c313, 2019-01-14)"
   sodipodi:docname="drawing.svg">
  <defs
     id="defs4003" />
  <sodipodi:namedview
     id="base"
     pagecolor="#ffffff"
     bordercolor="#666666"
     borderopacity="1.0"
     inkscape:pageopacity="0.0"
     inkscape:pageshadow="2"
     inkscape:zoom="1.4"
     inkscape:cx="418.53962"
     inkscape:cy="276.52893"
     inkscape:document-units="px"
     inkscape:current-layer="layer1"
     showgrid="false"
     inkscape:window-width="1920"
     inkscape:window-height="1137"
     inkscape:window-x="-8"
     inkscape:window-y="-8"
     inkscape:window-maximized="1"
     inkscape:snap-grids="true"
     inkscape:snap-to-guides="true"
     inkscape:snap-page="true" />
  <metadata
     id="metadata4006">
    <rdf:RDF>
      <cc:Work
         rdf:about="">
        <dc:format>image/svg+xml</dc:format>
        <dc:type
           rdf:resource="http://purl.org/dc/dcmitype/StillImage" />
        <dc:title></dc:title>
      </cc:Work>
    </rdf:RDF>
  </metadata>
  <g
     inkscape:label="Layer 1"
     inkscape:groupmode="layer"
     id="layer1">
    <g
       transform="translate(153.37225,51.959572)"
       id="Layer_2">
      <path
         style="fill:#2b3b47"
         inkscape:connector-curvature="0"
         d="m 478.251,307.661 c -7.935,-0.173 -13.957,3.19 -18.637,8.436 C 450.252,398.14 411.545,481 259.499,481 109.661,481 65.62,394.48 53.748,315.873 c -4.652,-5.117 -10.612,-8.383 -18.432,-8.212 -40.275,0.88 -41.762,-67.195 -1.487,-68.075 20.862,0 44.929,-52.357 92.864,-71.393 l -22.105,84.631 -6.175,4.042 h 316.743 l -6.175,-4.042 -22.105,-84.631 c 47.935,19.036 72.002,71.393 92.864,71.393 40.273,0.879 38.786,68.954 -1.489,68.075 z"
         id="path3756" />
    </g>
    <g
       transform="translate(153.37225,51.959572)"
       id="Layer_3">
      <path
         style="fill:#597b91"
         inkscape:connector-curvature="0"
         d="m 462.446,256.865 c 0,63.313 -92.393,114.639 -206.366,114.639 -113.973,0 -206.365,-51.326 -206.365,-114.639 0,-63.313 92.393,-114.639 206.366,-114.639 113.973,0 206.365,51.326 206.365,114.639 z"
         id="path3759" />
    </g>
    <g
       transform="translate(153.37225,51.959572)"
       id="Layer_4">
      <path
         style="fill:#f9e7c0"
         inkscape:connector-curvature="0"
         d="m 437.204,271.745 c 0,50.78 -81.092,91.946 -181.123,91.946 -100.031,0 -181.124,-41.165 -181.124,-91.946 0,-50.781 81.092,-91.946 181.123,-91.946 100.031,0 181.124,41.166 181.124,91.946 z"
         id="path3762" />
    </g>
    <g
       transform="translate(153.37225,51.959572)"
       id="Layer_5">
      <path
         style="fill:#2aba34"
         inkscape:connector-curvature="0"
         d="m 263.988,174.248 c 7.694,-23.254 -7.551,-20.958 -20.198,3.705 -0.165,-0.023 -0.326,-0.043 -0.485,-0.061 7.171,-23.129 -9.621,-19.125 -22.351,8.522 7.644,-21.068 -5.303,-20.509 -18.356,-4.583 2.765,-16.364 -11.652,-11.24 -23.151,12.879 -5.273,-0.923 -7.484,2.209 -4.319,8.938 -0.857,0.319 -1.737,0.668 -2.642,1.054 -16.687,-13.402 -27.58,-9.484 -14.473,8.089 -0.079,0.054 -0.159,0.11 -0.238,0.165 -19.602,-19.687 -35.078,-17.99 -22.464,0.257 -0.228,0.069 -0.46,0.147 -0.698,0.233 -18.554,-17.695 -32.673,-15.849 -21.198,1.284 -3.157,0.23 -6.891,0.772 -11.315,1.714 -32.527,6.922 -20.605,21.051 11.611,15.529 -14.832,19.492 0.331,22.274 20.306,3.059 0.148,0.075 0.294,0.146 0.439,0.216 -14.297,19.544 2.885,21.213 23.907,-0.797 -14.074,17.441 -1.648,21.119 15.871,10.298 -8.81,16.192 11.042,14.203 32.393,-11.693 6.138,-0.078 13.903,-1.226 22.825,-3.972 0,0 2.089,-3.822 0.849,-7.071 10.459,0.333 11.609,-6.721 -4.205,-16.684 26.408,13.881 41.983,7.255 23.56,-6.319 0.193,-0.14 0.388,-0.289 0.584,-0.447 23.296,10.706 36.05,4.373 19.631,-8.102 2.911,-1.244 6.266,-2.969 10.144,-5.297 28.513,-17.117 12.647,-26.606 -16.027,-10.916 z m -119.913,49.586 c 0.019,-0.024 0.038,-0.048 0.056,-0.072 0.084,0.087 0.165,0.167 0.248,0.253 -0.03,0.029 -0.06,0.058 -0.091,0.088 -0.071,-0.09 -0.142,-0.18 -0.213,-0.269 z m 23.192,0.061 c 0.085,-0.114 0.171,-0.223 0.256,-0.338 0,0 -0.001,-0.006 -0.002,-0.014 0.248,0.241 0.492,0.471 0.735,0.7 -0.146,0.124 -0.292,0.249 -0.438,0.376 -0.183,-0.244 -0.367,-0.484 -0.551,-0.724 z m 47.939,-25.112 c 0.253,0.171 0.504,0.338 0.756,0.505 -0.044,0.135 -0.089,0.267 -0.132,0.402 0,0 0.003,0.005 0.006,0.013 -0.313,-0.147 -0.618,-0.285 -0.923,-0.423 0.098,-0.164 0.196,-0.329 0.293,-0.497 z m 22.421,-7.157 c 0.096,0.061 0.193,0.124 0.289,0.184 -0.01,0.029 -0.02,0.057 -0.03,0.086 -0.107,-0.055 -0.21,-0.105 -0.317,-0.158 0.019,-0.037 0.038,-0.075 0.058,-0.112 z m -25.586,26.609 c -1.544,-1.239 -3.389,-2.543 -5.544,-3.901 2.668,1.402 5.226,2.596 7.649,3.594 -0.674,0.087 -1.379,0.191 -2.105,0.307 z"
         id="path3765" />
    </g>
    <g
       transform="translate(153.37225,51.959572)"
       id="Layer_6">
      <path
         style="fill:#f9f9f7"
         inkscape:connector-curvature="0"
         d="m 336.375,200.704 c 42,0 42,42.645 0,42.645 -42,0 -42,-42.645 0,-42.645 z m 31.5,92.364 c 42,0 42,-42.645 0,-42.645 -42,0 -42,42.645 0,42.645 z m -21.5,41.65 c 42,0 42,-42.645 0,-42.645 -42,0 -42,42.645 0,42.645 z"
         id="path3768" />
    </g>
    <g
       transform="translate(153.37225,51.959572)"
       id="Layer_7">
      <path
         style="fill:#ff473e"
         inkscape:connector-curvature="0"
         d="m 320.68,281.5 c -1.64,2.188 -4.63,2.769 -6.947,1.451 l -0.433,-0.246 c 0,0 -0.888,-0.504 -2.442,-1.385 -0.799,-0.413 -1.811,-0.868 -2.936,-1.418 -1.177,-0.476 -2.493,-1.037 -3.969,-1.55 -1.496,-0.476 -3.088,-1.037 -4.844,-1.422 -1.719,-0.494 -3.596,-0.754 -5.496,-1.115 -0.962,-0.105 -1.94,-0.213 -2.929,-0.321 -0.983,-0.14 -1.987,-0.159 -2.993,-0.185 -0.502,-0.017 -1.006,-0.034 -1.511,-0.051 l -0.757,-0.027 -0.758,0.038 c -1.006,0.045 -2.016,0.09 -3.026,0.135 -1.004,0.077 -1.996,0.25 -2.983,0.362 l -1.474,0.186 c -0.481,0.107 -0.96,0.214 -1.438,0.321 -0.951,0.219 -1.899,0.394 -2.819,0.627 -0.902,0.287 -1.794,0.571 -2.67,0.85 -0.436,0.141 -0.872,0.262 -1.295,0.411 -0.413,0.178 -0.822,0.354 -1.226,0.528 -0.806,0.34 -1.594,0.672 -2.362,0.996 -1.494,0.738 -2.849,1.546 -4.126,2.205 -1.114,0.751 -2.065,1.436 -2.949,2.007 -0.22,0.144 -0.432,0.283 -0.637,0.417 -0.256,0.209 -0.502,0.41 -0.739,0.603 -0.474,0.386 -0.909,0.742 -1.302,1.062 -1.572,1.283 -2.471,2.016 -2.471,2.016 -4.288,3.498 -10.6,2.858 -14.098,-1.43 -3.498,-4.288 -2.858,-10.6 1.43,-14.098 0.311,-0.254 0.634,-0.486 0.965,-0.697 l 0.058,-0.035 c 0,0 0.982,-0.616 2.702,-1.693 0.43,-0.269 0.906,-0.567 1.424,-0.892 0.259,-0.162 0.529,-0.331 0.808,-0.506 0.365,-0.195 0.743,-0.398 1.134,-0.607 1.567,-0.823 3.349,-1.774 5.275,-2.693 1.901,-0.734 3.929,-1.588 6.122,-2.329 1.116,-0.315 2.262,-0.638 3.434,-0.969 0.584,-0.161 1.175,-0.324 1.771,-0.488 0.604,-0.132 1.222,-0.233 1.839,-0.35 1.235,-0.221 2.49,-0.445 3.76,-0.673 1.277,-0.16 2.576,-0.249 3.877,-0.37 0.65,-0.055 1.303,-0.11 1.957,-0.165 0.655,-0.004 1.312,-0.007 1.97,-0.011 1.314,0.01 2.632,-0.031 3.94,0.034 1.303,0.105 2.607,0.211 3.905,0.316 l 0.969,0.082 0.957,0.149 c 0.635,0.101 1.269,0.202 1.9,0.302 1.261,0.197 2.508,0.391 3.714,0.709 1.211,0.29 2.407,0.559 3.571,0.863 0.27,0.085 0.535,0.166 0.802,0.249 -1.159,-1.145 -2.493,-2.211 -3.812,-3.354 -0.779,-0.574 -1.57,-1.158 -2.372,-1.749 -0.779,-0.615 -1.638,-1.135 -2.495,-1.664 l -1.281,-0.804 -0.641,-0.403 -0.674,-0.348 c -0.893,-0.466 -1.789,-0.935 -2.685,-1.403 -0.906,-0.438 -1.851,-0.787 -2.761,-1.186 l -1.368,-0.58 c -0.47,-0.149 -0.938,-0.297 -1.404,-0.445 -0.932,-0.289 -1.84,-0.614 -2.752,-0.874 -0.924,-0.205 -1.838,-0.407 -2.736,-0.606 -0.447,-0.097 -0.886,-0.212 -1.326,-0.296 -0.446,-0.054 -0.888,-0.107 -1.326,-0.159 -0.868,-0.111 -1.716,-0.22 -2.543,-0.325 -1.663,-0.112 -3.241,-0.095 -4.675,-0.166 -1.341,0.09 -2.507,0.204 -3.558,0.254 -0.262,0.014 -0.516,0.027 -0.761,0.04 -0.326,0.052 -0.64,0.102 -0.942,0.15 -0.604,0.096 -1.158,0.185 -1.659,0.264 -2.004,0.319 -3.149,0.501 -3.149,0.501 -5.465,0.87 -10.601,-2.854 -11.471,-8.319 -0.87,-5.465 2.854,-10.601 8.319,-11.471 0.397,-0.063 0.792,-0.102 1.184,-0.118 l 0.068,-0.001 c 0,0 1.159,-0.039 3.186,-0.106 0.507,-0.017 1.068,-0.036 1.679,-0.056 0.306,-0.01 0.623,-0.021 0.953,-0.032 0.414,0.014 0.843,0.029 1.286,0.045 1.769,0.076 3.787,0.149 5.914,0.322 2.013,0.321 4.195,0.601 6.463,1.062 1.123,0.288 2.277,0.585 3.456,0.888 0.586,0.154 1.178,0.31 1.777,0.468 0.589,0.189 1.173,0.412 1.766,0.621 1.178,0.429 2.376,0.866 3.589,1.308 1.184,0.503 2.353,1.079 3.538,1.628 0.589,0.279 1.181,0.56 1.775,0.841 l 1.709,0.98 c 1.131,0.669 2.291,1.295 3.39,2.009 1.074,0.746 2.148,1.492 3.218,2.235 l 0.796,0.558 0.753,0.609 c 0.499,0.407 0.996,0.812 1.491,1.216 0.991,0.804 1.972,1.598 2.855,2.479 0.901,0.859 1.801,1.693 2.654,2.54 1.624,1.782 3.236,3.447 4.561,5.206 1.408,1.681 2.564,3.414 3.651,4.983 1.056,1.596 1.931,3.128 2.714,4.469 0.714,1.401 1.352,2.599 1.831,3.621 0.887,2.091 1.394,3.286 1.394,3.286 0.2,0.472 0.323,0.957 0.383,1.442 1.471,1.103 2.304,1.727 2.304,1.727 2.377,1.78 2.859,5.146 1.08,7.52 z"
         id="path3771" />
    </g>
    <g
       transform="translate(153.37225,51.959572)"
       id="Layer_8">
      <path
         style="fill:#e2af8d"
         inkscape:connector-curvature="0"
         d="m 233.776,342.505 c -31.657,-8.718 -11.5,-76.618 23.59,-72.893 35.09,3.725 97.201,106.158 -23.59,72.893 z M 205.635,277.9 c 14.777,-32.045 -64.199,-57.756 -82.605,-30.564 -70.229,103.753 67.829,62.609 82.605,30.564 z"
         id="path3774" />
    </g>
    <g
       transform="translate(153.37225,51.959572)"
       id="Layer_9">
      <path
         style="fill:#d19878"
         inkscape:connector-curvature="0"
         d="m 177.42,346.598 c -31.657,-8.718 -11.5,-76.618 23.59,-72.893 35.091,3.725 97.201,106.158 -23.59,72.893 z"
         id="path3777" />
    </g>
    <g
       transform="translate(153.37225,51.959572)"
       id="Layer_10">
      <path
         style="fill:#d7f4f7"
         inkscape:connector-curvature="0"
         d="m 234.442,12.492 c 0,0 0.598,0.061 1.718,0.173 1.137,0.188 2.681,0.083 5.002,1.036 1.12,0.41 2.489,0.777 3.638,1.569 1.195,0.747 2.641,1.431 3.787,2.639 0.614,0.57 1.247,1.158 1.9,1.763 0.645,0.62 1.119,1.401 1.708,2.141 1.245,1.463 2.025,3.278 2.933,5.158 1.481,3.834 2.559,8.36 2.036,13.19 -0.465,4.781 -2.074,9.934 -5.502,14.325 -3.307,4.462 -8.59,7.811 -14.15,9.086 l -2.098,0.516 c -0.257,0.1 -1.064,0.232 -1.57,0.348 l -1.734,0.358 -1.275,0.414 c -1.674,0.471 -3.555,1.401 -5.182,2.309 -3.27,1.957 -6.125,4.627 -8.11,7.923 -1.963,3.282 -3.443,6.94 -3.962,10.723 -0.555,3.756 -0.534,7.54 0.186,11.006 0.722,3.459 1.94,6.631 3.539,9.303 1.621,2.656 3.553,4.838 5.52,6.539 1.96,1.726 4.001,2.862 5.705,3.794 1.76,0.803 3.191,1.464 4.219,1.754 1.018,0.36 1.561,0.552 1.561,0.552 l 0.139,0.049 c 0.737,0.261 1.124,1.07 0.863,1.806 -0.215,0.608 -0.804,0.977 -1.417,0.941 0,0 -0.624,-0.036 -1.794,-0.105 -1.18,-0.048 -2.906,-0.271 -5.095,-0.773 -2.145,-0.609 -4.85,-1.376 -7.607,-3.06 -2.782,-1.602 -5.747,-3.893 -8.288,-7.044 -5.164,-6.185 -8.644,-15.737 -7.652,-25.966 0.456,-5.084 1.897,-10.381 4.742,-15.143 2.761,-4.789 6.917,-8.969 11.773,-11.938 2.545,-1.365 4.978,-2.515 7.882,-3.302 l 2.133,-0.581 1.741,-0.322 c 0.647,-0.128 1.008,-0.167 1.888,-0.369 l 1.321,-0.32 c 3.508,-0.789 6.694,-2.315 8.864,-4.96 2.195,-2.562 3.705,-5.741 4.388,-9.03 0.689,-3.312 0.368,-6.595 -0.249,-9.525 -0.461,-1.416 -0.834,-2.841 -1.544,-4.014 -0.327,-0.598 -0.549,-1.273 -0.937,-1.793 -0.395,-0.525 -0.778,-1.034 -1.15,-1.528 -0.66,-1.104 -1.681,-1.711 -2.44,-2.523 -0.773,-0.865 -1.629,-1.238 -2.372,-1.748 -1.361,-1.071 -3.126,-1.577 -4.131,-1.988 -1.046,-0.416 -1.604,-0.638 -1.604,-0.638 -0.732,-0.292 -1.09,-1.122 -0.798,-1.854 0.239,-0.605 0.857,-0.953 1.475,-0.891 z m -82.477,52.819 c -0.645,-1.013 -1.991,-1.311 -3.003,-0.666 0,0 -0.4,0.255 -1.149,0.732 -0.755,0.564 -1.834,0.973 -3.259,2.293 -0.7,0.63 -1.476,1.328 -2.32,2.088 -0.73,0.825 -1.518,1.715 -2.361,2.667 -1.553,2.024 -3.098,4.489 -4.462,7.392 -1.196,2.949 -2.278,6.299 -2.712,9.991 -0.597,3.686 -0.302,7.665 0.364,11.721 0.695,4.079 2.336,8.12 4.523,11.944 1.199,1.85 2.403,3.736 3.933,5.388 0.725,0.859 1.451,1.723 2.308,2.456 l 2.225,1.983 c 1.287,1.194 3.127,2.63 3.664,3.51 0.843,0.858 1.663,2.135 2.493,3.335 1.434,2.533 2.673,5.14 3.396,7.874 0.663,2.724 1.183,5.46 1.149,8.106 0.096,2.648 -0.185,5.178 -0.657,7.507 -0.343,1.119 -0.489,2.294 -0.857,3.326 -0.388,1.019 -0.703,2.039 -1.094,2.958 -0.418,0.924 -0.81,1.788 -1.172,2.589 -0.449,0.75 -0.867,1.455 -1.229,2.122 -0.693,1.366 -1.525,2.222 -1.955,2.962 -0.475,0.709 -0.728,1.087 -0.728,1.087 l -0.189,0.281 c -0.425,0.638 -0.499,1.481 -0.121,2.208 0.553,1.064 1.864,1.479 2.928,0.926 0,0 0.454,-0.237 1.305,-0.678 0.818,-0.491 2.193,-1.055 3.582,-2.239 0.728,-0.557 1.554,-1.176 2.389,-1.924 0.777,-0.814 1.617,-1.695 2.515,-2.636 1.665,-2.012 3.311,-4.508 4.744,-7.471 1.223,-3.016 2.45,-6.438 2.831,-10.234 0.565,-3.777 0.285,-7.868 -0.532,-11.986 -0.844,-4.131 -2.603,-8.217 -4.97,-11.988 -1.287,-1.819 -2.528,-3.644 -4.329,-5.442 -1.815,-2.04 -3.044,-2.814 -4.523,-4.14 l -2.015,-1.7 c -0.62,-0.429 -1.123,-0.976 -1.639,-1.512 -1.113,-1.003 -1.971,-2.22 -2.889,-3.388 -1.614,-2.481 -2.972,-5.134 -3.843,-7.92 -0.814,-2.785 -1.321,-5.632 -1.317,-8.369 -0.149,-2.754 0.277,-5.355 0.775,-7.75 0.572,-2.38 1.351,-4.524 2.232,-6.364 0.473,-0.913 0.917,-1.767 1.327,-2.557 0.472,-0.712 0.906,-1.366 1.298,-1.958 0.658,-1.229 1.784,-2.239 2.278,-2.907 0.576,-0.675 0.884,-1.035 0.884,-1.035 0.605,-0.707 0.709,-1.756 0.182,-2.582 z m 195.515,0 c -0.645,-1.013 -1.991,-1.311 -3.003,-0.666 0,0 -0.4,0.255 -1.149,0.732 -0.755,0.564 -1.834,0.973 -3.259,2.293 -0.7,0.63 -1.476,1.328 -2.32,2.088 -0.73,0.825 -1.518,1.715 -2.361,2.667 -1.553,2.024 -3.098,4.489 -4.462,7.392 -1.196,2.949 -2.278,6.299 -2.712,9.991 -0.597,3.686 -0.302,7.665 0.364,11.721 0.695,4.079 2.336,8.12 4.523,11.944 1.199,1.85 2.403,3.736 3.933,5.388 0.725,0.859 1.451,1.723 2.308,2.456 l 2.225,1.983 c 1.287,1.194 3.127,2.63 3.664,3.51 0.843,0.858 1.663,2.135 2.493,3.335 1.434,2.533 2.673,5.14 3.396,7.874 0.663,2.724 1.183,5.46 1.149,8.106 0.096,2.648 -0.185,5.178 -0.657,7.507 -0.343,1.119 -0.489,2.294 -0.857,3.326 -0.388,1.019 -0.703,2.039 -1.094,2.958 -0.418,0.924 -0.81,1.788 -1.172,2.589 -0.449,0.75 -0.867,1.455 -1.229,2.122 -0.693,1.366 -1.525,2.222 -1.955,2.962 -0.475,0.709 -0.728,1.087 -0.728,1.087 l -0.189,0.281 c -0.425,0.638 -0.499,1.481 -0.121,2.208 0.553,1.064 1.864,1.479 2.928,0.926 0,0 0.454,-0.237 1.305,-0.678 0.818,-0.491 2.193,-1.055 3.582,-2.239 0.728,-0.557 1.554,-1.176 2.389,-1.924 0.777,-0.814 1.617,-1.695 2.515,-2.636 1.665,-2.012 3.311,-4.508 4.744,-7.471 1.223,-3.016 2.45,-6.438 2.831,-10.234 0.565,-3.777 0.285,-7.868 -0.532,-11.986 -0.844,-4.131 -2.603,-8.217 -4.97,-11.988 -1.287,-1.819 -2.528,-3.644 -4.329,-5.442 -1.815,-2.04 -3.044,-2.814 -4.523,-4.14 l -2.015,-1.7 c -0.62,-0.429 -1.123,-0.976 -1.639,-1.512 -1.113,-1.003 -1.971,-2.22 -2.889,-3.388 -1.614,-2.481 -2.972,-5.134 -3.843,-7.92 -0.814,-2.785 -1.321,-5.632 -1.317,-8.369 -0.149,-2.754 0.277,-5.355 0.775,-7.75 0.572,-2.38 1.351,-4.524 2.232,-6.364 0.473,-0.913 0.917,-1.767 1.327,-2.557 0.472,-0.712 0.906,-1.366 1.298,-1.958 0.658,-1.229 1.784,-2.239 2.278,-2.907 0.576,-0.675 0.884,-1.035 0.884,-1.035 0.605,-0.707 0.708,-1.756 0.182,-2.582 z m -71.82,98.975 c 0.609,-0.437 0.749,-1.287 0.312,-1.897 0,0 -0.173,-0.241 -0.496,-0.691 -0.284,-0.443 -0.896,-1.132 -1.278,-1.931 -0.489,-0.753 -0.967,-1.77 -1.479,-2.94 -0.429,-1.186 -0.87,-2.516 -0.985,-3.98 -0.241,-1.44 -0.082,-3.001 0.271,-4.54 0.351,-1.547 1.067,-3.085 2.077,-4.51 1.01,-1.42 2.284,-2.774 3.838,-3.92 0.373,-0.299 0.752,-0.594 1.186,-0.84 l 1.503,-0.964 c 1.003,-0.718 1.825,-1.108 3.08,-2.367 2.399,-2.182 3.783,-4.396 5.098,-6.853 1.272,-2.416 1.953,-4.984 2.434,-7.454 0.485,-2.479 0.47,-4.925 0.308,-7.202 -0.186,-2.284 -0.697,-4.404 -1.338,-6.294 -0.65,-1.887 -1.518,-3.529 -2.39,-4.889 -0.91,-1.352 -1.806,-2.436 -2.68,-3.216 -0.761,-0.852 -1.614,-1.296 -2.088,-1.66 -0.499,-0.34 -0.765,-0.521 -0.765,-0.521 -0.399,-0.272 -0.933,-0.32 -1.389,-0.079 -0.659,0.348 -0.911,1.164 -0.564,1.823 l 0.116,0.22 c 0,0 0.131,0.249 0.377,0.715 0.202,0.498 0.664,1.057 0.981,1.961 0.37,0.858 0.804,1.871 1.113,3.11 0.338,1.214 0.657,2.591 0.791,4.128 0.245,1.507 0.204,3.186 0.167,4.919 -0.037,1.746 -0.379,3.553 -0.74,5.382 -0.406,1.825 -1.063,3.628 -1.856,5.339 -0.781,1.625 -1.966,3.424 -3.033,4.412 -0.317,0.498 -1.537,1.314 -2.378,2.016 l -0.044,0.034 c -0.06,0.042 0.456,-0.306 0.225,-0.15 l -0.026,0.019 -0.103,0.074 -0.204,0.148 -0.409,0.297 -0.81,0.596 c -0.549,0.377 -1.059,0.823 -1.558,1.279 -2.039,1.74 -3.801,3.856 -5.028,6.208 -1.236,2.326 -2.112,4.825 -2.261,7.282 -0.159,2.432 0.045,4.753 0.712,6.716 0.604,1.985 1.538,3.597 2.392,4.953 0.958,1.281 1.855,2.335 2.713,3.135 0.825,0.864 1.471,1.21 1.913,1.589 0.441,0.336 0.676,0.516 0.676,0.516 0.462,0.354 1.121,0.385 1.619,0.027 z"
         id="path3780" />
    </g>
  </g>
</svg>
