<?xml version="1.0" ?><!DOCTYPE svg  PUBLIC '-//W3C//DTD SVG 1.1//EN'  'http://www.w3.org/Graphics/SVG/1.1/DTD/svg11.dtd'>
<svg xmlns="http://www.w3.org/2000/svg" version="1.1" viewBox="0 0 256 256">
    <rect fill="#FFD561" height="40.133" width="38.948" x="88.488" y="90.066"/>
    <path fill="#6EAF6C" d="M213.346,96.05c-1.546,0-2.8,1.254-2.8,2.801V218.9H55.416v-6.582c0-0.071-0.016-0.138-0.021-0.207     h146.55c1.546,0,2.8-1.254,2.8-2.801V87.781V86.92V61.536c0-10.04-8.263-18.207-18.42-18.207h-0.886V34.3     c0-1.546-1.253-2.799-2.799-2.799c-1.547,0-2.8,1.253-2.8,2.799v9.03h-14.845c-1.546,0-2.8,1.253-2.8,2.8     c0,1.546,1.254,2.799,2.8,2.799h14.845v6.2c0,1.546,1.253,2.8,2.8,2.8c1.546,0,2.799-1.254,2.799-2.8v-6.2h0.886     c7.069,0,12.821,5.655,12.821,12.607v23.444h-81.532l2.547-6.858c0.539-1.449-0.2-3.062-1.649-3.599     c-1.451-0.538-3.062,0.199-3.6,1.65l-3.271,8.807H45.454V61.536c0-6.952,5.751-12.607,12.822-12.607h2.01v6.2     c0,1.546,1.253,2.8,2.8,2.8c1.546,0,2.8-1.254,2.8-2.8v-6.2h78.481c1.546,0,2.8-1.253,2.8-2.799c0-1.547-1.254-2.8-2.8-2.8     H65.885V34.3c0-1.546-1.254-2.799-2.8-2.799c-1.547,0-2.8,1.253-2.8,2.799v9.03h-2.01c-10.158,0-18.421,8.167-18.421,18.207     v24.382v1.862v121.53c0,1.547,1.253,2.801,2.8,2.801h7.183c-0.005,0.069-0.021,0.136-0.021,0.207v9.383     c0,1.545,1.253,2.799,2.799,2.799h160.731c1.546,0,2.799-1.254,2.799-2.799V98.85C216.146,97.303,214.893,96.05,213.346,96.05z      M45.454,131.659h34.247v21.384c0,1.547,1.253,2.799,2.799,2.799c1.546,0,2.8-1.252,2.8-2.799v-21.384h34.338v34.337H45.454     V131.659z M128.024,126.06h-2.785V90.581h34.34v35.479h-15.877c-1.546,0-2.799,1.253-2.799,2.799c0,1.546,1.253,2.8,2.799,2.8     h15.877v34.337h-34.34v-34.337h2.785c1.546,0,2.8-1.254,2.8-2.8C130.823,127.313,129.57,126.06,128.024,126.06z M199.145,165.996     h-33.966v-34.337h33.966V165.996z M199.145,126.06h-33.966V90.581h33.966V126.06z M159.579,171.595v34.916h-34.34v-34.916     H159.579z M119.639,171.595v34.916H85.301v-34.916H119.639z M165.179,206.511v-34.916h33.966v34.916H165.179z M91.462,99.423     l8.977,18.23c0.473,0.96,1.449,1.563,2.511,1.563c0.047,0,0.095-0.002,0.144-0.003c1.117-0.057,2.092-0.773,2.482-1.822     l9.958-26.811h4.106v35.479H85.301V90.581h24.259l-6.97,18.765l-6.104-12.397c-0.683-1.386-2.36-1.957-3.749-1.275     C91.349,96.358,90.779,98.035,91.462,99.423z M79.701,90.581v35.479H45.454V90.581H79.701z M45.454,171.595h34.247v34.916H45.454     V171.595z" />
</svg>