<?xml version="1.0" ?>
<svg xmlns="http://www.w3.org/2000/svg" version="1.1" viewBox="0 0 256 256">
	<circle cx="150.93" cy="184.82" fill="#FFD561" r="55.044"/>
	<g fill="#81C784">
		<path d="M144.66,97.324V90.91c4.897-0.578,8.714-4.749,8.714-9.801v-7.531c0.2-0.086,0.395-0.188,0.579-0.322      c9.868-7.248,15.76-18.875,15.76-31.101c0-21.263-17.297-38.561-38.561-38.561c-21.262,0-38.56,17.298-38.56,38.561      c0,12.292,5.659,23.564,15.524,30.924c0.253,0.189,0.53,0.317,0.814,0.413v7.616c0,5.052,3.816,9.223,8.714,9.801v6.414      c-16.705,2.925-31.597,11.167-42.864,22.922l-5.265-5.263l3.248-3.248c2.754-2.757,2.752-7.241-0.004-9.996l-3.557-3.558      c-1.331-1.332-3.106-2.066-5-2.066c-1.891,0-3.666,0.734-4.996,2.066l-10.431,10.428c-1.332,1.332-2.067,3.108-2.067,5      c0,1.893,0.735,3.668,2.067,4.999l3.558,3.559c1.333,1.331,3.108,2.064,5,2.064c1.892,0,3.667-0.733,4.996-2.064l3.077-3.075      l5.486,5.487c-11.164,13.515-17.878,30.833-17.878,49.69c0,43.085,35.051,78.137,78.136,78.137s78.138-35.052,78.138-78.137      C209.29,135.792,181.326,103.744,144.66,97.324z M58.223,118.059c-0.315,0.315-0.691,0.363-0.888,0.363      c-0.197,0-0.575-0.047-0.893-0.363l-3.559-3.559c-0.315-0.316-0.363-0.693-0.363-0.891c0-0.197,0.048-0.574,0.363-0.891      l10.431-10.43c0.316-0.316,0.694-0.363,0.89-0.363c0.198,0,0.575,0.047,0.892,0.363l3.559,3.559      c0.483,0.483,0.483,1.3,0.002,1.782L58.223,118.059z M98.403,42.155c0-18.059,14.69-32.751,32.749-32.751      c18.061,0,32.751,14.692,32.751,32.751c0,9.142-3.882,17.888-10.529,24.051v-5.721c0-5.446-4.431-9.876-9.875-9.876h-24.691      c-5.444,0-9.876,4.43-9.876,9.876v5.722C102.205,60.021,98.403,51.433,98.403,42.155z M114.741,81.109V60.485      c0-2.242,1.824-4.066,4.066-4.066h24.691c2.241,0,4.065,1.824,4.065,4.066v20.624c0,2.242-1.824,4.067-4.065,4.067h-24.691      C116.565,85.176,114.741,83.351,114.741,81.109z M123.456,90.985h15.395v5.529c-2.534-0.249-5.101-0.383-7.698-0.383      c-2.596,0-5.162,0.134-7.696,0.383V90.985z M131.152,246.596c-39.881,0-72.327-32.446-72.327-72.328      c0-39.881,32.446-72.327,72.327-72.327c39.883,0,72.328,32.446,72.328,72.327C203.48,214.15,171.035,246.596,131.152,246.596z" />
		<path d="M131.152,107.605c-36.757,0-66.662,29.905-66.662,66.663s29.905,66.663,66.662,66.663      c36.759,0,66.664-29.905,66.664-66.663S167.911,107.605,131.152,107.605z M131.152,235.122      c-33.555,0-60.853-27.299-60.853-60.854c0-33.556,27.299-60.853,60.853-60.853c33.557,0,60.855,27.298,60.855,60.853      C192.007,207.823,164.709,235.122,131.152,235.122z" />
		<path d="M134,162.817c0.038-0.187,0.058-0.379,0.058-0.577v-40.666c0-1.604-1.301-2.905-2.905-2.905      c-1.602,0-2.904,1.301-2.904,2.905v40.666c0,0.198,0.021,0.391,0.059,0.578c-5.14,1.28-8.965,5.921-8.965,11.45      c0,6.513,5.299,11.812,11.813,11.812c6.514,0,11.812-5.299,11.812-11.812C142.968,168.737,139.141,164.096,134,162.817z       M131.155,180.271c-3.31,0-6.005-2.693-6.005-6.003c0-3.309,2.694-6.003,6.005-6.003c3.311,0,6.002,2.693,6.002,6.003      C137.157,177.578,134.466,180.271,131.155,180.271z" />
	</g>
</svg>