<?xml version="1.0" ?><!DOCTYPE svg  PUBLIC '-//W3C//DTD SVG 1.1//EN'  'http://www.w3.org/Graphics/SVG/1.1/DTD/svg11.dtd'>
<svg xmlns="http://www.w3.org/2000/svg" version="1.1" viewBox="0 0 256 256">
    <path fill="#FFD561" d="M190.556,166.191c-8.011,9.401-65.706,63.619-87.236,70.934c-3.075,1.047-5.549,1.294-6.893,0.149      c-1.508-1.284-2.243-3.392-1.409-7.22c5.105-23.484,48.759-87.771,56.627-97.008c9.153-10.745,25.283-12.036,36.029-2.883      C198.417,139.315,199.707,155.447,190.556,166.191z" />
    <g fill="#81C784">
        <path d="M106.276,107.625c-1.007-0.709-2.347-0.726-3.37-0.043c-1.761,1.174-4.369,1.794-7.546,1.794      c-3.189,0-5.818-0.625-5.838-0.63c-0.997-0.246-2.046,0.039-2.78,0.751c-0.738,0.712-1.057,1.75-0.849,2.753l7.001,33.604      c0.283,1.362,1.472,2.347,2.862,2.374c0.02,0,0.038,0,0.058,0c1.367,0,2.562-0.932,2.893-2.263l8.747-35.183      C107.75,109.588,107.284,108.333,106.276,107.625z M96.069,131.857l-3.465-16.637c0.849,0.072,1.779,0.119,2.756,0.119      c1.767,0,3.413-0.15,4.929-0.449L96.069,131.857z" />
        <path d="M229.959,74.912c1.067-1.253,0.916-3.136-0.338-4.203c-1.253-1.067-3.134-0.917-4.202,0.336      l-42.876,50.331c-1.353-0.934-2.776-1.749-4.259-2.434l29.893-35.089c1.067-1.253,0.917-3.135-0.337-4.204      c-1.253-1.067-3.135-0.918-4.203,0.337l-31.363,36.816c-0.036,0.042-0.061,0.091-0.094,0.135      c-0.191-0.04-0.379-0.092-0.571-0.129c7.556-7.851,10.991-16.086,10.991-26.115c0-18.631-14.805-33.869-33.27-34.565      c-4.562-21.927-24.298-38.156-46.933-38.156c-22.688,0-42.462,16.306-46.967,38.309c-17.657,1.712-31.156,16.387-31.156,34.413      c0,19.073,15.517,34.591,34.591,34.591c5.036,0,9.983-1.099,14.517-3.201c5.702,30.325,10.096,57.667,10.141,57.95      c0.231,1.447,1.48,2.51,2.944,2.51h20.842c-8.985,15.266-17.767,31.947-19.976,42.103c-0.985,4.529-0.183,7.936,2.389,10.123      c1.142,0.974,2.63,1.467,4.423,1.467c1.511,0,3.266-0.348,5.362-1.062c22.552-7.66,80.226-62.056,88.548-71.822      c9.527-11.185,8.896-27.659-0.979-38.102L229.959,74.912z M110.769,176.581H89.004c-1.285-7.852-5.458-33.003-10.521-59.615      c-0.184-0.967-0.832-1.781-1.733-2.175c-0.9-0.394-1.939-0.317-2.773,0.203c-4.537,2.831-9.763,4.328-15.11,4.328      c-15.786,0-28.628-12.842-28.628-28.627c0-14.384,10.389-26.181,24.233-28.278c-0.477,2.671-0.861,4.53-0.867,4.562      c-0.335,1.612,0.7,3.191,2.312,3.525c0.205,0.043,0.408,0.063,0.61,0.063c1.382,0,2.622-0.968,2.915-2.376      c0.046-0.222,1.123-5.422,1.941-11.19c4.13-19.021,21.312-33.065,41.015-33.065c19.573,0,36.658,13.862,40.929,32.693      c-5.888,1.301-10.925,4.614-11.174,4.78c-1.368,0.912-1.737,2.761-0.826,4.13c0.572,0.864,1.52,1.331,2.484,1.331      c0.566,0,1.14-0.161,1.646-0.497c0.06-0.039,5.99-3.931,11.556-4.281c0.005,0,0.011,0,0.017,0      c0.326-0.012,0.652-0.024,0.98-0.024c15.785,0,28.628,12.842,28.628,28.627c0,7.035-1.558,15.573-13.106,25.56      c-0.076,0.065-0.135,0.143-0.201,0.214c-4.53,0.478-8.843,2.03-12.609,4.493c-7.927,1.587-16.132-1.914-18.646-6.173      c-0.632-1.071-1.864-1.64-3.085-1.421c-1.225,0.215-2.185,1.168-2.413,2.388c-6.184,33.074-10.184,51.432-10.224,51.613      c-0.027,0.128-0.033,0.255-0.044,0.382c-0.438,0.7-0.878,1.403-1.317,2.11c-1.344,2.162-2.729,4.415-4.129,6.729      C110.832,176.589,110.802,176.581,110.769,176.581z M125.265,153.808c1.549-7.651,3.625-18.146,6.101-31.246      c3.395,2.483,7.879,4.119,12.561,4.602C140.692,131.178,133.568,141.183,125.265,153.808z M183.515,159.486      c-2.957,3.47-13.468,13.762-26.429,25.461l-11.061-9.425c-1.254-1.069-3.134-0.918-4.204,0.336      c-1.068,1.253-0.916,3.135,0.337,4.203l10.446,8.899c-19.636,17.442-43.265,36.579-55.016,40.571      c-2.952,1.006-3.941,0.693-4.003,0.693c-0.003,0-0.004,0.001-0.003,0.002c-0.292-0.249-1.143-1.004-0.422-4.309      c1.078-4.959,4.181-12.415,9.031-21.852l8.344,7.11c0.562,0.477,1.25,0.712,1.933,0.712c0.843,0,1.682-0.355,2.271-1.048      c1.067-1.253,0.917-3.135-0.337-4.203l-9.36-7.975c4.089-7.562,9.12-16.171,15.014-25.651      c6.358-10.227,12.867-20.079,18.21-27.848l13.028,11.101c0.561,0.478,1.248,0.712,1.931,0.712c0.844,0,1.682-0.355,2.271-1.047      c1.068-1.254,0.917-3.135-0.336-4.203l-13.474-11.48c3.397-4.822,6.047-8.38,7.458-10.037      c4.297-5.044,10.566-7.937,17.197-7.937c5.353,0,10.547,1.914,14.628,5.39C190.445,135.734,191.587,150.011,183.515,159.486z" />
        <path d="M230.678,86.096c-1.254-1.068-3.135-0.917-4.203,0.337l-31.916,37.465      c-1.068,1.253-0.917,3.135,0.337,4.204c0.562,0.478,1.248,0.712,1.933,0.712c0.843,0,1.68-0.355,2.27-1.048L231.014,90.3      C232.082,89.047,231.931,87.165,230.678,86.096z" />
        <path d="M128.75,178.658c-1.067,1.253-0.916,3.135,0.337,4.203l9.69,8.255c0.561,0.478,1.248,0.712,1.933,0.712      c0.843,0,1.68-0.356,2.271-1.048c1.067-1.253,0.916-3.136-0.338-4.203l-9.688-8.254      C131.7,177.253,129.819,177.404,128.75,178.658z" />
        <path d="M170.359,140.72c-1.068,1.253-0.917,3.136,0.337,4.204l9.691,8.255c0.562,0.479,1.249,0.711,1.932,0.711      c0.843,0,1.683-0.355,2.271-1.048c1.069-1.253,0.917-3.135-0.336-4.203l-9.692-8.255      C173.309,139.315,171.428,139.466,170.359,140.72z" />
    </g>
</svg>