<?xml version="1.0" encoding="UTF-8"?>
<svg xmlns="http://www.w3.org/2000/svg" version="1.1" viewBox="0 0 64 64">
    <g>
        <polygon fill="#71dbfb" points="1.7,28 16.9,18 47.1,18 62.3,28"/>
        <path fill="#65b3d6" d="M 13.5 28 l 9.4 18.8 L 1.7 28 H 13.5 z M 50.5 28 l -9.4 18.8 L 62.3 28 H 50.5 z"/>
        <path fill="#8ee8f7" d="M 35.4 46.5 L 32 28 h 18.5 L 35.4 46.5 z M 32 28 H 13.5 l 15.1 18.5 L 32 28 z"/>
        <polygon fill="#71dbfb" points="32,28.1 28.6,46.6 32,55 35.4,46.6"/>
        <polygon fill="#a4f6ff" points="28.6,46.6 13.5,28.1 22.9,46.9 32,55 28.6,46.6"/>
        <polygon fill="#2a8fa0" points="35.4,46.6 35.4,46.6 32,55 41.1,46.9 50.5,28.1"/>
        <polygon fill="#a4f6ff" points="32,28.1 23.6,23.1 32,18 40.4,23.1"/>
        <polygon fill="#ffffff" points="9.3,23.1 13.5,28.1 23.6,23.1 18.6,18"/>
        <polygon fill="#65b3d6" points="45.5,18 40.4,23.1 50.5,28.1 54.7,23.1"/>
    </g>
    <g fill="none" stroke="#283182" stroke-linecap="round" stroke-linejoin="round" stroke-miterlimit="10" stroke-width="0.5">
        <polygon points="32,55 62.3,28 47.1,18 16.9,18 1.7,28"/>
        <line x1="1.73" x2="10.14" y1="28" y2="28"/>
        <line x1="62.27" x2="53.86" y1="28" y2="28"/>
        <line x1="23" x2="37.8" y1="28" y2="28"/>
        <line x1="28.64" x2="25.82" y1="46.59" y2="37.3"/>
        <line x1="33.91" x2="37.8" y1="50.22" y2="40.5"/>
        <line x1="40.41" x2="40.75" y1="23.05" y2="25.9"/>
        <line x1="32" x2="32" y1="59" y2="62.37"/>
        <line x1="21.04" x2="19.97" y1="59.02" y2="61.65"/>
        <line x1="14.49" x2="12" y1="53.88" y2="56.98"/>
        <line x1="10.14" x2="8.65" y1="52.49" y2="53.88"/>
        <line x1="8" x2="2.23" y1="41.46" y2="43.74"/>
        <line x1="61.64" x2="59" y1="44.06" y2="42.98"/>
        <line x1="57.43" x2="51.43" y1="51.43" y2="46.85"/>
        <line x1="51.24" x2="49.3" y1="57.57" y2="55"/>
        <line x1="47.11" x2="44.86" y1="60.21" y2="56"/>
        <line x1="32" x2="32" y1="5" y2="1.99"/>
        <line x1="25.19" x2="24.18" y1="5.87" y2="1.99"/>
        <line x1="42.96" x2="44.03" y1="4.98" y2="2.35"/>
        <line x1="49.51" x2="52" y1="10.12" y2="7.02"/>
        <line x1="53.86" x2="55.35" y1="11.51" y2="10.12"/>
        <line x1="6.57" x2="9.57" y1="12.57" y2="14.86"/>
        <line x1="12.76" x2="14.7" y1="6.43" y2="9"/>
    </g>
</svg>
