<?xml version="1.0" encoding="UTF-8"?>
<svg xmlns="http://www.w3.org/2000/svg" version="1.1" viewBox="0 0 512 512">
    <g fill="#6EAF6C">
        <path d="M 338.3 143.9 c -3.2 0 -5.7 -2.6 -5.7 -5.7 c 0 -7.1 -5.8 -12.8 -12.8 -12.8 c -7.1 0 -12.8 5.8 -12.8 12.8 c 0 3.2 -2.6 5.7 -5.7 5.7 c -3.2 0 -5.7 -2.6 -5.7 -5.7 c 0 -13.4 10.9 -24.3 24.3 -24.3 s 24.3 10.9 24.3 24.3 C 344.1 141.3 341.5 143.9 338.3 143.9 z"/>
        <path d="M 319.8 191 c -28.5 0 -51.7 -23.2 -51.7 -51.7 s 23.2 -51.7 51.7 -51.7 c 28.5 0 51.7 23.2 51.7 51.7 S 348.3 191 319.8 191 z M 319.8 99.1 c -22.2 0 -40.2 18 -40.2 40.2 s 18 40.2 40.2 40.2 s 40.2 -18 40.2 -40.2 S 342 99.1 319.8 99.1 z"/>
        <path d="M 210.8 143.9 c -3.2 0 -5.7 -2.6 -5.7 -5.7 c 0 -7.1 -5.8 -12.8 -12.8 -12.8 c -7.1 0 -12.8 5.8 -12.8 12.8 c 0 3.2 -2.6 5.7 -5.7 5.7 s -5.7 -2.6 -5.7 -5.7 c 0 -13.4 10.9 -24.3 24.3 -24.3 c 13.4 0 24.3 10.9 24.3 24.3 C 216.5 141.3 213.9 143.9 210.8 143.9 z"/>
        <path d="M 192.2 191 c -28.5 0 -51.7 -23.2 -51.7 -51.7 s 23.2 -51.7 51.7 -51.7 c 28.5 0 51.7 23.2 51.7 51.7 S 220.7 191 192.2 191 z M 192.2 99.1 c -22.2 0 -40.2 18 -40.2 40.2 s 18 40.2 40.2 40.2 s 40.2 -18 40.2 -40.2 S 214.4 99.1 192.2 99.1 z"/>
        <path d="M 348.1 107.8 l -1.1 -5.6 l -1.2 -5.6 c 0.1 0 9.9 -2.3 20.4 -14 c 8.9 -10 20 -28.7 24.6 -62.7 C 371 31.3 323.6 53.4 256.1 53.4 H 256 c -67.5 0 -114.9 -22.2 -134.7 -33.5 c 4.6 34 15.7 52.8 24.6 62.7 c 10.5 11.7 20.3 14 20.4 14 l -2.3 11.2 c -2 -0.4 -48.1 -10.7 -55.4 -98.6 l -1 -12.4 l 10.1 7.3 C 118.2 4.6 171.2 42 256 42 h 0.1 c 84.8 0 137.8 -37.4 138.3 -37.8 l 10.1 -7.2 l -1 12.3 C 396.2 97.1 350.1 107.5 348.1 107.8 z"/>
        <path d="M 257.3 228.2 h -2.5 l -1 -0.4 c -36.3 -14.8 -38.7 -50.7 -38.8 -52.2 l 11.4 -0.6 c 0.1 1.2 2.1 28.8 29.6 41.3 c 27.8 -12.6 29.6 -41.1 29.6 -41.3 l 11.4 0.6 c -0.1 1.5 -2.4 37.4 -38.8 52.2 L 257.3 228.2 z"/>
        <path d="M 164.6 446.2 l -3.8 -2.9 c -1.2 -0.9 -30.3 -23.5 -57.4 -64.8 c -15.9 -24.3 -27.8 -50 -35.3 -76.4 c -9.4 -33.1 -11.9 -67.4 -7.4 -102 c 1.1 -8.2 3.6 -15.8 7.5 -22.5 c 6.6 -11.3 15.8 -17.7 26.5 -18.6 c 17.4 -1.5 38.1 11.8 61.7 39.5 c 2 2.4 1.8 6 -0.7 8.1 c -2.4 2 -6 1.8 -8.1 -0.7 c -26.2 -30.8 -42.7 -36.3 -52 -35.5 c -7 0.6 -12.9 5 -17.6 13 c -3.1 5.3 -5.2 11.4 -6 18.1 c -9.6 74.6 16.8 133.8 40.7 170.3 c 20.5 31.3 42.6 51.8 51.3 59.2 c 24.9 -25.1 37.2 -58 36.4 -97.8 c -0.6 -31.5 -9.6 -55.7 -9.7 -56 c -1.1 -3 0.4 -6.2 3.3 -7.4 c 3 -1.1 6.2 0.4 7.4 3.3 c 0.4 1 9.7 26 10.4 59.4 c 1 44.6 -14.1 82.7 -43.6 110.3 L 164.6 446.2 z"/>
        <path d="M 347.4 446.2 l -3.5 -3.3 c -29.5 -27.6 -44.6 -65.7 -43.6 -110.3 c 0.7 -33.4 10 -58.3 10.4 -59.4 c 1.1 -3 4.4 -4.4 7.4 -3.3 c 3 1.1 4.4 4.4 3.3 7.4 c -0.2 0.4 -9.1 24.6 -9.7 56 c -0.8 39.8 11.5 72.7 36.4 97.8 c 8.7 -7.4 30.8 -28 51.3 -59.2 c 23.9 -36.5 50.3 -95.7 40.7 -170.3 c -0.9 -6.7 -2.9 -12.8 -6 -18.1 c -4.7 -8.1 -10.7 -12.4 -17.6 -13 c -9.3 -0.8 -25.8 4.7 -52 35.5 c -2 2.4 -5.7 2.7 -8.1 0.7 c -2.4 -2 -2.7 -5.7 -0.7 -8.1 c 23.5 -27.7 44.3 -41 61.7 -39.5 c 10.7 0.9 19.9 7.4 26.5 18.6 c 3.9 6.7 6.5 14.2 7.5 22.5 c 4.5 34.6 2 68.9 -7.4 102 c -7.5 26.4 -19.4 52.2 -35.3 76.4 c -27.1 41.3 -56.2 63.9 -57.4 64.8 L 347.4 446.2 z"/>
        <path d="M 256 448.3 c -55.1 0 -71.5 -37.5 -72.2 -39.1 c -1.2 -2.9 0.1 -6.3 3 -7.5 c 2.9 -1.2 6.3 0.1 7.5 3 c 0.6 1.3 14.4 32.1 61.6 32.1 c 47.2 0 61.1 -30.8 61.7 -32.1 c 1.3 -2.9 4.6 -4.2 7.5 -3 c 2.9 1.2 4.2 4.6 3 7.5 C 327.5 410.8 311.1 448.3 256 448.3 z"/>
        <path d="M 192.4 508.9 c -1.8 0 -3.6 -0.9 -4.7 -2.5 c -20.3 -29.4 0.7 -60.2 1.6 -61.4 c 1.8 -2.6 5.4 -3.2 8 -1.4 c 2.6 1.8 3.2 5.4 1.4 7.9 c -0.7 1.1 -17.3 25.6 -1.6 48.4 c 1.8 2.6 1.1 6.2 -1.5 8 C 194.6 508.6 193.5 508.9 192.4 508.9 z"/>
        <path d="M 215.8 501.8 c -1.6 0 -3.2 -0.7 -4.3 -2 c -16.1 -18.5 -7.1 -35.3 -0.1 -41.5 c 2.4 -2.1 6 -1.9 8.1 0.5 c 2.1 2.3 1.9 5.9 -0.4 8 c -0.1 0.1 -3.1 3 -4.5 7.5 c -1.7 5.8 0.2 11.8 5.5 18 c 2.1 2.4 1.8 6 -0.6 8.1 C 218.5 501.4 217.2 501.8 215.8 501.8 z"/>
        <path d="M 319.6 508.9 c -1.1 0 -2.3 -0.3 -3.2 -1 c -2.6 -1.8 -3.2 -5.4 -1.5 -8 c 15.9 -23 -1.4 -48.1 -1.6 -48.4 c -1.8 -2.6 -1.2 -6.1 1.4 -8 c 2.6 -1.8 6.2 -1.2 8 1.4 c 0.9 1.3 21.9 32 1.6 61.4 C 323.2 508 321.5 508.9 319.6 508.9 z"/>
        <path d="M 296.2 501.8 c -1.3 0 -2.7 -0.5 -3.8 -1.4 c -2.4 -2.1 -2.6 -5.7 -0.6 -8.1 c 5.5 -6.3 7.3 -12.5 5.4 -18.4 c -1.4 -4.3 -4.3 -7 -4.3 -7 c -2.4 -2.1 -2.6 -5.7 -0.5 -8.1 c 2.1 -2.4 5.7 -2.6 8.1 -0.5 c 7 6.3 16.1 23 -0.1 41.5 C 299.4 501.2 297.8 501.8 296.2 501.8 z"/>
    </g>
    <g fill="#FFD561">
        <path d="M 162.2 402.7 c 11.9 -17.5 16.9 -36.7 18.3 -54.5 C 109.4 332.2 90.2 222 89.8 220 C 84.5 310 134.6 374.4 162.2 402.7 z"/>
        <path d="M 349.8 402.7 c -11.9 -17.5 -16.9 -36.7 -18.3 -54.5 c 71.2 -16 90.4 -126.2 90.7 -128.2 C 427.5 310 377.4 374.4 349.8 402.7 z"/>
    </g>
</svg>
