<?xml version="1.0" encoding="UTF-8"?>
<svg xmlns="http://www.w3.org/2000/svg" version="1.1" viewBox="0 0 256 256">
    <g fill="#C9E084">
        <path d="M174.045,186.509l-7.998,24.411c-2.914,8.89,1.932,18.457,10.821,21.371l1.5,0.491 c8.89,2.914,18.457-1.933,21.37-10.821l8-24.411L174.045,186.509z"/>
        <path d="M55.507,89.718v86.846h102.382V89.718H55.507z M120.153,156.638c0,0-24.811-3.232-31.79-15.321 c-6.978-12.085,3.277-34.065,3.277-34.065s24.161,2.111,31.139,14.197C129.758,133.534,120.153,156.638,120.153,156.638z"/>
    </g>
    <g fill="#283182">
        <path d="M130.118,49.82v-2.719h0.987c1.582,0,2.896-1.346,2.988-2.926c0.006-0.118,0.012-0.237,0.012-0.361 V30.967c0-5.602-4.055-10.158-9.037-10.158H70.869c-4.983,0-9.038,4.557-9.038,10.158v12.848c0,0.124,0.006,0.243,0.016,0.406 c0.057,1.607,1.377,2.881,2.985,2.881h0.985v2.866c-6.862,0.63-12.396,3.01-16.476,7.111c-8.012,8.053-7.95,20.347-7.927,24.975 l0.002,118.919c0,7.578,5.411,13.743,12.062,13.743h88.985c6.652,0,12.062-6.165,12.062-13.743V82.301 c0.008-4.92,0.029-17.991-8.072-26.104C142.369,52.104,136.866,49.974,130.118,49.82z M86.938,47.101 c1.65,0,2.987-1.338,2.987-2.988c0-1.65-1.337-2.988-2.987-2.988H67.807V30.967c0-2.267,1.403-4.183,3.063-4.183h54.199 c1.659,0,3.062,1.916,3.062,4.183l-0.001,10.158H101.28c-1.651,0-2.988,1.338-2.988,2.988c0,1.65,1.337,2.988,2.988,2.988 h22.863v2.689h-52.35v-2.689H86.938z M53.577,61.292c3.648-3.667,9.049-5.526,16.051-5.526h59.715 c5.467,0,9.801,1.565,12.883,4.653c5.072,5.08,6.078,13.283,6.276,18.544H47.42C47.581,73.96,48.517,66.378,53.577,61.292z M47.392,181.357h11.852c1.649,0,2.988-1.337,2.988-2.988c0-1.65-1.339-2.988-2.988-2.988H47.392V93.708h74.734 c1.651,0,2.988-1.337,2.988-2.988c0-1.65-1.337-2.988-2.988-2.988H47.392v-2.794h101.159v2.794h-12.083 c-1.65,0-2.987,1.338-2.987,2.988c0,1.65,1.337,2.988,2.987,2.988h12.083v81.674H73.584c-1.649,0-2.988,1.338-2.988,2.988 c0,1.65,1.339,2.988,2.988,2.988h74.967v3.387H47.392V181.357z M142.464,208.74H53.478c-3.3,0-6.087-3.558-6.087-7.768V190.72 h101.159v10.252C148.551,205.182,145.764,208.74,142.464,208.74z"/>
        <path d="M212.43,157.44c-2.404-4.748-6.514-8.276-11.571-9.934l-1.5-0.491c-2.016-0.661-4.104-0.996-6.208-0.996 c-8.635,0-16.243,5.516-18.934,13.726l-15.997,48.82c-3.421,10.441,2.289,21.72,12.733,25.143l1.497,0.489 c2.016,0.661,4.104,0.996,6.208,0.996c8.634,0,16.242-5.516,18.932-13.726l15.998-48.819 C215.246,167.589,214.834,162.189,212.43,157.44z M191.911,219.606c-1.884,5.749-7.209,9.611-13.253,9.611 c-1.471,0-2.933-0.235-4.35-0.7l-1.497-0.489c-7.312-2.396-11.31-10.292-8.914-17.602l7.069-21.572l28.014,9.18L191.911,219.606 z M207.91,170.785l-7.069,21.57l-28.014-9.18l7.068-21.57c1.884-5.748,7.21-9.611,13.255-9.611c1.471,0,2.934,0.235,4.348,0.699 l1.499,0.491c3.541,1.16,6.418,3.631,8.101,6.955C208.783,163.464,209.071,167.244,207.91,170.785z"/>
        <path d="M111.392,161.194c0.127,0.016,0.253,0.024,0.378,0.024c0.003,0,0.006,0.001,0.009,0.001 c0.003,0,0.005-0.001,0.008-0.001c0.233-0.001,0.461-0.036,0.684-0.089c0.034-0.008,0.068-0.014,0.103-0.023 c0.227-0.063,0.441-0.154,0.646-0.267c0.016-0.009,0.034-0.012,0.051-0.021c0.018-0.01,0.031-0.025,0.049-0.036 c0.156-0.094,0.306-0.197,0.441-0.318l0,0c0.136-0.121,0.258-0.256,0.37-0.4c0.024-0.032,0.046-0.064,0.068-0.096 c0.084-0.116,0.158-0.238,0.226-0.367c0.019-0.036,0.037-0.07,0.054-0.107c0.019-0.04,0.043-0.076,0.06-0.117 c0.416-0.999,10.084-24.618,2.454-37.83c-7.667-13.28-32.416-15.587-33.466-15.679c-1.25-0.109-2.437,0.575-2.968,1.713 c-0.445,0.955-10.824,23.543-3.157,36.823C85.03,157.62,110.32,161.054,111.392,161.194z M85.126,112.065 c7.436,1.018,22.11,4.536,26.691,12.471c3.899,6.752,1.677,18.622-0.71,26.561l-14.887-25.786 c-0.826-1.43-2.654-1.919-4.082-1.094c-1.429,0.825-1.918,2.652-1.094,4.082l14.892,25.794 c-8.064-1.897-19.453-5.909-23.359-12.676C77.994,133.481,82.287,119.013,85.126,112.065z"/>
    </g>
</svg>
