<?xml version="1.0" ?><!DOCTYPE svg  PUBLIC '-//W3C//DTD SVG 1.1//EN'  'http://www.w3.org/Graphics/SVG/1.1/DTD/svg11.dtd'>
<svg xmlns="http://www.w3.org/2000/svg" version="1.1" viewBox="0 0 256 256">
    <path fill="#FFD561" d="M163.56,122.658c3.971-1.507,12.573-2.74,20.977-0.1c8.168-26.624,6.71-51.666,0.29-59.545h-21.708      c0,0-0.197,0.688-0.607,1.942c-5.708,12.109-50.39,99.791-145.342,95.816l-2.721,17.7c9.614,3.839,11.779,5.256,20.485,7.499      l1.045-0.03l1.034,9.747c52.246,12.327,88.221,1.664,112.11-18.108c-0.992-2.75-1.985-5.655-2.98-8.737      C139.067,146.906,142.381,130.698,163.56,122.658z" />
    <g fill="#6EAF6C">
        <path d="M227.587,120.178c-2.811-1.067-6.782-1.679-10.898-1.679c-3.188,0-8.212,0.394-13.534,2.314      c1.034-5.753,1.354-12.163-0.509-17.443c-0.546-1.546-2.242-2.356-3.785-1.81c-1.545,0.546-2.357,2.24-1.811,3.785      c1.934,5.477,0.822,12.918-0.697,18.826c-0.263,0.169-0.526,0.33-0.786,0.51c-4.497-3.357-9.392-5.021-13.815-5.782      c6.541-21.897,8.308-50.37-0.059-61.41c0.019-0.262,0.015-0.528-0.041-0.797l-4.902-23.929      c-0.282-1.381-1.497-2.372-2.906-2.372h-14.128c-1.639,0-2.967,1.328-2.967,2.967v22.259c-1.025,0.117-1.963,0.752-2.397,1.769      c-0.106,0.253-11.066,25.542-34.152,49.941c-30.768,32.52-67.316,48.149-108.66,46.399c-1.499-0.06-2.827,1.02-3.057,2.514      l-2.721,17.701c-0.21,1.365,0.551,2.694,1.833,3.206c2.55,1.019,4.571,1.865,6.331,2.601c4.706,1.97,7.643,3.198,13.598,4.775      l0.784,7.396c0.134,1.253,1.043,2.286,2.269,2.575c14.919,3.52,29.082,5.269,42.377,5.268      c28.886-0.001,53.636-8.279,72.978-24.555c11.49,33.443,24.616,50.402,39.05,50.402c4.634,0,8.274-1.824,10.51-3.256      c2.234,1.432,5.874,3.256,10.509,3.256c0.001,0,0,0,0.001,0c15.158,0,28.878-18.695,40.772-55.562      C255.011,144.518,248.736,128.206,227.587,120.178z M162.684,36.325h8.739l4.023,19.641h-12.774      c0.001-0.041,0.012-0.079,0.012-0.12V36.325z M16.217,174.275c-1.249-0.523-2.63-1.101-4.233-1.755l1.963-12.776      c1.194,0.028,2.377,0.043,3.554,0.043c50.488,0,85.987-26.114,107.149-48.527c4.128-4.373,7.861-8.747,11.227-13      c-2.36,3.879-4.969,7.873-7.851,11.909c-17.525,24.537-48.89,55.604-98.786,64.253c-1.541,0.268-2.609,1.682-2.445,3.237      l0.056,0.526C22.698,176.987,20.185,175.935,16.217,174.275z M33.987,189.192l-1-9.423c50.379-9.647,82.13-41.261,99.988-66.322      c16.588-23.278,24.374-44.787,26.576-51.546h3.536c-1.366,4.139-4.549,13.166-9.664,24.185      c-0.689,1.487-0.045,3.252,1.441,3.941c0.404,0.188,0.829,0.276,1.247,0.276c1.12,0,2.191-0.636,2.693-1.718      c6.246-13.457,9.633-23.841,10.518-26.685h8.219c2.436,3.984,3.88,11.594,3.903,20.834c0.029,11.144-2.017,23.709-5.739,35.604      c-0.228-0.004-0.457-0.009-0.678-0.009c-4.235,0-8.585,0.691-11.634,1.848c-20.888,7.929-27.257,23.948-19.472,48.942      C117.119,192.886,80.149,199.641,33.987,189.192z M241.127,168.226c-6.2,19.215-19.007,51.45-35.126,51.449      c-4.24,0-7.4-2.329-8.749-3.323c-0.524-0.386-1.143-0.579-1.761-0.579c-0.62,0-1.237,0.192-1.761,0.579      c-1.35,0.995-4.509,3.323-8.749,3.323c-16.119,0-28.928-32.235-35.127-51.449c-7.267-22.526-2.441-35.633,15.646-42.499      c1.862-0.707,5.343-1.462,9.527-1.462c5.132,0,12.507,1.11,18.5,6.398c0.211,0.186,0.446,0.327,0.689,0.443      c-0.556,1.549-0.964,2.535-1.036,2.705c-1.87-0.525-3.067-1.325-3.191-1.412c-1.331-0.94-3.175-0.634-4.127,0.693      c-0.954,1.332-0.648,3.186,0.684,4.141c0.253,0.182,4.277,2.997,9.955,2.997c3.031,0,6.534-0.802,10.185-3.236      c1.362-0.908,1.731-2.751,0.821-4.114c-0.907-1.364-2.751-1.732-4.113-0.823c-1.326,0.884-2.621,1.45-3.852,1.789      c0.533-1.432,1.227-3.439,1.909-5.802c5.753-3.072,11.77-3.608,15.238-3.608c3.373,0,6.659,0.483,8.792,1.293      C243.569,132.593,248.394,145.699,241.127,168.226z" />
        <path d="M157.518,156.473c-0.65-3.478-0.855-5.59-0.856-5.611c-0.154-1.63-1.586-2.822-3.232-2.675      c-1.631,0.154-2.829,1.599-2.676,3.229c0.009,0.096,0.225,2.375,0.932,6.148c0.267,1.426,1.513,2.422,2.913,2.422      c0.181,0,0.365-0.017,0.549-0.051C156.759,159.633,157.821,158.083,157.518,156.473z" />
        <path d="M160.918,169.933c-0.493-1.562-2.16-2.426-3.724-1.932c-1.562,0.495-2.428,2.162-1.933,3.724      c2.85,8.999,6.617,17.367,11.193,24.873c0.56,0.917,1.535,1.423,2.535,1.423c0.527,0,1.061-0.14,1.544-0.435      c1.398-0.853,1.84-2.678,0.988-4.077C167.194,186.41,163.626,178.478,160.918,169.933z" />
        <path d="M149.859,99.89c-1.436-0.796-3.238-0.279-4.035,1.155c-13.253,23.888-28.615,41.374-45.661,51.976      c-1.393,0.866-1.818,2.696-0.952,4.087c0.562,0.904,1.531,1.401,2.521,1.401c0.536,0,1.076-0.145,1.565-0.448      c17.914-11.142,33.969-29.354,47.718-54.136C151.809,102.49,151.292,100.685,149.859,99.89z" />
    </g>
</svg>