<?xml version="1.0" ?><svg id="Layer_1" style="enable-background:new 0 0 512 512;" version="1.1" viewBox="0 0 512 512" xml:space="preserve" xmlns="http://www.w3.org/2000/svg" xmlns:xlink="http://www.w3.org/1999/xlink"><style type="text/css">
	.st0{opacity:0.5;}
	.st1{fill:#E30613;}
	.st2{fill:#9E000F;}
	.st3{fill:#E30917;}
</style><g><g class="st0"><g><path class="st1" d="M377,98.9c-48.7,0-82.2,26.9-100,67.2c-17.8-40.3-51.3-67.2-100-67.2c-75.5,0-115.1,55.5-115.1,143.3     c0,92.6,175.3,250.8,215.1,250.8c39.8,0,215.2-158.2,215.1-250.8C491.9,154.4,452.5,98.9,377,98.9z"/></g></g><path class="st2" d="M322.8,408.4c-6.2-6.2-14.9-5.2-21.2,0c-9.6,7.9-19.1,15.1-29.7,22.1c-4,2.6-8.1,5.2-12.3,7.5   c-1.8,1-3.7,2-5.6,2.9c-1,0.5-2.1,1-3.1,1.5c-0.1,0.1-0.2,0.1-0.3,0.1c-0.2,0-0.3,0.1-0.5,0.2c-1.6,0.5-3.2,1.1-4.8,1.6   c-0.4,0.1-0.8,0.2-1.2,0.3c-0.4,0-0.8,0-1.3,0c-1.1-0.3-2.3-0.5-3.4-0.9c-0.9-0.3-1.7-0.6-2.6-0.9c-0.1-0.1-0.3-0.1-0.4-0.2   c-9.3-4.6-18-9.6-26.6-15.5c-4.8-3.3-9.5-6.8-14.2-10.3c-0.4-0.3-2.3-1.8-2.9-2.3c-1.4-1.1-2.9-2.3-4.3-3.5   c-3.1-2.5-6.2-5.1-9.2-7.6c-25.4-21.5-49-45.2-70.6-70.5c-5.2-6.1-10.3-12.3-15.2-18.6c-0.4-0.5-1-1.3-1.2-1.5   c-0.6-0.8-1.2-1.6-1.8-2.3c-1.3-1.7-2.6-3.4-3.8-5.2c-2.5-3.4-4.9-6.9-7.3-10.4c-8.8-12.8-16.9-26.2-23.6-40.3   c-0.9-1.8-1.7-3.7-2.5-5.5c-0.2-0.5-0.8-1.8-0.8-2c-0.1-0.3-0.2-0.5-0.3-0.8c-1.4-3.5-2.7-7.1-3.8-10.7c-1.1-3.4-2.1-6.9-2.9-10.4   c-0.4-1.7-0.7-3.4-1-5.1c-0.1-0.7-0.2-1.4-0.4-2.2c-2.2-24.3,0.7-46.9,7.7-69.6c2.3-7.5-2.7-16.7-10.5-18.5   c-8.1-1.9-16,2.4-18.5,10.5c-7.1,23.1-10.7,48.9-9.2,73.1c0.9,14.5,4.6,28.7,10.1,42.1c13.3,32.6,33.5,61.6,55.7,88.8   c22.3,27.4,47.1,52.8,73.8,76c20.2,17.5,41.9,35.8,66.2,47.2c11.6,5.5,22.9,8.9,35.6,5.1c10.5-3.2,20.3-8.8,29.5-14.6   c13.4-8.5,26.1-18.3,38.4-28.4C329.1,424.4,328.2,413.7,322.8,408.4z"/><path class="st3" d="M467.6,153.3c-7.2-31.4-22.8-60.6-48.9-80.1c-26.9-20.2-62.8-25.8-95.5-21.2c-33.1,4.7-61,23.6-79.7,50.1   c-9.6-13.9-21.8-25.9-36.3-34.7C183.1,52.7,153.7,48,126,51.4c-17.8,2.2-34.9,7.2-50.3,16.6c-6.9,4.2-9.5,13.5-5.4,20.5   c4,6.9,13.6,9.6,20.5,5.4c7.8-4.7,12-6.6,20-9c8.9-2.7,15.4-3.8,23.7-4.3c17.1-1,28.1,0,44,5.9c0.8,0.3,1.6,0.6,2.4,0.9   c0.1,0,0.1,0,0.2,0.1c1.6,0.7,3.2,1.5,4.7,2.3c3.1,1.6,6.1,3.3,9,5.2c1.4,0.9,2.8,2,4.2,2.9c0.2,0.1,0.3,0.2,0.4,0.3   c0.5,0.4,1.1,0.9,1.6,1.3c2.6,2.2,5.2,4.6,7.6,7c2.4,2.5,4.7,5.1,6.9,7.8c0.1,0.1,0.2,0.2,0.3,0.3c0.5,0.6,0.9,1.2,1.4,1.9   c1,1.4,2,2.9,3,4.4c4,6.1,7.4,12.5,10.3,19.1c4.4,9.8,21.5,9.8,25.9,0c3.3-7.4,7.2-14.6,11.8-21.4c0.6-0.9,1.3-1.8,1.9-2.7   c0.1-0.1,0.4-0.5,0.7-0.9c0.5-0.6,1.5-1.9,1.4-1.8c0.6-0.7,1.1-1.3,1.7-2c2.5-2.9,5.2-5.7,8.1-8.4c1.4-1.3,2.9-2.6,4.4-3.8   c0.3-0.2,1-0.8,1.3-1.1c0.4-0.3,0.8-0.6,1.2-0.9c3.2-2.3,6.5-4.3,9.9-6.2c1.9-1,3.9-2,5.8-2.9c0.6-0.3,1.3-0.6,1.9-0.8   c0.2-0.1,0.4-0.1,0.6-0.2c3.8-1.4,7.7-2.7,11.6-3.7c2.3-0.6,4.5-1.1,6.8-1.5c0.8-0.1,4.1-0.6,3.9-0.6c4.4-0.5,8.9-0.8,13.3-0.8   c3.7,0,7.3,0.1,10.9,0.3c1.6,0.1,3.3,0.3,4.9,0.4c0.1,0,1.2,0.1,1.9,0.2c0.7,0.1,1.7,0.3,1.9,0.3c6.8,1.2,13.4,2.9,19.9,5.3   c0.8,0.3,5.8,2.5,2,0.7c1.3,0.6,2.6,1.2,3.9,1.8c3,1.5,6,3.2,8.9,5c1.3,0.9,2.7,1.7,4,2.7c0.8,0.6,2.3,1.8,2.3,1.7   c2.2,1.9,4.4,3.7,6.5,5.8c2.2,2.1,4.2,4.4,6.2,6.7c0.5,0.5,0.9,1.1,1.4,1.7c0,0.1,0.1,0.1,0.1,0.1c1,1.4,2.1,2.8,3.1,4.3   c3.8,5.6,7.1,11.6,9.9,17.8c0.3,0.7,0.6,1.3,0.9,2c0,0.1,0.1,0.2,0.1,0.4c0.6,1.5,1.2,3,1.7,4.5c1.3,3.7,2.5,7.4,3.5,11.2   c2.1,7.5,3.7,15.2,4.8,23c0.1,0.4,0.2,1.6,0.3,1.9c0.1,0.5,0.1,1,0.2,1.6c0.2,1.9,0.4,3.7,0.6,5.6c0.4,4.8,0.7,9.6,0.9,14.4   c0.1,3.8,0.2,7.6,0.1,11.3c-0.1,2-0.3,4-0.4,6c0,0.1,0,0.3-0.1,0.5c-0.2,1-0.3,2-0.5,3c-1.5,8-3.9,15.8-6.8,23.5   c-0.3,0.9-0.7,1.8-1.1,2.7c-0.2,0.5-0.3,0.8-0.4,0.9c-0.1,0.2-0.2,0.5-0.4,0.9c-1,2.3-2.1,4.6-3.2,6.9c-2.3,4.7-4.7,9.4-7.3,13.9   c-5.4,9.7-11.5,19.1-17.8,28.3c-13.5,19.4-28.6,37.3-45,55c-5.5,5.9-5.9,15.3,0,21.2c5.6,5.6,15.7,6,21.2,0   c30.2-32.5,59.6-68.6,77.6-109.4c7.6-17.3,13.7-35.4,14-54.5C473.8,191,471.8,171.7,467.6,153.3z M443,218   C442.9,218.5,442.8,218.8,443,218L443,218z"/><circle class="st1" cx="56.2" cy="107.7" r="16.3"/><circle class="st2" cx="343.2" cy="392.7" r="16.3"/></g></svg>