<?xml version="1.0" encoding="UTF-8"?>
<svg xmlns="http://www.w3.org/2000/svg" version="1.1" viewBox="0 0 256 256">
    <path fill="#ffd561" d="M 190.6 166.2 c -8 9.4 -65.7 63.6 -87.2 70.9 c -3.1 1 -5.5 1.3 -6.9 0.1 c -1.5 -1.3 -2.2 -3.4 -1.4 -7.2 c 5.1 -23.5 48.8 -87.8 56.6 -97 c 9.2 -10.7 25.3 -12 36 -2.9 C 198.4 139.3 199.7 155.4 190.6 166.2 z"/>
    <g fill="#283182">
        <path d="M 106.3 107.6 c -1 -0.7 -2.3 -0.7 -3.4 0 c -1.8 1.2 -4.4 1.8 -7.5 1.8 c -3.2 0 -5.8 -0.6 -5.8 -0.6 c -1 -0.2 -2 0 -2.8 0.8 c -0.7 0.7 -1.1 1.8 -0.8 2.8 l 7 33.6 c 0.3 1.4 1.5 2.3 2.9 2.4 c 0 0 0 0 0.1 0 c 1.4 0 2.6 -0.9 2.9 -2.3 l 8.7 -35.2 C 107.8 109.6 107.3 108.3 106.3 107.6 z M 96.1 131.9 l -3.5 -16.6 c 0.8 0.1 1.8 0.1 2.8 0.1 c 1.8 0 3.4 -0.1 4.9 -0.4 L 96.1 131.9 z"/>
        <path d="M 230 74.9 c 1.1 -1.3 0.9 -3.1 -0.3 -4.2 c -1.3 -1.1 -3.1 -0.9 -4.2 0.3 l -42.9 50.3 c -1.4 -0.9 -2.8 -1.7 -4.3 -2.4 l 29.9 -35.1 c 1.1 -1.3 0.9 -3.1 -0.3 -4.2 c -1.3 -1.1 -3.1 -0.9 -4.2 0.3 l -31.4 36.8 c 0 0 -0.1 0.1 -0.1 0.1 c -0.2 0 -0.4 -0.1 -0.6 -0.1 c 7.6 -7.9 11 -16.1 11 -26.1 c 0 -18.6 -14.8 -33.9 -33.3 -34.6 c -4.6 -21.9 -24.3 -38.2 -46.9 -38.2 c -22.7 0 -42.5 16.3 -47 38.3 c -17.7 1.7 -31.2 16.4 -31.2 34.4 c 0 19.1 15.5 34.6 34.6 34.6 c 5 0 10 -1.1 14.5 -3.2 c 5.7 30.3 10.1 57.7 10.1 58 c 0.2 1.4 1.5 2.5 2.9 2.5 h 20.8 c -9 15.3 -17.8 31.9 -20 42.1 c -1 4.5 -0.2 7.9 2.4 10.1 c 1.1 1 2.6 1.5 4.4 1.5 c 1.5 0 3.3 -0.3 5.4 -1.1 c 22.6 -7.7 80.2 -62.1 88.5 -71.8 c 9.5 -11.2 8.9 -27.7 -1 -38.1 L 230 74.9 z M 110.8 176.6 H 89 c -1.3 -7.9 -5.5 -33 -10.5 -59.6 c -0.2 -1 -0.8 -1.8 -1.7 -2.2 c -0.9 -0.4 -1.9 -0.3 -2.8 0.2 c -4.5 2.8 -9.8 4.3 -15.1 4.3 c -15.8 0 -28.6 -12.8 -28.6 -28.6 c 0 -14.4 10.4 -26.2 24.2 -28.3 c -0.5 2.7 -0.9 4.5 -0.9 4.6 c -0.3 1.6 0.7 3.2 2.3 3.5 c 0.2 0 0.4 0.1 0.6 0.1 c 1.4 0 2.6 -1 2.9 -2.4 c 0 -0.2 1.1 -5.4 1.9 -11.2 c 4.1 -19 21.3 -33.1 41 -33.1 c 19.6 0 36.7 13.9 40.9 32.7 c -5.9 1.3 -10.9 4.6 -11.2 4.8 c -1.4 0.9 -1.7 2.8 -0.8 4.1 c 0.6 0.9 1.5 1.3 2.5 1.3 c 0.6 0 1.1 -0.2 1.6 -0.5 c 0.1 0 6 -3.9 11.6 -4.3 c 0 0 0 0 0 0 c 0.3 0 0.7 0 1 0 c 15.8 0 28.6 12.8 28.6 28.6 c 0 7 -1.6 15.6 -13.1 25.6 c -0.1 0.1 -0.1 0.1 -0.2 0.2 c -4.5 0.5 -8.8 2 -12.6 4.5 c -7.9 1.6 -16.1 -1.9 -18.6 -6.2 c -0.6 -1.1 -1.9 -1.6 -3.1 -1.4 c -1.2 0.2 -2.2 1.2 -2.4 2.4 c -6.2 33.1 -10.2 51.4 -10.2 51.6 c 0 0.1 0 0.3 0 0.4 c -0.4 0.7 -0.9 1.4 -1.3 2.1 c -1.3 2.2 -2.7 4.4 -4.1 6.7 C 110.8 176.6 110.8 176.6 110.8 176.6 z M 125.3 153.8 c 1.5 -7.7 3.6 -18.1 6.1 -31.2 c 3.4 2.5 7.9 4.1 12.6 4.6 C 140.7 131.2 133.6 141.2 125.3 153.8 z M 183.5 159.5 c -3 3.5 -13.5 13.8 -26.4 25.5 l -11.1 -9.4 c -1.3 -1.1 -3.1 -0.9 -4.2 0.3 c -1.1 1.3 -0.9 3.1 0.3 4.2 l 10.4 8.9 c -19.6 17.4 -43.3 36.6 -55 40.6 c -3 1 -3.9 0.7 -4 0.7 c 0 0 0 0 0 0 c -0.3 -0.2 -1.1 -1 -0.4 -4.3 c 1.1 -5 4.2 -12.4 9 -21.9 l 8.3 7.1 c 0.6 0.5 1.3 0.7 1.9 0.7 c 0.8 0 1.7 -0.4 2.3 -1 c 1.1 -1.3 0.9 -3.1 -0.3 -4.2 l -9.4 -8 c 4.1 -7.6 9.1 -16.2 15 -25.7 c 6.4 -10.2 12.9 -20.1 18.2 -27.8 l 13 11.1 c 0.6 0.5 1.2 0.7 1.9 0.7 c 0.8 0 1.7 -0.4 2.3 -1 c 1.1 -1.3 0.9 -3.1 -0.3 -4.2 l -13.5 -11.5 c 3.4 -4.8 6 -8.4 7.5 -10 c 4.3 -5 10.6 -7.9 17.2 -7.9 c 5.4 0 10.5 1.9 14.6 5.4 C 190.4 135.7 191.6 150 183.5 159.5 z"/>
        <path d="M 230.7 86.1 c -1.3 -1.1 -3.1 -0.9 -4.2 0.3 l -31.9 37.5 c -1.1 1.3 -0.9 3.1 0.3 4.2 c 0.6 0.5 1.2 0.7 1.9 0.7 c 0.8 0 1.7 -0.4 2.3 -1 L 231 90.3 C 232.1 89 231.9 87.2 230.7 86.1 z"/>
        <path d="M 128.8 178.7 c -1.1 1.3 -0.9 3.1 0.3 4.2 l 9.7 8.3 c 0.6 0.5 1.2 0.7 1.9 0.7 c 0.8 0 1.7 -0.4 2.3 -1 c 1.1 -1.3 0.9 -3.1 -0.3 -4.2 l -9.7 -8.3 C 131.7 177.3 129.8 177.4 128.8 178.7 z"/>
        <path d="M 170.4 140.7 c -1.1 1.3 -0.9 3.1 0.3 4.2 l 9.7 8.3 c 0.6 0.5 1.2 0.7 1.9 0.7 c 0.8 0 1.7 -0.4 2.3 -1 c 1.1 -1.3 0.9 -3.1 -0.3 -4.2 l -9.7 -8.3 C 173.3 139.3 171.4 139.5 170.4 140.7 z"/>
    </g>
</svg>
