<?xml version="1.0" encoding="UTF-8"?>
<svg xmlns="http://www.w3.org/2000/svg" version="1.1" viewBox="0 0 256 256">
    <g fill="#FFD561">
        <path d="M235.213,99.595c0,0-14.109,2.253-31.8,6.24l-9.628-36.258c0,0-14.331,9.314-30.682,21.73 l-25.866-34.082L114.49,89.553C98.139,77.136,83.809,67.822,83.809,67.822l-9.627,36.258 c-17.692-3.986-31.801-6.239-31.801-6.239s6.56,69.816,41.264,88.845c7.18,6.95,17.309,11.808,31.204,12.079v-0.016 c6.738,3.376,14.339,5.288,22.389,5.288c7.628,0,14.854-1.713,21.324-4.764v0.01c13.904,2.776,26.33-2.034,35.287-10.788 C228.64,169.55,235.213,99.595,235.213,99.595z"/>
    </g>
    <g fill="#283182">
        <path d="M218.963,94.648c-0.717-0.672-1.704-0.976-2.67-0.819c-0.138,0.022-13.474,2.165-30.244,5.885 c-3.497-17.934-7.257-32.228-7.617-33.584c-0.261-0.984-0.979-1.782-1.927-2.148c-0.949-0.365-2.016-0.255-2.87,0.301 c-0.142,0.092-14.262,9.291-30.271,21.41C132.416,68.021,122.306,54,121.387,52.731c-0.597-0.824-1.553-1.312-2.569-1.312 c-1.017,0-1.973,0.488-2.57,1.312c-0.871,1.202-9.978,13.831-20.236,30.169C80.579,71.299,67.257,62.62,67.118,62.53 c-0.853-0.554-1.92-0.666-2.87-0.301c-0.949,0.366-1.666,1.164-1.927,2.148c-0.36,1.355-4.12,15.649-7.617,33.583 c-16.771-3.721-30.106-5.863-30.243-5.884c-0.97-0.155-1.954,0.147-2.67,0.818c-0.716,0.671-1.082,1.636-0.99,2.613 c0.069,0.733,1.758,18.207,7.843,38.259c8.089,26.66,19.707,44.408,34.54,52.792c7.043,6.766,17.395,12.267,32.489,12.721 c0.683,0.331,1.376,0.643,2.075,0.945l0,0l0,0c6.466,2.798,13.588,4.357,21.069,4.357c7.727,0,15.067-1.668,21.699-4.642 c2.432,0.426,4.854,0.647,7.25,0.647c11.026-0.001,21.474-4.407,29.598-12.161c14.931-8.335,26.619-26.121,34.745-52.904 c6.085-20.052,7.774-37.526,7.843-38.26C220.045,96.284,219.679,95.319,218.963,94.648z M27.625,99.05 c5.208,0.913,14.804,2.684,25.904,5.152c-4.037,22.202-7.106,48.062-3.026,61.893C34.97,144.342,29.213,110.708,27.625,99.05z M68.565,182.804c-0.289-0.502-0.712-0.934-1.263-1.224c-0.034-0.018-0.066-0.04-0.1-0.058 c-5.261-5.175-8.349-11.128-10.095-15.664c-7.638-19.837,6.159-79.044,10.254-95.546c5.052,3.396,14.696,10.021,25.293,18.006 c-13.225,21.631-27.071,47.891-27.071,63.024c0,15.739,6.87,29.898,17.761,39.653C77.216,189.16,72.374,186.205,68.565,182.804z M100.669,194.576c-0.139-0.082-0.279-0.163-0.415-0.246c-0.002-0.001-0.003-0.001-0.005-0.003 c-8.805-5.357-13.27-14.351-13.27-26.73c0-7.898,1.777-17.053,5.281-27.213c0.572-1.657-0.308-3.463-1.965-4.034 c-1.655-0.572-3.463,0.308-4.034,1.965c-3.734,10.827-5.627,20.679-5.627,29.282c0,4.856,0.608,9.276,1.792,13.269 c-6.556-8.067-10.495-18.342-10.495-29.524c0-22.785,36.733-76.774,46.887-91.262c10.155,14.487,46.89,68.47,46.89,91.262 c0,25.855-21.035,46.891-46.89,46.891C112.386,198.234,106.254,196.93,100.669,194.576z M172.054,151.343 c0-14.482-12.681-39.152-25.363-60.206c11.146-8.461,21.426-15.522,26.701-19.07c4.096,16.502,17.893,75.709,10.255,95.547 c-2.196,5.702-5.763,11.301-10.444,15.886c-0.332,0.217-0.613,0.483-0.834,0.79c-5.85,5.428-13.326,9.275-21.982,9.887 C163.519,184.473,172.054,168.888,172.054,151.343z M190.253,167.85c4.08-13.831,1.011-39.691-3.027-61.894 c11.1-2.467,20.696-4.238,25.904-5.151C211.542,112.463,205.784,146.097,190.253,167.85z"/>
        <path d="M101.176,113.395c-1.518-0.877-3.458-0.357-4.334,1.16c-0.074,0.127-1.834,3.184-4.189,8.155 c-0.75,1.584-0.074,3.477,1.509,4.227c0.439,0.208,0.902,0.306,1.357,0.306c1.188,0,2.328-0.67,2.87-1.815 c2.235-4.717,3.933-7.669,3.95-7.698C103.214,116.211,102.694,114.271,101.176,113.395z"/>
    </g>
</svg>
