<?xml version="1.0" encoding="UTF-8"?>
<!DOCTYPE svg PUBLIC '-//W3C//DTD SVG 1.1//EN' 'http://www.w3.org/Graphics/SVG/1.1/DTD/svg11.dtd'>
<svg xmlns="http://www.w3.org/2000/svg" version="1.1" viewBox="0 0 256 256">
    <path fill="#FFD561" d="M160.524,76.556c-5.5,0-9.959,4.459-9.959,9.96l-0.161-5.072c0-5.238-4.246-9.485-9.485-9.485 c-5.239,0-9.486,4.247-9.486,9.485v2.298c-0.566-4.694-4.559-8.334-9.406-8.334c-5.242,0-9.487,4.245-9.487,9.482v0.229 c-1.468-3.669-5.049-6.266-9.243-6.266c-0.068,0-0.133,0.01-0.199,0.011c-0.051-0.001-0.103-0.009-0.153-0.009 c-4.317,0-7.954,2.889-9.104,6.836c-0.324,0.982-0.506,2.03-0.506,3.122v20.031l14.496-0.096l2.297,12.44 c0,0.673,23.157,2.104,23.157,2.104l-13.302,12.538c0,0-26.131-0.752-25.854,0.581c1.561,7.504,5.337,14.233,10.589,19.533 v35.559h59.764v-40.936c0,0,7.082-5.934,6.004-40.888c-0.178-5.788,0-23.164,0-23.164 C170.485,81.015,166.026,76.556,160.524,76.556z"/>
    <path fill="#283182" d="M251.532,110.121h-10.421V86.72c0-5.583-4.544-10.124-10.13-10.124 c-6.316,0.005-9.285,0.008-10.696,0.013v-5.024c0-6.348-5.593-11.512-12.465-11.512c-6.873,0-12.466,5.164-12.466,11.512v0.126 c0,1.586,1.284,2.871,2.87,2.871c1.587,0,2.871-1.285,2.871-2.871v-0.126c0-3.181,3.018-5.769,6.725-5.769 c3.706,0,6.723,2.589,6.723,5.769v50.439c0,1.586,1.285,2.87,2.871,2.87c1.585,0,2.871-1.284,2.871-2.87V82.35 c2.96-0.006,10.7-0.012,10.698-0.012c2.418,0,4.385,1.965,4.385,4.382v64.99c0,2.417-1.967,4.383-4.385,4.383l-10.698-0.003 v-20.287c0-1.586-1.286-2.871-2.871-2.871c-1.586,0-2.871,1.285-2.871,2.871v31.044c0,3.18-3.017,5.769-6.723,5.769 c-3.707,0-6.725-2.589-6.725-5.769c0-0.374-0.071-0.732-0.2-1.059c0.129-0.327,0.2-0.685,0.2-1.058V85.49 c0-1.585-1.284-2.871-2.871-2.871c-1.586,0-2.87,1.286-2.87,2.871v24.631h-18.226c-1.423-3.891-4.612-6.932-8.605-8.13V87.492 c0-7.074-5.756-12.831-12.831-12.831c-3.122,0-5.984,1.123-8.212,2.984c-1.871-4.449-6.273-7.581-11.395-7.581 c-4.673,0-8.748,2.609-10.848,6.446c-2.163-1.863-4.971-2.998-8.044-2.998c-4.596,0-8.607,2.526-10.736,6.259 c-2.194-1.755-4.972-2.813-7.995-2.813c-0.067,0-0.131,0.01-0.198,0.011c-0.051-0.001-0.103-0.008-0.153-0.008 c-5.6,0-10.334,3.746-11.846,8.863c-0.408,1.249-0.635,2.58-0.635,3.965v12.166c-3.584,1.137-6.174,4.066-7.256,8.166H59.88 V71.584c0-6.348-5.592-11.512-12.466-11.512c-6.873,0-12.464,5.164-12.464,11.512v5.024c-1.413-0.005-4.381-0.008-10.7-0.013 c-5.584,0-10.126,4.541-10.126,10.124v23.401H4.468c-1.586,0-2.871,1.285-2.871,2.871v12.445c0,1.586,1.285,2.871,2.871,2.871 h9.656v23.401c0,5.583,4.542,10.124,10.126,10.124h10.7v5.013c0,6.347,5.591,11.511,12.464,11.511 c6.874,0,12.466-5.164,12.466-11.511v-23.936c0-1.586-1.285-2.871-2.871-2.871c-1.586,0-2.871,1.285-2.871,2.871v23.936 c0,3.18-3.015,5.769-6.724,5.769c-3.707,0-6.723-2.589-6.723-5.769v-59.754c0-1.585-1.285-2.871-2.871-2.871 s-2.87,1.286-2.87,2.871v48.987l-10.7,0.013c-2.418,0-4.385-1.966-4.385-4.383V86.72c0-2.417,1.967-4.382,4.383-4.382 c0,0,7.741,0.005,10.702,0.011v10.963c0,1.586,1.284,2.871,2.87,2.871s2.871-1.285,2.871-2.871V71.584 c0-3.181,3.016-5.769,6.723-5.769c3.709,0,6.724,2.589,6.724,5.769v57.545c0,1.586,1.285,2.872,2.871,2.872 c1.586,0,2.871-1.286,2.871-2.872v-0.82h18.269c0.998,4.366,4.163,7.906,8.301,9.438c1.53,7.576,5.164,14.578,10.565,20.335 v32.104h-6.191c-1.586,0-2.871,1.285-2.871,2.871c0,1.585,1.285,2.871,2.871,2.871h34.738c1.586,0,2.871-1.286,2.871-2.871 c0-1.586-1.285-2.871-2.871-2.871h-22.806v-33.263c0-0.757-0.299-1.482-0.832-2.021c-4.579-4.622-7.789-10.23-9.389-16.325 h25.172c-0.873,1.799-1.644,3.772-2.279,5.947c-0.445,1.521,0.429,3.115,1.952,3.559c0.268,0.078,0.539,0.116,0.805,0.116 c1.243,0,2.389-0.813,2.754-2.068c5.694-19.504,23.726-19.861,24.517-19.866c1.583-0.004,2.863-1.288,2.863-2.871 c0-1.586-1.284-2.871-2.87-2.871c-0.023,0-0.234,0.003-0.604,0.024c-0.262-0.077-0.533-0.132-0.818-0.132h-27.021 c-3.646,0-6.612-2.968-6.612-6.614s2.966-6.612,6.612-6.612h36.892c3.374-0.04,5.627,0.572,6.906,1.838 c1.246,1.231,1.89,3.413,1.979,6.626v11.702c0,9.416-3.747,18.384-10.553,25.25c-0.532,0.539-0.831,1.265-0.831,2.021v35.558 v0.002h-7.463c-1.586,0-2.87,1.285-2.87,2.871c0,1.585,1.284,2.871,2.87,2.871h18.375c1.585,0,2.871-1.286,2.871-2.871 c0-1.586-1.286-2.871-2.871-2.871h-5.169v-0.002v-34.399c4.691-5,8.024-10.903,9.825-17.263 c5.517-0.468,9.648-4.491,10.704-10.213h17.683v36.422c0,0.373,0.071,0.73,0.2,1.058c-0.129,0.326-0.2,0.685-0.2,1.059 c0,6.347,5.593,11.511,12.466,11.511c6.872,0,12.465-5.164,12.465-11.511v-5.013h10.698c5.584,0,10.128-4.541,10.128-10.124 v-23.401h10.421c1.586,0,2.871-1.285,2.871-2.871v-12.445C254.403,111.406,253.118,110.121,251.532,110.121z M7.339,122.566 v-6.703h6.785v6.703H7.339z M155.693,80.404c3.909,0,7.09,3.18,7.09,7.088v13.938h-7.774c-0.11,0-0.214,0.021-0.32,0.034 c-0.273-0.006-0.533-0.021-0.814-0.019h-5.269V87.492C148.605,83.584,151.784,80.404,155.693,80.404z M136.086,75.807 c3.648,0,6.615,2.967,6.615,6.613v16.891c0,0.321,0.064,0.623,0.161,0.911v1.224h-13.314V85.867c0-0.455-0.027-0.901-0.076-1.342 V82.42C129.472,78.773,132.44,75.807,136.086,75.807z M91.497,101.188V89.317c0-0.62,0.092-1.22,0.253-1.789 c0.927-2.741,3.483-4.733,6.516-4.817c3.577,0.083,6.461,3.011,6.461,6.606v11.871c0,3.646-2.968,6.614-6.614,6.614 S91.497,104.835,91.497,101.188z M60.133,115.863h17.675v6.703H60.133V115.863z M117.006,126.157h11.426 c-2.505,1.676-4.973,3.854-7.164,6.677H91.015c-4.116,0-7.465-3.348-7.465-7.464v-10.733c0-1.965,0.417-6.208,3.897-7.236 c2.146,3.668,6.116,6.145,10.664,6.145c2.495,0,4.815-0.749,6.76-2.027c-0.139,0.742-0.22,1.503-0.22,2.283 C104.652,120.613,110.194,126.157,117.006,126.157z M111.293,102.857V89.789c0-1.457-0.256-2.851-0.704-4.154 c0.124-3.539,3.035-6.381,6.605-6.381c3.322,0,6.072,2.467,6.535,5.663v14.394c0,0.22,0.029,0.432,0.076,0.637v1.498h-6.8 C114.945,101.445,113.003,101.96,111.293,102.857z M168.202,132.413c0.207-1.67,0.322-3.356,0.322-5.059v-10.832 c0.005-0.062,0.02-0.12,0.02-0.182c0-0.2-0.015-0.383-0.02-0.579v-0.224c0-0.033-0.008-0.067-0.009-0.101 c-0.081-2.698-0.163-5.112-1.251-6.803c-0.97-1.506-0.834-1.118-0.834-1.118s0.486-0.062,1.552,0.409 c2.533,1.121,4.216,3.761,4.216,6.711v10.733C172.198,128.346,170.942,131.338,168.202,132.413z M194.975,122.566h-17.034v-6.703 h17.034V122.566z M248.661,122.566h-7.55v-6.703h7.55V122.566z"/>
</svg>
