<?xml version="1.0" encoding="UTF-8"?>
<svg xmlns="http://www.w3.org/2000/svg" version="1.1" viewBox="0 0 256 256">
    <g fill="#FFD561">
        <path d="M182.746,174.507c0,0.601-0.492,1.094-1.094,1.094h-15.619c-0.602,0-1.094-0.493-1.094-1.094v-15.62 c0-0.601,0.493-1.094,1.094-1.094h15.619c0.602,0,1.094,0.493,1.094,1.094V174.507z"/>
        <path d="M182.199,134.393c0,0.602-0.493,1.094-1.094,1.094h-15.62c-0.601,0-1.094-0.492-1.094-1.094v-15.62 c0-0.602,0.493-1.094,1.094-1.094h15.62c0.602,0,1.094,0.492,1.094,1.094V134.393z"/>
    </g>
    <g fill="#283182">
        <path d="M180.376,118.84c0-2.111-1.718-3.829-3.829-3.829h-15.62c-2.111,0-3.829,1.717-3.829,3.829v15.62 c0,2.111,1.718,3.829,3.829,3.829h15.62c2.111,0,3.829-1.718,3.829-3.829V118.84z M174.905,132.819h-12.337v-12.338h12.337 V132.819z"/>
        <path d="M176.546,155.44h-15.62c-2.111,0-3.829,1.718-3.829,3.83v15.619c0,2.111,1.718,3.829,3.829,3.829h15.62 c2.111,0,3.829-1.718,3.829-3.829V159.27C180.376,157.158,178.658,155.44,176.546,155.44z M174.905,173.249h-12.337v-12.338 h12.337V173.249z"/>
        <path d="M143.023,84.702c-2.798,0-4.112-0.526-5.633-1.134c-1.788-0.715-3.814-1.526-7.666-1.526 c-3.852,0-5.879,0.811-7.666,1.526c-1.523,0.608-2.837,1.134-5.636,1.134c-2.796,0-4.046-0.501-5.629-1.134 c-1.787-0.715-3.812-1.526-7.664-1.526c-3.851,0-5.877,0.812-7.664,1.526c-1.521,0.608-2.835,1.134-5.631,1.134 c-2.797,0-4.11-0.526-5.631-1.134c-1.787-0.715-3.812-1.526-7.661-1.526c-1.511,0-2.735,1.225-2.735,2.735 c0,1.51,1.224,2.734,2.735,2.734c2.795,0,4.046,0.502,5.628,1.135c1.788,0.715,3.813,1.526,7.664,1.526 c3.85,0,5.877-0.811,7.663-1.526c1.521-0.608,2.835-1.135,5.631-1.135s4.111,0.526,5.631,1.135 c1.787,0.716,3.812,1.526,7.661,1.526c3.852,0,5.879-0.81,7.667-1.526c1.522-0.608,2.837-1.135,5.635-1.135 c2.798,0,4.113,0.526,5.634,1.135c1.788,0.716,3.814,1.526,7.665,1.526c1.511,0,2.735-1.224,2.735-2.734 C145.758,85.926,144.534,84.702,143.023,84.702z"/>
        <path d="M76.542,128.055c2.795,0,4.046,0.5,5.628,1.134c1.788,0.715,3.813,1.526,7.664,1.526 c3.85,0,5.877-0.811,7.663-1.526c1.521-0.609,2.835-1.134,5.631-1.134s4.111,0.525,5.631,1.134 c1.787,0.715,3.812,1.526,7.661,1.526c3.852,0,5.878-0.811,7.667-1.526l0.202-0.081c1.403-0.561,2.087-2.15,1.528-3.553 c-0.56-1.402-2.148-2.087-3.554-1.528l-0.209,0.083c-1.522,0.608-2.836,1.134-5.635,1.134c-2.796,0-4.046-0.499-5.629-1.134 c-1.787-0.715-3.812-1.526-7.664-1.526c-3.851,0-5.877,0.811-7.664,1.526c-1.521,0.608-2.835,1.134-5.631,1.134 c-2.797,0-4.11-0.526-5.631-1.134c-1.787-0.715-3.812-1.526-7.661-1.526c-1.511,0-2.735,1.224-2.735,2.734 C73.807,126.831,75.031,128.055,76.542,128.055z"/>
        <path d="M143.023,125.246c-2.498,0-3.777-0.413-4.973-0.873c-1.409-0.545-2.993,0.159-3.535,1.569 c-0.542,1.41,0.16,2.992,1.57,3.535c1.67,0.643,3.667,1.238,6.938,1.238c1.511,0,2.735-1.225,2.735-2.735 C145.758,126.47,144.534,125.246,143.023,125.246z"/>
        <path d="M76.542,168.486c2.795,0,4.046,0.499,5.628,1.135c1.788,0.715,3.813,1.525,7.664,1.525 c3.85,0,5.877-0.811,7.663-1.525c1.521-0.609,2.835-1.135,5.631-1.135s4.111,0.525,5.631,1.135 c1.787,0.715,3.812,1.525,7.661,1.525c3.852,0,5.879-0.811,7.667-1.525c1.522-0.609,2.837-1.135,5.635-1.135 c2.798,0,4.113,0.525,5.634,1.135c1.788,0.715,3.814,1.525,7.665,1.525c1.511,0,2.735-1.225,2.735-2.734 c0-1.511-1.224-2.735-2.735-2.735c-2.798,0-4.112-0.526-5.633-1.135c-1.788-0.714-3.814-1.525-7.666-1.525 c-3.852,0-5.879,0.811-7.666,1.525c-1.523,0.608-2.837,1.135-5.636,1.135c-2.796,0-4.046-0.5-5.629-1.135 c-1.787-0.714-3.812-1.525-7.664-1.525c-3.851,0-5.877,0.811-7.664,1.525c-1.521,0.608-2.835,1.135-5.631,1.135 c-2.797,0-4.11-0.526-5.631-1.135c-1.787-0.714-3.812-1.525-7.661-1.525c-1.511,0-2.735,1.224-2.735,2.735 C73.807,167.263,75.031,168.486,76.542,168.486z"/>
        <path d="M196.758,202.274v-76.368c0-1.511-1.225-2.735-2.735-2.735c-1.511,0-2.735,1.224-2.735,2.735v76.909 c0,2.284-1.858,4.142-4.141,4.142H107.15c-1.511,0-2.735,1.225-2.735,2.735c0,1.51,1.224,2.734,2.735,2.734h79.997 c1.484,0,2.886-0.349,4.143-0.952v1.625c0,2.284-1.858,4.144-4.143,4.144H68.854c-2.284,0-4.143-1.859-4.143-4.144v-1.624 c1.257,0.604,2.658,0.951,4.143,0.951h17.645c1.511,0,2.735-1.225,2.735-2.734c0-1.511-1.225-2.735-2.735-2.735H68.854 c-2.284,0-4.143-1.857-4.143-4.142v-0.522V44.175c0-2.285,1.859-4.144,4.143-4.144h12.07v4.001c0,1.51,1.224,2.735,2.735,2.735 c1.511,0,2.735-1.225,2.735-2.735v-4.001h23.974v4.001c0,1.51,1.225,2.735,2.735,2.735c1.51,0,2.735-1.225,2.735-2.735v-4.001 h23.974v4.001c0,1.51,1.224,2.735,2.735,2.735c1.511,0,2.735-1.225,2.735-2.735v-4.001h23.972v4.001 c0,1.51,1.225,2.735,2.735,2.735c1.511,0,2.735-1.225,2.735-2.735v-4.001h12.424c2.283,0,4.141,1.859,4.141,4.144v63.115 c0,1.51,1.224,2.734,2.735,2.734c1.511,0,2.735-1.224,2.735-2.734V44.175c0-5.301-4.312-9.613-9.611-9.613h-12.424v-5.665 c0-1.511-1.224-2.735-2.735-2.735c-1.511,0-2.735,1.224-2.735,2.735v5.665h-23.972v-5.665c0-1.511-1.224-2.735-2.735-2.735 c-1.511,0-2.735,1.224-2.735,2.735v5.665h-23.974v-5.665c0-1.511-1.225-2.735-2.735-2.735c-1.51,0-2.735,1.224-2.735,2.735 v5.665H86.393v-5.665c0-1.511-1.224-2.735-2.735-2.735c-1.511,0-2.735,1.224-2.735,2.735v5.665h-12.07 c-5.301,0-9.613,4.312-9.613,9.613v158.118v0.522v6.603v3.682v7.126c0,5.3,4.312,9.612,9.613,9.612h118.293 c5.3,0,9.612-4.312,9.612-9.612V213.1v-3.682v-7.125C196.759,202.286,196.758,202.281,196.758,202.274z M187.147,224.368 H68.854c-1.668,0-3.1-0.997-3.756-2.42c1.155,0.492,2.424,0.765,3.756,0.765h118.293c1.332,0,2.601-0.273,3.755-0.765 C190.246,223.371,188.814,224.368,187.147,224.368z"/>
        <path d="M181.019,58.857c-1.491-0.554-3.148,0.207-3.703,1.697l-8.006,21.557l-3.407-6.919 c-0.703-1.427-2.427-2.015-3.856-1.312c-1.427,0.703-2.014,2.429-1.312,3.856l6.362,12.919c0.486,0.987,1.49,1.607,2.583,1.607 c0.049,0,0.098-0.001,0.147-0.004c1.149-0.058,2.152-0.795,2.553-1.873l10.335-27.826 C183.27,61.069,182.51,59.412,181.019,58.857z"/>
    </g>
</svg>
