<?xml version="1.0" encoding="UTF-8"?>
<svg xmlns="http://www.w3.org/2000/svg" version="1.1" viewBox="0 0 256 256">
    <g fill="#ffd561">
        <path d="M 223.2 168.5 c -8.5 8.2 -27.8 14.7 -52.8 18.1 v 19.9 c 32.9 -4.6 57.7 -15.2 57.7 -27.4 v -20.6 C 228.1 158.4 223.3 168.6 223.2 168.5 z"/>
        <path d="M 224.1 167.5 l 3.8 -8.5 c -0.1 -8.4 -10.7 -16.1 -28.1 -21.5 l -0.3 18.8 c 10.3 3.2 19.2 7.3 23.7 12.2 C 223.5 168.1 223.8 167.8 224.1 167.5 z"/>
        <path d="M 24.9 97.6 v 20.6 c 0 16.5 42 29.9 93.8 29.9 c 11.8 0 23.1 -0.6 33.5 -1.7 c 25.9 -2.7 46.4 -8.7 55.6 -16.9 v -22.1 c -8.9 8.5 -29.4 15.4 -55.6 18.6 c -10.4 1.3 -21.7 2 -33.5 2 c -51.8 0 -93.8 -13.4 -93.8 -29.9 c 0 -8.4 3.8 -13.9 19.2 -18.8 l 0.1 18.4 c -7.7 1.4 -12 4.1 -14.1 9.6 L 24.9 97.6 z"/>
        <path d="M 159.9 88.9 c -7.9 -10.9 -20.7 -18 -35.2 -18 c -14.5 0 -27.3 7.1 -35.2 18 l 23.1 19.9 h 24.2 L 159.9 88.9 z"/>
    </g>
    <g fill="#283182">
        <path d="M 118.8 108.3 c -0.2 0 -0.5 0 -0.7 -0.1 c -1.6 -0.4 -2.5 -2 -2.1 -3.5 l 7.3 -28.5 c 0.4 -1.6 2 -2.5 3.5 -2.1 c 1.6 0.4 2.5 2 2.1 3.5 l -7.3 28.5 C 121.3 107.4 120.1 108.3 118.8 108.3 z"/>
        <path d="M 130.7 108.3 h -24.2 c -0.7 0 -1.4 -0.2 -1.9 -0.7 L 81.5 87.6 c -1.1 -1 -1.3 -2.7 -0.5 -3.9 c 8.7 -12 22.8 -19.2 37.6 -19.2 c 14.8 0 28.8 7.2 37.6 19.2 c 0.9 1.2 0.7 2.9 -0.5 3.9 l -23.1 19.9 C 132.1 108 131.4 108.3 130.7 108.3 z M 107.6 102.4 h 22 l 20.2 -17.4 c -7.7 -9.2 -19.2 -14.7 -31.2 -14.7 c -12.1 0 -23.5 5.4 -31.2 14.7 L 107.6 102.4 z"/>
        <path d="M 232 165.2 v -0.2 c 0 -0.1 0 -0.3 0 -0.4 c -0.6 -9 -11 -17.2 -29.4 -23.1 v -11.3 c 3.7 -1.9 6.8 -3.9 9.2 -6 c 1.2 -1.1 1.3 -2.9 0.2 -4.1 c -1.1 -1.2 -2.9 -1.3 -4.1 -0.2 c -1.4 1.3 -3.2 2.6 -5.3 3.7 c -1.7 1 -3.7 1.9 -5.8 2.9 c -10.3 4.4 -25.1 7.7 -42.9 9.6 c -10.5 1.1 -21.6 1.7 -33.2 1.7 c -24.8 0 -48 -3.1 -65.5 -8.6 c -15.9 -5.1 -25.5 -12 -25.5 -18.4 v -8.5 c 4.9 4.6 12.9 8.8 23.7 12.2 c 2.6 0.8 5.4 1.6 8.2 2.3 c 0 0.1 0 0.2 0 0.3 v 5.5 c 0 1.6 1.3 2.9 2.9 2.9 c 1.6 0 2.9 -1.3 2.9 -2.9 v -4.5 c 13 2.8 27.9 4.6 43.6 5.1 v 4.4 c 0 1.6 1.3 2.9 2.9 2.9 c 1.6 0 2.9 -1.3 2.9 -2.9 v -4.2 c 1.3 0 2.6 0 3.8 0 c 11.7 0 23 -0.7 33.8 -2 c 4.1 -0.5 8.1 -1.1 11.9 -1.8 v 4.2 c 0 1.6 1.3 2.9 2.9 2.9 c 1.6 0 2.9 -1.3 2.9 -2.9 v -5.3 c 9.5 -1.9 17.8 -4.4 24.6 -7.3 c 2.1 -0.9 4 -1.8 5.8 -2.8 c 3.8 -2 6.9 -4.2 9.3 -6.5 c 1.2 -1.1 1.2 -3 0.1 -4.1 c -1.1 -1.2 -3 -1.2 -4.1 -0.1 c -1.4 1.4 -3.2 2.7 -5.2 4 V 52.9 c 0 -7 -5.7 -12.8 -12.8 -12.8 H 53.5 c -7 0 -12.8 5.7 -12.8 12.8 v 18.7 c -13.2 6.5 -16.5 13.4 -16.8 18.3 c 0 0.1 0 0.1 0 0.2 v 20.6 c 0 7.1 5.8 13.6 16.8 18.9 v 28.8 c 0 1.6 1.3 2.9 2.9 2.9 c 1.6 0 2.9 -1.3 2.9 -2.9 V 132.2 c 2.2 0.8 4.5 1.7 6.9 2.5 c 18 5.7 41.9 8.9 67.2 8.9 c 11.8 0 23.1 -0.6 33.8 -1.7 c 17.2 -1.8 31.6 -4.9 42.2 -9.1 v 51.9 c 0 0.1 0 0.2 0 0.3 c -7.5 2.1 -16.2 3.9 -25.8 5.2 c -1.4 0.2 -2.5 1.4 -2.5 2.9 v 3 H 53.5 c -3.8 0 -7 -3.1 -7 -7 v -13.3 c 0 -1.6 -1.3 -2.9 -2.9 -2.9 c -1.6 0 -2.9 1.3 -2.9 2.9 v 13.3 c 0 7 5.7 12.8 12.8 12.8 h 115 v 11.1 c 0 0.8 0.4 1.6 1 2.2 c 0.5 0.5 1.2 0.7 1.9 0.7 c 0.1 0 0.3 0 0.4 0 c 29.1 -4.1 60.2 -14.2 60.2 -30.3 v -19.9 c 0 -0.1 0 -0.2 0 -0.2 C 232 165.3 232 165.3 232 165.2 z M 36.3 100 c 1.3 -1 2.8 -2 4.5 -2.9 v 5.8 C 39.1 101.9 37.6 101 36.3 100 z M 46.6 52.9 c 0 -3.8 3.1 -7 7 -7 h 136.3 c 3.8 0 7 3.1 7 7 v 52 c -10.4 4.8 -25.4 8.6 -42.9 10.7 c -10.6 1.3 -21.7 1.9 -33.1 1.9 c -24.8 0 -48 -3.1 -65.5 -8.6 c -3.2 -1 -6.1 -2.1 -8.7 -3.2 V 52.9 z M 40.8 78.1 v 12.4 c -3.5 1.7 -6.4 3.5 -8.8 5.5 c -1.4 -1.8 -2.2 -3.7 -2.2 -5.5 C 29.8 86.4 33.7 82.1 40.8 78.1 z M 226.2 165.3 v 0.3 c 0 1.8 -0.8 3.6 -2.1 5.3 c -4.9 -4 -12.1 -7.5 -21.5 -10.5 v -12.8 C 217.3 152.6 226.1 159.1 226.2 165.3 z M 202.6 166.5 c 7.3 2.5 13.2 5.4 17.2 8.4 c -4.1 3 -9.9 5.8 -17.2 8.3 V 166.5 z M 174.3 195.6 c 3.2 -0.5 6.4 -1 9.5 -1.6 v 13.9 c -3.1 0.6 -6.2 1.2 -9.5 1.7 V 195.6 z M 226.2 185.6 c 0 7.8 -14.3 15.8 -36.5 21 v -13.6 c 0 -0.1 0 -0.2 0 -0.3 c 15.2 -3.4 29.1 -8.6 36.6 -15.7 V 185.6 z"/>
    </g>
</svg>
