<?xml version="1.0" encoding="UTF-8"?>
<svg xmlns="http://www.w3.org/2000/svg" version="1.1" viewBox="0 0 256 256">
    <g fill="#ffd561">
        <path d="M 86.5 97.7 v 86.8 h 102.4 V 97.7 H 86.5 z M 151.2 164.6 c 0 0 -24.8 -3.2 -31.8 -15.3 c -7 -12.1 3.3 -34.1 3.3 -34.1 s 24.2 2.1 31.1 14.2 C 160.8 141.5 151.2 164.6 151.2 164.6 z"/>
    </g>
    <g fill="#283182">
        <path d="M 160.1 56.8 v -2.7 h 1 c 1.6 0 2.9 -1.3 3 -2.9 c 0 -0.1 0 -0.2 0 -0.4 V 38 c 0 -5.6 -4.1 -10.2 -9 -10.2 H 100.9 c -5 0 -9 4.6 -9 10.2 v 12.8 c 0 0.1 0 0.2 0 0.4 c 0.1 1.6 1.4 2.9 3 2.9 h 1 v 2.9 c -6.9 0.6 -12.4 3 -16.5 7.1 c -8 8.1 -8 20.3 -7.9 25 l 0 118.9 c 0 7.6 5.4 13.7 12.1 13.7 h 89 c 6.7 0 12.1 -6.2 12.1 -13.7 V 89.3 c 0 -4.9 0 -18 -8.1 -26.1 C 172.4 59.1 166.9 57 160.1 56.8 z M 116.9 54.1 c 1.7 0 3 -1.3 3 -3 c 0 -1.6 -1.3 -3 -3 -3 H 97.8 V 38 c 0 -2.3 1.4 -4.2 3.1 -4.2 h 54.2 c 1.7 0 3.1 1.9 3.1 4.2 l 0 10.2 H 131.3 c -1.7 0 -3 1.3 -3 3 c 0 1.6 1.3 3 3 3 h 22.9 v 2.7 h -52.3 v -2.7 H 116.9 z M 83.6 68.3 c 3.6 -3.7 9 -5.5 16.1 -5.5 h 59.7 c 5.5 0 9.8 1.6 12.9 4.7 c 5.1 5.1 6.1 13.3 6.3 18.5 H 77.4 C 77.6 81 78.5 73.4 83.6 68.3 z M 77.4 188.4 h 11.9 c 1.6 0 3 -1.3 3 -3 c 0 -1.7 -1.3 -3 -3 -3 H 77.4 V 100.7 h 74.7 c 1.7 0 3 -1.3 3 -3 c 0 -1.7 -1.3 -3 -3 -3 H 77.4 v -2.8 h 101.2 v 2.8 h -12.1 c -1.7 0 -3 1.3 -3 3 c 0 1.7 1.3 3 3 3 h 12.1 v 81.7 H 103.6 c -1.6 0 -3 1.3 -3 3 c 0 1.7 1.3 3 3 3 h 75 v 3.4 H 77.4 V 188.4 z M 172.5 215.7 H 83.5 c -3.3 0 -6.1 -3.6 -6.1 -7.8 V 197.7 h 101.2 v 10.3 C 178.6 212.2 175.8 215.7 172.5 215.7 z"/>
        <path d="M 141.4 168.2 c 0.1 0 0.3 0 0.4 0 c 0 0 0 0 0 0 c 0 0 0 0 0 0 c 0.2 0 0.5 0 0.7 -0.1 c 0 0 0.1 0 0.1 0 c 0.2 -0.1 0.4 -0.2 0.6 -0.3 c 0 0 0 0 0.1 0 c 0 0 0 0 0 0 c 0.2 -0.1 0.3 -0.2 0.4 -0.3 l 0 0 c 0.1 -0.1 0.3 -0.3 0.4 -0.4 c 0 0 0 -0.1 0.1 -0.1 c 0.1 -0.1 0.2 -0.2 0.2 -0.4 c 0 0 0 -0.1 0.1 -0.1 c 0 0 0 -0.1 0.1 -0.1 c 0.4 -1 10.1 -24.6 2.5 -37.8 c -7.7 -13.3 -32.4 -15.6 -33.5 -15.7 c -1.3 -0.1 -2.4 0.6 -3 1.7 c -0.4 1 -10.8 23.5 -3.2 36.8 C 115 164.6 140.3 168.1 141.4 168.2 z M 115.1 119.1 c 7.4 1 22.1 4.5 26.7 12.5 c 3.9 6.8 1.7 18.6 -0.7 26.6 l -14.9 -25.8 c -0.8 -1.4 -2.7 -1.9 -4.1 -1.1 c -1.4 0.8 -1.9 2.7 -1.1 4.1 l 14.9 25.8 c -8.1 -1.9 -19.5 -5.9 -23.4 -12.7 C 108 140.5 112.3 126 115.1 119.1 z"/>
    </g>
</svg>
