<?xml version="1.0" encoding="UTF-8"?>
<svg xmlns="http://www.w3.org/2000/svg" version="1.1" viewBox="0 0 256 256" width="256px">
	<g fill="#283182">
		<path d="M141.097,106.935c-1.311-1.013-3.193-0.772-4.209,0.537c-1.014,1.311-0.773,3.194,0.537,4.209      l6.426,4.972c0.547,0.423,1.192,0.627,1.834,0.627c0.896,0,1.783-0.4,2.375-1.164c1.014-1.311,0.773-3.194-0.537-4.209      L141.097,106.935z" />
		<path d="M82.611,200.632H60.045c-1.657,0-3,1.343-3,3c0,1.657,1.343,3,3,3h22.566c1.657,0,3-1.343,3-3      C85.611,201.975,84.269,200.632,82.611,200.632z" />
		<path d="M26.025,151.595c0.56,0,1.127-0.156,1.631-0.484c18.832-12.23,23.605-15.914,28.388-20.772      c2.479-2.517,2.725-7.481,2.947-16.041c0.242-9.289,0.572-22.011,6.349-23.938c2.09-0.697,8.533-1.868,15.355-3.108      c3.717-0.676,7.929-1.441,12.04-2.236c3.771-0.73,4.729-4.521,5.362-7.031c0.194-0.767,0.502-1.988,0.788-2.507      c1.156,0.151,3.694,1.451,5.759,2.508c4.8,2.456,10.778,5.45,16.85,5.08c1.77-0.108,5.692-1.189,6.916-1.367      c1.332,0.711,2.876,1.182,4.397,1.641c5.282,1.595,7.211,2.599,6.495,6.852c-1.045,6.196-15.603,11.317-25.235,14.707      c-1.579,0.556-3.086,1.086-4.474,1.595c-1.556,0.57-2.354,2.294-1.783,3.85c0.445,1.215,1.594,1.968,2.816,1.968      c0.344,0,0.692-0.06,1.033-0.185c1.364-0.501,2.846-1.021,4.398-1.567c12.265-4.315,27.528-9.685,29.16-19.371      c1.662-9.867-6.365-12.29-10.678-13.592c-1.281-0.387-3.426-1.033-3.791-1.497c-0.378-0.738-0.609-2.011-0.727-3.281      c4.379-0.278,12.983-0.73,19.917-0.522c0.515,0.074,1.971,0.975,3.034,1.631c4.143,2.56,11.076,6.845,19.589,2.528      c10.925-5.54,24.855-16.751,37.146-26.642c3.473-2.795,6.752-5.435,9.809-7.822c1.306-1.021,1.537-2.905,0.518-4.211      c-1.021-1.307-2.906-1.538-4.211-0.518c-3.091,2.415-6.388,5.067-9.877,7.876c-12.061,9.707-25.731,20.71-36.098,25.966      c-5.506,2.793-9.87,0.099-13.722-2.281c-2.138-1.32-3.983-2.461-5.968-2.521c-10.051-0.299-22.911,0.689-23.453,0.731      c-1.515,0.119-2.701,1.351-2.763,2.869c-0.018,0.44-0.112,3.553,0.581,6.432c-0.498,0.109-3.215,0.723-3.457,0.75      c-4.392,0.309-9.552-2.32-13.689-4.438c-3.473-1.777-6.216-3.181-8.695-3.181c-4.621,0-5.736,4.415-6.402,7.053      c-0.209,0.83-0.55,2.179-0.861,2.644c-4.022,0.776-8.149,1.526-11.797,2.189c-7.647,1.39-13.687,2.487-16.181,3.32      c-9.767,3.258-10.145,17.794-10.448,29.473c-0.111,4.295-0.28,10.784-1.225,11.988c-4.438,4.508-9.018,8.023-27.38,19.95      c-1.39,0.902-1.784,2.76-0.882,4.149C24.08,151.114,25.042,151.595,26.025,151.595z" />
		<path d="M198.973,189.36c-1.657,0-3,1.343-3,3v3.543c0,0.533-0.09,1.058-0.266,1.557      c-0.67,1.897-2.464,3.173-4.464,3.173H98.342c-1.657,0-3,1.343-3,3c0,1.657,1.343,3,3,3h92.901      c4.539,0,8.606-2.884,10.122-7.177c0.403-1.143,0.607-2.338,0.607-3.553v-3.543C201.973,190.703,200.63,189.36,198.973,189.36z" />
		<path d="M238.482,195.603c-0.022,0-0.046,0-0.069,0.001c-1.656,0.038-2.969,1.411-2.931,3.067      c0.145,6.315-4.949,9.182-9.355,9.718c-5.873,0.722-12.975-2.105-14.868-9.938v-5.847c0-9.156-7.449-16.605-16.605-16.605      c0,0-3.892-0.038-3.986-0.044c-13.758-0.812-15.515-9.779-16.773-24.451c-0.755-8.804-1.604-18.547-8.458-23.52      c5.868-3.707,10.273-10.211,14.142-16.498c33.209,4.945,34.842,31.578,36.265,55.122c0.911,15.064,1.698,28.073,11.957,31.119      c0.284,0.085,0.572,0.125,0.854,0.125c1.294,0,2.488-0.844,2.875-2.147c0.472-1.588-0.434-3.258-2.022-3.73      c-6.23-1.85-6.899-12.916-7.675-25.729c-1.376-22.757-3.249-53.645-38.882-60.292c2.251-3.639,4.376-6.773,6.288-8.068      c10.626-7.195,42.339-26.394,46.647-28.95c1.425-0.846,1.895-2.686,1.049-4.111c-0.846-1.424-2.684-1.895-4.111-1.049      c-4.329,2.568-36.22,21.877-46.948,29.142c-3.483,2.358-6.405,7.182-9.788,12.766c-4.241,7.002-9.049,14.939-15.222,18.016      c-26.443,13.182-28.411,11.148-31.675,7.777c-0.634-0.655-1.531-0.992-2.439-0.9c-0.966,0.092-2.021,0.317-3.139,0.558      c-2.078,0.444-5.219,1.119-6.392,0.263c-0.603-0.438-0.831-1.525-0.917-2.36c-0.168-1.637-1.604-2.825-3.26-2.681      c-1.127,0.099-1.855-0.175-2.167-0.828c-0.329-0.692-0.17-1.629,0.369-2.179c1.16-1.183,1.142-3.082-0.041-4.242      c-1.183-1.161-3.083-1.142-4.242,0.041c-2.285,2.329-2.903,6.012-1.506,8.954c1.049,2.206,2.981,3.645,5.402,4.11      c0.562,1.723,1.51,3.076,2.833,4.038c3.343,2.43,7.871,1.458,11.177,0.75c0.399-0.085,0.789-0.169,1.152-0.241      c2.278,2.062,4.641,3.233,8.029,3.233c5.008,0,12.27-2.572,24.783-8.613c7.112,2.141,8.11,9.308,9.081,20.639      c0.712,8.304,1.543,17.921,7.466,23.982h-23.133c1.528-2.316,2.437-5.135,2.437-8.186v-23.043c0-1.657-1.343-3-3-3      c-1.657,0-3,1.343-3,3v23.043c0,4.514-3.22,8.186-7.178,8.186h-66.04c-3.958,0-7.178-3.672-7.178-8.186v-23.043      c0-4.514,3.22-8.186,7.178-8.186h24.266c1.657,0,3-1.343,3-3c0-1.657-1.343-3-3-3H75.468c-7.267,0-13.178,6.363-13.178,14.186      v23.043c0,3.047,0.897,5.871,2.422,8.186H31.121c-9.156,0-16.605,7.449-16.605,16.605v6.236c0,9.156,7.449,16.605,16.605,16.605      h163.531c6.087,0,11.404-3.302,14.295-8.199c3.833,4.874,9.755,7.246,15.456,7.245c0.822,0,1.642-0.049,2.447-0.148      c8.941-1.088,14.82-7.441,14.629-15.811C241.443,196.901,240.107,195.603,238.482,195.603z M205.258,198.841      c0,5.848-4.758,10.605-10.605,10.605H31.121c-5.848,0-10.605-4.758-10.605-10.605v-6.236c0-5.848,4.758-10.605,10.605-10.605      h163.531c5.848,0,10.605,4.758,10.605,10.605V198.841z" />
	</g>
	<g fill="#ffd561">
		<path d="M199.982,219.377H36.451c-7.483,0-13.606-6.123-13.606-13.606v-6.236      c0-7.483,6.123-13.606,13.606-13.606h163.531c7.483,0,13.606,6.123,13.606,13.606v6.236      C213.588,213.254,207.465,219.377,199.982,219.377z" />
		<path d="M124.155,141.022H84.551c-5.813,0-10.569,4.756-10.569,10.569v21.365c0,5.813,4.756,8.569,10.569,8.569      h63.643c5.813,0,10.569-3.756,10.569-9.569v-33.36C158.762,138.595,133.767,151.593,124.155,141.022z" />
	</g>
</svg>