<?xml version="1.0" encoding="UTF-8"?>
<svg xmlns="http://www.w3.org/2000/svg" version="1.1" viewBox="0 0 512 512">
    <g fill="#283182">
        <path d="M128.8,186.7c-1.9,0-3.7-0.9-4.8-2.6l-33-49.3v46c0,3.2-2.6,5.8-5.8,5.8c-3.2,0-5.8-2.6-5.8-5.8v-65.1 c0-2.5,1.7-4.8,4.1-5.5s5.1,0.2,6.5,2.3l33,49.3v-46c0-3.2,2.6-5.8,5.8-5.8s5.8,2.6,5.8,5.8v65.1c0,2.5-1.7,4.8-4.1,5.5 C129.9,186.6,129.3,186.7,128.8,186.7z"/>
        <path d="M165.3,186.7c-3.2,0-5.8-2.6-5.8-5.8v-65.1c0-3.2,2.6-5.8,5.8-5.8s5.8,2.6,5.8,5.8v65.1 C171.1,184.1,168.5,186.7,165.3,186.7z"/>
        <path d="M195.2,121.6h-29.9c-3.2,0-5.8-2.6-5.8-5.8s2.6-5.8,5.8-5.8h29.9c3.2,0,5.8,2.6,5.8,5.8 S198.4,121.6,195.2,121.6z"/>
        <path d="M195.2,154.1h-29.9c-3.2,0-5.8-2.6-5.8-5.8s2.6-5.8,5.8-5.8h29.9c3.2,0,5.8,2.6,5.8,5.8 S198.4,154.1,195.2,154.1z"/>
        <path d="M195.2,186.7h-29.9c-3.2,0-5.8-2.6-5.8-5.8s2.6-5.8,5.8-5.8h29.9c3.2,0,5.8,2.6,5.8,5.8 S198.4,186.7,195.2,186.7z"/>
        <path d="M242.3,186.7c-2.6,0-4.9-1.7-5.6-4.3l-17.1-65.1c-0.8-3.1,1-6.3,4.1-7.1c3.1-0.8,6.3,1,7.1,4.1l17.1,65.1 c0.8,3.1-1,6.3-4.1,7.1C243.3,186.6,242.8,186.7,242.3,186.7z"/>
        <path d="M281,186.7c-0.5,0-1-0.1-1.5-0.2c-3.1-0.8-4.9-4-4.1-7.1l17.1-65.1c0.8-3.1,4-4.9,7.1-4.1s4.9,4,4.1,7.1 l-17.1,65.1C286,184.9,283.6,186.7,281,186.7z"/>
        <path d="M242.3,186.7c-0.5,0-1.1-0.1-1.7-0.2c-3.1-0.9-4.8-4.1-3.9-7.2l19.4-65.1c0.9-3.1,4.1-4.8,7.2-3.9 s4.8,4.1,3.9,7.2l-19.4,65.1C247.1,185,244.8,186.7,242.3,186.7z"/>
        <path d="M281,186.7c-2.5,0-4.8-1.6-5.5-4.1l-19.4-65.1c-0.9-3.1,0.8-6.3,3.9-7.2c3.1-0.9,6.3,0.8,7.2,3.9l19.4,65.1 c0.9,3.1-0.8,6.3-3.9,7.2C282.1,186.6,281.6,186.7,281,186.7z"/>
        <path d="M337.9,186.8c-6,0-12.9-1.6-20.7-4.9c-2.9-1.2-4.3-4.6-3.1-7.6c1.2-2.9,4.6-4.3,7.6-3.1 c10.5,4.4,18.5,5.2,23.3,2.3c4.3-2.6,4.9-8,4.9-8c0.6-8.5-4.1-10.6-11.5-12.8l-0.3-0.1c-8.6-2.6-14.5-7-17.5-13.1 c-3.9-7.9-1.3-15.4-1-16.2c2.1-5.7,6.1-9.9,11.4-12.1c11.8-4.8,26.5,1.8,28.1,2.6c2.9,1.4,4.1,4.8,2.7,7.7 c-1.4,2.9-4.8,4.1-7.7,2.8c-3.2-1.5-12.7-4.8-18.8-2.3c-2.3,0.9-3.9,2.7-4.9,5.4l0,0c0,0-1.2,3.6,0.6,7.1 c1.6,3.1,5.1,5.5,10.4,7.1l0.3,0.1c6.3,1.9,21,6.4,19.7,24.8c-0.3,4.2-2.9,12.4-10.4,17C347.2,185.6,342.9,186.8,337.9,186.8z"/>
        <path d="M307.3,463.8H134.5c-4.9,0-9-3-10-7.3c-1-4,1-8,4.9-10c11.5-5.9,19.3-15.2,21.4-25.5 c2.9-14.7,1.6-29.9,1.6-30.1c-0.1-1.6,0.4-3.2,1.5-4.4s2.6-1.9,4.3-1.9h125.5c1.6,0,3.2,0.7,4.3,1.9c1.1,1.2,1.6,2.8,1.5,4.4 c0,0.1-1.4,15.4,1.6,30.1c2.1,10.3,9.9,19.6,21.4,25.5c3.9,2,5.9,6,4.9,10C316.2,460.8,312.1,463.8,307.3,463.8z M142.3,452.2 h157.1c-10.5-7.5-17.6-17.7-19.8-28.9c-2.1-10.4-2.3-20.7-2.1-27.1H164.2c0.2,6.4,0,16.7-2.1,27.1 C159.9,434.6,152.8,444.8,142.3,452.2z"/>
        <path d="M365.7,396.2H27c-14.9,0-27-12.1-27-27v-30.4c0-3.2,2.6-5.8,5.8-5.8H89c3.2,0,5.8,2.6,5.8,5.8 s-2.6,5.8-5.8,5.8H11.6v24.6c0,8.5,6.9,15.4,15.4,15.4h338.7c3.2,0,5.8,2.6,5.8,5.8S368.9,396.2,365.7,396.2z"/>
        <path d="M365.4,344.6H5.8c-3.2,0-5.8-2.6-5.8-5.8V77c0-15.9,12.9-28.8,28.8-28.8H413c15.9,0,28.8,12.9,28.8,28.8 v149.7c0,3.2-2.6,5.8-5.8,5.8c-3.2,0-5.8-2.6-5.8-5.8V77c0-9.5-7.7-17.2-17.2-17.2H28.8c-9.5,0-17.2,7.7-17.2,17.2v256h353.8 c3.2,0,5.8,2.6,5.8,5.8S368.6,344.6,365.4,344.6z"/>
        <path d="M506.2,411.8H365.7c-3.2,0-5.8-2.6-5.8-5.8s2.6-5.8,5.8-5.8h140.5c3.2,0,5.8,2.6,5.8,5.8 S509.4,411.8,506.2,411.8z"/>
        <path d="M495.4,463.8h-119c-9.1,0-16.6-7.4-16.6-16.6V237.4c0-9.1,7.4-16.6,16.6-16.6h119c9.1,0,16.6,7.4,16.6,16.6 v209.8C512,456.4,504.6,463.8,495.4,463.8z M376.5,232.4c-2.8,0-5,2.2-5,5v209.8c0,2.8,2.2,5,5,5h119c2.8,0,5-2.2,5-5V237.4 c0-2.8-2.2-5-5-5H376.5z"/>
        <path d="M220.9,354.6c-5.5,0-10,4.5-10,10s4.5,10,10,10s10-4.5,10-10S226.4,354.6,220.9,354.6z"/>
        <path d="M436,421.7c-5.2,0-9.5,4.2-9.5,9.5c0,5.2,4.2,9.5,9.5,9.5c5.2,0,9.5-4.3,9.5-9.5 C445.5,426,441.3,421.7,436,421.7z"/>
        <path d="M449.9,255.8H422c-3.2,0-5.8-2.6-5.8-5.8s2.6-5.8,5.8-5.8h27.8c3.2,0,5.8,2.6,5.8,5.8 C455.7,253.3,453.1,255.8,449.9,255.8z"/>
    </g>
    <g fill="#ffd561">
        <rect width="312.4" height="65" x="29.5" y="250.1"/>
        <rect width="64.8" height="29.9" x="403.5" y="349.7"/>
    </g>
</svg>
