<?xml version="1.0" encoding="UTF-8"?>
<svg xmlns="http://www.w3.org/2000/svg" version="1.1" viewBox="0 0 256 256">
    <g fill="#ffd561">
        <path d="M 174.2 194.4 c 0 20.9 -16.9 37.8 -37.8 37.8 c -20.9 0 -37.8 -16.9 -37.8 -37.8 c 0 -20.9 16.9 -37.8 37.8 -37.8 C 157.3 156.7 174.2 173.6 174.2 194.4 z"/>
    </g>
    <g fill="#283182">
        <path d="M 126.8 161.3 c -5.6 0 -11.1 1.6 -15.9 4.6 c -4.4 2.7 -8 6.6 -10.4 11.1 c -0.8 1.5 -0.3 3.4 1.3 4.3 c 1.5 0.8 3.4 0.3 4.3 -1.3 c 1.9 -3.6 4.8 -6.6 8.2 -8.8 c 3.8 -2.4 8.1 -3.6 12.5 -3.6 c 8.2 0 15.7 4.1 20 11.1 c 2.4 3.8 3.6 8.1 3.6 12.5 c 0 8.2 -4.1 15.7 -11.1 20 c -3.8 2.4 -8.1 3.6 -12.5 3.6 c -8.2 0 -15.7 -4.1 -20 -11.1 c -1.7 -2.7 -2.8 -5.6 -3.3 -8.7 c -0.3 -1.7 -1.9 -2.9 -3.6 -2.6 c -1.7 0.3 -2.9 1.9 -2.6 3.6 c 0.6 3.9 2.1 7.6 4.2 11 c 5.5 8.8 15 14 25.4 14 c 5.6 0 11.1 -1.6 15.9 -4.6 c 8.8 -5.5 14 -15 14 -25.4 c 0 -5.6 -1.6 -11.1 -4.6 -15.9 C 146.7 166.5 137.2 161.3 126.8 161.3 z"/>
        <path d="M 191.2 58.1 l -15.9 -33.9 c 0 0 0 -0.1 0 -0.1 c -0.5 -1.1 -1.6 -2 -2.9 -2 H 83.7 c -1.1 0 -2.1 0.6 -2.7 1.5 c -0.1 0.2 -0.2 0.3 -0.3 0.5 l -15.9 33.9 c -0.4 0.9 -0.4 1.9 0.1 2.8 l 39.1 75.3 c -2.3 3.1 -3.6 6.9 -3.6 10.9 v 10.7 c -9.8 7.8 -16.1 19.8 -16.1 33.3 c 0 23.5 19.1 42.6 42.6 42.6 c 23.5 0 42.6 -19.1 42.6 -42.6 c 0 -12.3 -5.2 -23.4 -13.6 -31.2 v -12.9 c 0 -4.1 -1.3 -8 -3.7 -11.1 l 39.1 -75.2 C 191.6 60.1 191.7 59 191.2 58.1 z M 154.5 52.4 c -0.1 0 -0.2 0 -0.3 0 h -42.2 c -1.7 0 -3.2 1.4 -3.2 3.2 c 0 1.7 1.4 3.2 3.2 3.2 h 39.2 l -23.4 43.5 L 88.7 28.5 h 78.7 L 154.5 52.4 z M 83.7 32.6 l 56.4 106.2 h -27.6 L 71.1 59.4 L 83.7 32.6 z M 163.1 191.2 c 0 20 -16.3 36.3 -36.3 36.3 c -20 0 -36.3 -16.3 -36.3 -36.3 c 0 -20 16.3 -36.3 36.3 -36.3 C 146.8 155 163.1 171.2 163.1 191.2 z M 149.5 147.2 v 8 c -6.6 -4.1 -14.3 -6.6 -22.7 -6.6 c -7.3 0 -14.2 1.8 -20.2 5.1 v -6.6 c 0 -1.5 0.3 -2.9 0.8 -4.3 l 0.3 0.5 c 0.5 1 1.6 1.7 2.8 1.7 h 34.8 c 0 0 0.1 0 0.1 0 c 0 0 0.1 0 0.1 0 c 1.1 0 2.2 -0.6 2.8 -1.7 l 0.4 -0.7 C 149.2 144.1 149.5 145.6 149.5 147.2 z M 145.4 135.4 l -14.1 -26.6 L 172.3 32.6 l 12.6 26.8 L 145.4 135.4 z"/>
    </g>
</svg>
