<?xml version="1.0" encoding="UTF-8" standalone="no"?>
<!DOCTYPE svg PUBLIC "-//W3C//DTD SVG 1.1//EN" "http://www.w3.org/Graphics/SVG/1.1/DTD/svg11.dtd">
<svg version="1.1" xmlns="http://www.w3.org/2000/svg" xmlns:xlink="http://www.w3.org/1999/xlink" preserveAspectRatio="xMidYMid meet" viewBox="0 0 640 640" width="640" height="640"><defs><path d="M210 250C210 164.19 210 110.55 210 89.1C210 83.9 213.87 79.52 219.03 78.87C228.49 77.69 252.15 74.73 290 70C290 48.06 290 34.35 290 28.86C290 23.97 293.97 20 298.86 20C309.09 20 331.6 20 342 20C346.42 20 350 23.58 350 28C350 33.6 350 47.6 350 70C388.28 74.78 412.2 77.77 421.77 78.97C426.47 79.56 430 83.56 430 88.3C430 194.64 430 504.83 430 611.04C430 615.99 425.99 620 421.04 620C378.83 620 261.19 620 218.99 620C214.03 620 210 615.97 210 611.01C210 589.25 210 534.87 210 447.85" id="bD7MiMCkA"></path><clipPath id="clipc6cmamp"><use xlink:href="#bD7MiMCkA" opacity="1"></use></clipPath></defs><g><g><g><g clip-path="url(#clipc6cmamp)"><use xlink:href="#bD7MiMCkA" opacity="1" fill-opacity="0" stroke="#000000" stroke-width="8" stroke-opacity="1"></use></g></g></g></g></svg>