<svg xmlns="http://www.w3.org/2000/svg" role="img" viewBox="0 0 576 512" width="576" height="576">
    <path opacity="0.2" d="M 74.8 424 a 32 32 0 0 0 -1.4 46.6 l 32 32 a 32 32 0 0 0 46.6 -1.4 l 117.5 -132.7 l -56.6 -66.8 Z M 546.5 94.82 L 452.7 176 c -1.5 1.4 -5.9 -3 -4.6 -4.6 l 78.8 -96.9 c 12.4 -15.3 -10.4 -37.8 -25.5 -25.5 l -96.9 78.8 c -1.7 1.4 -6 -3.1 -4.7 -4.6 L 481 29.42 c 12.8 -14.7 -8.7 -38 -24.8 -26.2 c -3.9 2.8 -76.9 54.5 -98.7 76.2 c -33.3 33.3 -37.5 72.1 -16.1 108.4 c -30.4 26.9 -19.6 17.4 -48.4 42.9 l 54 50.1 c 26.5 -30 14.4 -16.2 41 -46.3 c 35 20.7 74.3 18.1 108.5 -16.2 c 21.7 -21.7 73.4 -94.6 76.2 -98.6 c 11.8 -16.2 -11.5 -37.6 -26.2 -24.9 Z" />
    <path opacity="0.2" d="M 501.7 424.42 a 32 32 0 0 1 0.8 46.1 l -32 32 a 32.09 32.09 0 0 1 -46 -0.7 C 405.4 479.22 223.9 265.32 216 256 C 56 256 0 165.92 0 32.12 c 0 -27.9 33.3 -42.5 53.8 -23.5 Z" />
</svg>