<?xml version="1.0" ?><!DOCTYPE svg  PUBLIC '-//W3C//DTD SVG 1.1//EN'  'http://www.w3.org/Graphics/SVG/1.1/DTD/svg11.dtd'>
<svg version="1.1" viewBox="0 0 256 256" 
    xmlns="http://www.w3.org/2000/svg">
    <polygon fill="#FFD561" points="215.432,67.185 183.457,69.105 179.508,54.79 166.249,58.606 171.173,77.165 166.771,78.425       163.862,70.929 157.132,71.418 160.907,123.407 219.206,119.174"/>
    <g fill="#6EAF6C">
        <path d="M223.184,40.449l-21.393-0.044h-0.006c-1.654,0-2.997,1.339-3,2.994       c-0.003,1.656,1.337,3.003,2.994,3.006l21.392,0.044c3.222,0.007,5.842,3.008,5.842,6.689v139.154       c0,3.633-2.586,6.633-5.69,6.688l-86.379-0.645c-1.467,0.056-2.815-0.55-3.9-1.617c-1.299-1.275-2.043-3.124-2.043-5.071       v-7.402c4.094,0.541,5.795,1.972,5.795,1.972c1.182,1.164,3.082,1.152,4.247-0.026c1.165-1.178,1.153-3.077-0.025-4.242       c-0.352-0.349-3.289-3.049-10.017-3.743v-18.599c4.094,0.54,5.795,1.972,5.8,1.971c1.177,1.165,3.077,1.153,4.242-0.025       c1.165-1.178,1.153-3.077-0.025-4.242c-0.352-0.349-3.289-3.049-10.017-3.743v-18.599c4.094,0.54,5.795,1.972,5.8,1.971       c1.177,1.166,3.077,1.153,4.242-0.025c1.165-1.178,1.153-3.077-0.025-4.242c-0.352-0.349-3.289-3.049-10.017-3.743v-18.599       c4.094,0.541,5.795,1.972,5.795,1.972c1.182,1.164,3.082,1.152,4.247-0.026c1.165-1.178,1.153-3.077-0.025-4.242       c-0.352-0.349-3.289-3.049-10.017-3.743V85.69c4.094,0.54,5.796,1.971,5.796,1.971s0.004,0,0.004-0.001       c1.179,1.165,3.077,1.153,4.242-0.025c1.165-1.179,1.153-3.078-0.025-4.242c-0.352-0.349-3.289-3.048-10.017-3.742V61.052       c4.094,0.541,5.795,1.972,5.8,1.971c1.177,1.165,3.077,1.152,4.242-0.025c1.165-1.178,1.153-3.077-0.025-4.242       c-0.352-0.349-3.289-3.049-10.017-3.743v-2.069c0-1.928,0.732-3.764,2.01-5.038c1.067-1.065,2.433-1.651,3.845-1.651       c0,0,0.007,0,0.011,0l51.297,0.116c0.002,0,0.005,0,0.005,0c1.655,0,2.998-1.339,3.002-2.993       c0.004-1.657-1.336-3.003-2.993-3.007l-51.297-0.116c-0.009,0-0.016,0-0.016,0c-3.021,0-5.891,1.208-8.091,3.404       c-0.272,0.271-0.526,0.559-0.772,0.854c-0.245-0.295-0.499-0.583-0.771-0.854c-2.2-2.196-5.069-3.404-8.083-3.404       c-0.008,0-0.017,0-0.025,0l-86.305,0.195c-6.522,0.015-11.829,5.707-11.829,12.689v149.92c0,6.883,5.23,12.575,11.735,12.688       l86.229-0.646c3.056,0.053,5.966-1.131,8.21-3.336c0.295-0.291,0.572-0.599,0.837-0.917c0.265,0.319,0.543,0.627,0.839,0.917       c2.196,2.157,5.034,3.338,7.942,3.338c0.065,0,0.129-0.001,0.192-0.002l86.38,0.646c6.43-0.113,11.66-5.806,11.66-12.688       V53.138C235.013,46.156,229.706,40.463,223.184,40.449z M59.457,204.74c0.007,0,0.014,0,0.021,0l59.476-0.405       c2.146,0.047,4.213-0.542,6.034-1.652c-0.066,1.847-0.793,3.585-2.03,4.801c-1.064,1.045-2.412,1.617-3.879,1.617       c-0.031,0-0.063,0-0.096-0.001l-86.23,0.646c-3.109-0.055-5.645-2.928-5.755-6.453c1.692,1.037,3.642,1.65,5.725,1.686       l14.603-0.108c1.656-0.013,2.99-1.365,2.978-3.022c-0.013-1.649-1.353-2.978-2.999-2.978c-0.008,0-0.016,0-0.023,0       l-14.528,0.108c-3.179-0.055-5.765-3.055-5.765-6.688V53.138c0-3.682,2.621-6.683,5.843-6.689l86.305-0.195       c0,0,0.007,0,0.011,0c1.412,0,2.777,0.586,3.845,1.651c1.277,1.274,2.01,3.11,2.01,5.038v2.027       c-7.084,0.607-10.166,3.429-10.526,3.786c-1.179,1.165-1.219,3.092-0.055,4.271c0.594,0.601,1.371,0.905,2.146,0.905       c0.745,0,1.489-0.282,2.067-0.853c0.021-0.019,1.871-1.593,6.367-2.083v18.612c-7.084,0.607-10.166,3.428-10.526,3.785       c-1.179,1.164-1.22,3.091-0.055,4.27c0.594,0.602,1.371,0.906,2.146,0.906c0.745,0,1.489-0.282,2.067-0.853       c0.021-0.019,1.87-1.592,6.367-2.082v18.611c-7.084,0.607-10.166,3.429-10.526,3.786c-1.179,1.165-1.219,3.092-0.055,4.271       c0.594,0.601,1.371,0.905,2.146,0.905c0.745,0,1.489-0.282,2.067-0.852c0.021-0.019,1.871-1.593,6.367-2.083v18.612       c-7.084,0.607-10.166,3.429-10.526,3.786c-1.179,1.165-1.219,3.092-0.055,4.271c0.594,0.601,1.371,0.905,2.146,0.905       c0.745,0,1.489-0.282,2.067-0.853c0.021-0.019,1.871-1.593,6.367-2.083v18.612c-7.084,0.607-10.166,3.429-10.526,3.786       c-1.179,1.165-1.219,3.092-0.055,4.271c0.594,0.601,1.371,0.905,2.146,0.905c0.745,0,1.489-0.282,2.067-0.853       c0.021-0.019,1.871-1.593,6.367-2.082v18.612c-7.084,0.607-10.166,3.429-10.526,3.786c-1.179,1.165-1.219,3.092-0.055,4.271       c0.594,0.601,1.371,0.905,2.146,0.905c0.745,0,1.489-0.282,2.067-0.853c0.021-0.019,1.871-1.593,6.367-2.082v7.457       c0,1.947-0.744,3.796-2.043,5.071c-1.087,1.068-2.461,1.645-3.973,1.617l-59.548,0.405c-1.656,0.012-2.99,1.363-2.979,3.02       C56.469,203.41,57.81,204.74,59.457,204.74z M223.322,209.747l-86.38-0.646c-1.405,0.032-2.812-0.548-3.899-1.616       c-1.238-1.217-1.965-2.957-2.03-4.805c1.813,1.103,3.861,1.684,5.96,1.656l86.379,0.645c2.05-0.036,3.975-0.643,5.65-1.67       C228.885,206.828,226.353,209.692,223.322,209.747z" />
        <path d="M211.393,63.916c-0.602-0.52-1.386-0.771-2.179-0.723l-30.513,2.215l-2.888-10.458       c-0.214-0.773-0.727-1.429-1.428-1.82c-0.702-0.391-1.531-0.485-2.299-0.263l-11.286,3.271       c-1.565,0.454-2.482,2.074-2.065,3.649l1.836,6.936l-9.655,0.701c-0.794,0.058-1.532,0.428-2.053,1.03       c-0.52,0.602-0.78,1.386-0.722,2.179l3.774,51.989c0.114,1.579,1.431,2.783,2.989,2.783c0.072,0,0.146-0.003,0.22-0.008       l58.299-4.232c0.794-0.058,1.532-0.428,2.053-1.03c0.52-0.602,0.78-1.386,0.723-2.179l-3.774-51.989       C212.366,65.174,211.996,64.436,211.393,63.916z M170.839,59.477l3.754,13.59l-5.704,1.632l-3.602-13.612L170.839,59.477z        M157.682,119.198l-3.34-46.005l7.791-0.566l1.738,6.566c0.206,0.779,0.718,1.442,1.418,1.841       c0.456,0.259,0.968,0.392,1.482,0.392c0.276,0,0.555-0.038,0.825-0.116l11.504-3.292c1.583-0.452,2.505-2.096,2.066-3.683       l-0.836-3.029l26.327-1.912l3.34,46.006L157.682,119.198z" />
        <path d="M42.138,78.348l5.779-0.852c0.896-0.132,1.807-0.31,2.694-0.484c1.201-0.236,2.987-0.579,3.646-0.496       l0.408,0.267c2.383,1.569,4.178,2.474,8.992,1.839c0.967-0.128,1.94-0.273,2.901-0.417c2.76-0.413,7.379-1.101,8.356-0.431       c2.6,2.275,5.112,3.047,7.448,3.047c2.87-0.001,5.472-1.164,7.633-2.131c4.194-1.877,6.752-2.81,10.508-0.125       c1.347,0.966,3.222,0.654,4.185-0.694c0.965-1.347,0.653-3.221-0.694-4.185c-6.734-4.819-12.35-2.309-16.448-0.473       c-4.007,1.792-5.897,2.48-8.678,0.047c-2.889-2.53-7.667-1.815-13.195-0.99c-0.929,0.139-1.869,0.279-2.802,0.402       c-2.944,0.39-3.361,0.116-4.907-0.901l-0.613-0.399c-2.145-1.378-4.939-0.827-7.897-0.246       c-0.794,0.156-1.609,0.317-2.411,0.435l-5.779,0.852c-1.639,0.241-2.772,1.766-2.53,3.405       C38.975,77.457,40.497,78.593,42.138,78.348z" />
        <path d="M83.213,93.808c-3.392,0-7.793,1.633-8.284,1.819c-1.548,0.587-2.326,2.317-1.74,3.866       c0.586,1.55,2.316,2.33,3.867,1.744c1.053-0.397,4.211-1.43,6.157-1.43c1.779,0,3.096,0.967,3.096,0.967       c0.555,0.442,1.216,0.657,1.873,0.657c0.88,0,1.752-0.386,2.345-1.126c1.035-1.294,0.825-3.182-0.469-4.217       C89.766,95.856,87.094,93.808,83.213,93.808z" />
        <path d="M41.154,101.382c0.13,0.023,2.222,0.401,5.187,0.401c1.509,0,3.243-0.098,5.06-0.39       c1.169-0.188,2.358-0.439,3.51-0.683c3.808-0.809,7.404-1.569,9.357,0.038c1.279,1.054,3.171,0.868,4.223-0.41       c1.053-1.279,0.869-3.17-0.41-4.223c-4.186-3.444-9.621-2.293-14.415-1.274c-1.128,0.239-2.193,0.465-3.216,0.629       c-4.291,0.69-8.116,0.027-8.209,0.011c-1.633-0.293-3.19,0.779-3.491,2.405C38.449,99.515,39.525,101.081,41.154,101.382z" />
        <path d="M41.895,139.011c0.081-0.006,8.154-0.532,15.269-1.23c2.287-0.224,4.266-0.652,6.012-1.031       c4.354-0.944,6.34-1.375,9.218,1.419c1.257,1.221,3.257,1.677,6.251,1.677c2.76,0,6.364-0.388,11.007-0.925       c2.246-0.259,4.568-0.527,6.577-0.69c4.095-0.329,6.643,0.583,6.643,0.583c1.543,0.602,3.283-0.166,3.884-1.711       c0.6-1.544-0.166-3.282-1.711-3.883c-0.376-0.146-3.834-1.413-9.302-0.97c-2.109,0.171-4.483,0.445-6.779,0.711       c-4.08,0.471-10.84,1.251-12.596,0.706c-5.107-4.811-9.862-3.777-14.463-2.781c-1.664,0.361-3.385,0.734-5.326,0.925       c-7.014,0.687-14.991,1.207-15.071,1.212c-1.653,0.107-2.906,1.535-2.8,3.188C38.813,137.865,40.227,139.116,41.895,139.011z" />
        <path d="M88.774,153.111c-5.095,1.21-6.142,0.673-7.593-0.069c-1.449-0.744-3.435-1.762-7.498-1.783       c-2.607,0.035-5.473,0.571-8.247,1.136c-3.613,0.737-8.11,1.656-9.537,0.383c-5.391-4.808-14.614,0.056-15.648,0.625       c-1.448,0.8-1.974,2.619-1.178,4.069c0.798,1.451,2.622,1.979,4.071,1.188c2.233-1.221,7.098-2.888,8.763-1.403       c3.671,3.272,9.293,2.125,14.727,1.018c2.476-0.505,4.99-1.035,7.019-1.016c2.632,0.014,3.633,0.527,4.791,1.121       c1.598,0.82,3.105,1.447,5.567,1.447c1.571,0,3.531-0.256,6.152-0.88c1.612-0.383,2.608-2.001,2.224-3.612       C92.005,153.721,90.388,152.732,88.774,153.111z" />
        <path d="M69.565,175.958c2.15-0.518,4.186-1.006,6.332-0.938c5.67,0.182,9.53,1.482,12.349,2.433       c1.514,0.51,3.054,1.028,4.47,1.028c1.238,0,2.381-0.396,3.327-1.543c1.705-2.067,6.287,0.612,6.322,0.634       c1.405,0.878,3.255,0.452,4.135-0.951c0.879-1.405,0.453-3.256-0.951-4.135c-3.154-1.973-9.347-4.062-13.453-0.104       c-0.526-0.142-1.285-0.397-1.934-0.616c-2.993-1.009-7.518-2.532-14.073-2.742c-2.942-0.105-5.485,0.512-7.927,1.1       c-2.834,0.682-5.279,1.271-8.084,0.678c-8.859-1.877-18.86,1.234-19.282,1.367c-1.579,0.499-2.453,2.183-1.955,3.762       c0.498,1.58,2.184,2.457,3.761,1.96c0.088-0.027,8.94-2.762,16.234-1.22C62.972,177.548,66.474,176.702,69.565,175.958z" />
        <path d="M216.807,136.054c-0.277-0.04-6.852-0.976-12.259-0.362c-1.901,0.215-3.112,0.959-3.997,1.503       c-0.881,0.541-1.273,0.787-2.596,0.722c-2.392-0.122-4.697-0.797-7.139-1.511c-5.14-1.503-10.968-3.206-18.968-0.191       c-1.385,0.522-4.034,0-6.598-0.508c-1.172-0.231-2.384-0.472-3.643-0.658c-4.328-0.637-8.274,1.039-8.709,1.233       c-1.514,0.674-2.194,2.448-1.52,3.961c0.674,1.513,2.446,2.194,3.961,1.52c0.027-0.011,2.771-1.169,5.388-0.778       c1.117,0.165,2.257,0.391,3.359,0.608c3.542,0.701,6.891,1.363,9.878,0.236c6.124-2.311,10.312-1.083,15.167,0.335       c2.665,0.78,5.422,1.586,8.516,1.744c0.229,0.012,0.448,0.018,0.66,0.018c2.749,0,4.26-0.929,5.384-1.619       c0.682-0.419,0.979-0.592,1.531-0.654c4.629-0.52,10.665,0.331,10.725,0.34c1.64,0.225,3.161-0.901,3.397-2.541       C219.582,137.812,218.445,136.29,216.807,136.054z" />
        <path d="M199.325,159.327c1.493,0.584,3.179,1.244,5.191,1.244c0.07,0,0.142-0.001,0.213-0.003       c6.525-0.151,11.653-0.525,11.868-0.541c1.652-0.122,2.892-1.561,2.771-3.213c-0.122-1.652-1.562-2.888-3.213-2.771       c-0.051,0.004-5.19,0.379-11.565,0.527c-0.898-0.005-1.909-0.373-3.078-0.831c-2.775-1.086-6.965-2.727-12.178,1.374       c-1.302,1.024-1.526,2.91-0.502,4.213c1.023,1.301,2.91,1.526,4.213,0.502C195.557,157.853,196.816,158.344,199.325,159.327z" />
        <path d="M153.672,160.001c0.19,0.028,3.817,0.567,7.922,0.567c1.029,0,2.091-0.033,3.134-0.118       c1.416-0.115,2.669-0.416,3.775-0.682c2.27-0.543,3.436-0.772,5.087-0.011c1.504,0.696,3.287,0.039,3.98-1.467       c0.694-1.504,0.038-3.287-1.467-3.98c-3.614-1.67-6.602-0.951-9-0.376c-0.981,0.235-1.908,0.457-2.862,0.535       c-4.493,0.363-9.623-0.393-9.674-0.402c-1.645-0.243-3.167,0.883-3.413,2.52C150.907,158.226,152.034,159.753,153.672,160.001z       " />
        <path d="M151.599,177.651c0.891,1.391,2.744,1.796,4.141,0.909c1.643-1.045,4.767-2.237,6.265-1.469       c5.157,2.643,9.007,1.93,12.098,1.359c1.232-0.229,2.279-0.427,3.291-0.38c2.791,0.125,4.025,0.544,5.218,0.95       c1.297,0.441,2.425,0.762,3.98,0.762c1.339,0,2.995-0.238,5.347-0.843c1.604-0.412,2.571-2.048,2.158-3.652       c-0.412-1.604-2.04-2.569-3.652-2.158c-3.715,0.956-4.446,0.707-5.9,0.211c-1.366-0.464-3.236-1.1-6.882-1.264       c-1.684-0.08-3.189,0.204-4.649,0.474c-2.649,0.488-4.932,0.912-8.272-0.799c-5.155-2.643-11.537,1.305-12.248,1.763       C151.104,174.412,150.707,176.259,151.599,177.651z" />
    </g>
</svg>