<?xml version="1.0" ?><svg id="Layer_1" style="enable-background:new 0 0 512 512;" version="1.1" viewBox="0 0 512 512" xml:space="preserve" xmlns="http://www.w3.org/2000/svg" xmlns:xlink="http://www.w3.org/1999/xlink"><style type="text/css">
	.st0{opacity:0.5;fill:#FDCB5B;enable-background:new    ;}
	.st1{fill:#F39208;}
	.st2{fill:#F9B334;}
</style><g><path class="st0" d="M497.8,227.4c-3.3-10-12.1-17.3-22.7-18.9l-119.8-17.1l-53.6-107C297,75,287.2,69,276.5,69s-20.5,6-25.2,15.5   l-53.6,106.9L77.9,208.5c-10.6,1.5-19.4,8.8-22.7,18.9c-3.3,10-0.5,21,7.1,28.4L149,339l-20.5,117.5c-1.8,10.4,2.5,20.9,11.2,27.1   c4.9,3.5,10.7,5.3,16.5,5.3c4.5,0,9-1.1,13.1-3.2l107.2-55.5l107.1,55.5c4.1,2.1,8.6,3.2,13.1,3.2c5.8,0,11.6-1.8,16.5-5.3   c8.7-6.2,13-16.7,11.2-27.1L404,339l86.7-83.2C498.3,248.4,501.1,237.4,497.8,227.4z"/><path class="st1" d="M359,442.3c-33.6-17.4-67.3-34.8-100.9-52.3c-1.2-0.6-2.3-1.3-3.5-1.8c-6.4-3.1-11.8-1.7-17.5,1.2   c-7,3.6-14.1,7.3-21.1,10.9c-21.8,11.3-43.5,22.5-65.3,33.8c-5.9,3-11.7,6.2-17.7,9.1c0,0-0.2,0.1-0.3,0.2c-0.4,0.1-3.6,1.2-3.2,1   c-3.3,0.8-1.7,0.3-1,0.2c0.1,0-3.3-0.1-3.2,0.1c-1.3-0.2-2.6-0.6-3.8-1.1c1.8,0.6-3.2-2.1-3.3-2.1c-0.9-0.8-1.3-1.2-2-2.2   c0.1,0.1-0.8-1.5-1.2-2.2c-0.3-0.8-0.8-2.3-0.8-2.2c-0.1-0.3-0.2-0.5-0.2-0.7c-0.1-0.9-0.1-1.7-0.1-2.5c0-0.6,0.1-1,0.1-1.3   c0,0,0-0.1,0-0.1c0.1-0.9,0.3-1.9,0.5-2.8c0.6-3.5,1.2-7.1,1.8-10.6c1.9-11.1,3.9-22.1,5.8-33.2c3.8-21.7,7.6-43.4,11.3-65.1   c0.3-1.6,0.6-3.2,0.8-4.8c1-6.3-0.7-11.5-5.1-15.9c-5.3-5.2-10.7-10.3-16.1-15.4c-17.7-17-35.4-34-53.1-51   c-5.1-4.9-10.2-9.7-15.3-14.7c-0.3-0.3-0.6-0.6-0.9-0.9c-2.6-2.6-3.1-3.6-4-7.3c0-0.2-0.1-0.3-0.1-0.5c-0.1-1.1-0.1-2.3,0-3.5   c0,0.7,1-2.5,1.2-3.4c0.6-0.7,2.5-3.5,1.6-2.6c0.7-0.7,1.4-1.4,2.1-2c0.7-0.4,1.4-0.9,2.2-1.3c0.2-0.1,0.5-0.3,0.9-0.4   c0.7-0.2,1.4-0.5,2.1-0.6c1.3-0.3,2.6-0.5,3.9-0.7c2.3-0.4,4.7-0.7,7-1c8-1.1,12.4-11.3,10.5-18.5c-2.4-8.4-10.5-11.4-18.5-10.2   c-8.8,1.3-17.2,2.7-24.7,8.1c-12.1,8.6-19.7,23-18.4,38c1,10.7,5.5,20.3,13.2,27.9c2.2,2.2,4.5,4.3,6.7,6.4   c20.3,19.5,40.6,39,61,58.5c4.3,4.1,8.7,8.3,13,12.5c-6.1,34.8-12.1,69.7-18.2,104.5c-0.3,1.7-0.6,3.4-0.9,5.2   c-2,13.3,1.7,26.2,10.8,36.2c13.9,15.3,36,16.8,53.6,7.7c17.8-9.1,35.4-18.3,53.1-27.5c15.1-7.8,30.1-15.6,45.1-23.4   c28,14.5,56,29,84,43.5c4.3,2.2,8.7,4.5,13,6.7c7.2,3.7,16.3,1.9,20.5-5.4C368.3,456.1,366.2,446,359,442.3z M39.6,208.1   C39.1,206,39.5,207.4,39.6,208.1L39.6,208.1z M39.6,208.1c0,0.1,0,0.1,0,0.2C39.6,208.2,39.6,208.2,39.6,208.1z"/><path class="st2" d="M484.3,202.8c-2.2-19.1-16.7-35-35.9-37.8c-19.6-2.9-39.2-5.6-58.7-8.4c-18-2.6-35.9-5.1-53.9-7.7   c-16.3-32.5-32.6-65.1-48.9-97.6c-6.2-12.3-16.3-22.1-30.1-25.1c-19.2-4.2-39.3,4.9-48.3,22.5c-8.9,17.3-17.5,34.8-26.2,52.2   c-8,16-16,31.9-24,47.9c-11.5,1.6-23.1,3.3-34.6,4.9c-8,1.1-12.4,11.3-10.5,18.5c2.4,8.6,10.4,11.6,18.5,10.5   c12.4-1.8,24.8-3.6,37.2-5.3c5.6-0.8,10.2-3.5,13-8.6c1.9-3.4,3.5-7,5.2-10.4c13.5-27,27.1-54.1,40.6-81.1c2-4,4-7.9,5.9-11.9   c0.4-0.7,0.7-1.5,1.1-2.2c0.1-0.2,0.2-0.4,0.4-0.7c0.3-0.6,0.7-1.2,1.1-1.9c0,0,0.4-0.5,0.6-0.8c0.3-0.3,0.5-0.6,0.6-0.6   c0.5-0.5,1-1,1.5-1.4c0.7-0.4,1.4-0.9,2.1-1.3c0.5-0.3,0.7-0.4,0.7-0.5c0.2,0,0.4-0.1,0.9-0.2c0.7-0.2,3.1-0.7,2.4-0.7   c1.2-0.1,2.4,0,3.5,0c0.1,0,0.3,0,0.5,0.1c0.3,0.1,2.7,0.7,2.6,0.7c0.4,0.1,0.7,0.2,0.8,0.2c0.1,0.1,0.3,0.3,0.8,0.5   c0.5,0.3,2.5,1.7,2.1,1.3c0.7,0.6,1.4,1.3,2,1.9c-0.1-0.1,1.5,2.1,1.8,2.7c1.1,2,2.1,4.2,3.2,6.2c13.2,26.3,26.4,52.6,39.6,79   c3.7,7.4,7,15.2,11.2,22.3c5.3,9,19,8.4,28.1,9.7c29.9,4.3,59.8,8.6,89.7,12.8c3.4,0.5,6.8,0.9,10.2,1.5c0.2,0,0.5,0.1,0.7,0.1   c0.3,0,0.5,0.1,0.8,0.1c0.7,0.1,1.4,0.3,2.1,0.4c0.2,0.1,2.5,0.8,2.6,0.8c0.2,0.1,0.4,0.2,0.5,0.2c0.6,0.4,1.2,0.7,1.8,1.1   c0.2,0.1,0.4,0.2,0.5,0.3c0.3,0.3,0.6,0.6,0.9,0.8c0.5,0.5,1,1,1.5,1.5c0.6,1,2.2,3.8,1.3,1.7c0.5,1.1,0.8,2.3,1.1,3.4   c-0.1,0,0.2,2,0.3,2.7c0,0.6,0.1,0.9,0.1,1c0,0.2-0.1,0.4-0.2,0.8c-0.2,0.7-0.4,1.4-0.6,2.1c-0.1,0.4-0.1,0.5,0,0.4   c-0.1,0.1-0.2,0.4-0.4,0.7c-0.3,0.5-2.2,3.5-0.9,1.9c-0.6,0.8-1.4,1.5-2.1,2.2c-0.1,0.1-0.3,0.3-0.4,0.4c-2.4,2.3-4.8,4.6-7.2,6.9   c-21.7,20.8-43.4,41.7-65.1,62.5c-3.6,3.5-7.2,7-10.9,10.4c-5.1,4.9-8.2,9.7-6.9,17.6c1.2,8,2.8,16,4.2,24   c5.1,29.1,10.1,58.2,15.2,87.3c0.4,2.1,0.7,4.2,1.1,6.2c1.4,8,11.2,12.5,18.5,10.5c7.8-2.3,11.2-10.4,9.8-18.4   c-6-34.3-11.9-68.6-17.9-102.9c-0.3-1.8-0.6-3.5-0.9-5.3c26.2-25.1,52.3-50.3,78.5-75.4C479.3,230.2,486,217.4,484.3,202.8z    M452.3,199c0,0.1,0.1,0.1,0.2,0.2C452.2,198.9,451.4,197.7,452.3,199z"/><circle class="st2" cx="92.2" cy="173.2" r="14.1"/><circle class="st1" cx="386.7" cy="459.4" r="14.1"/></g></svg>