<?xml version="1.0" ?>
<svg height="256px" style="enable-background:new 0 0 256 256;" version="1.1" viewBox="0 0 256 256" width="256px" xml:space="preserve" xmlns="http://www.w3.org/2000/svg" xmlns:xlink="http://www.w3.org/1999/xlink">
<style type="text/css">
	.st0{fill:none;}
	.st1{fill:#CFEFF1;}
	.st2{fill:#B3E7EA;}
	.st3{fill:#FDE87A;}
	.st4{fill:#FCE462;}
	.st5{fill:#FDEC91;}
	.st6{fill:#FFFFFF;}
	.st7{fill:#5F2B00;}
</style>
	<g>
		<rect class="st0" height="256" width="256"/>
		<g>
			<path class="st1" d="M189.4,188.5c5.4-0.6,9.9,0.3,15.1,1.4c3.8,0.7,6.6,0.5,9.4-2.2c2.2-2.1,3.8-4.7,5.3-7.3 c4-6.9,7.7-15.2,15.4-18.3c-0.3-18-0.6-40.4-0.9-61c-1.7-4-5.7-6.5-10.5-6.5c-5.1,0-9.6,1.8-14.3,3.6c-6.5,2.6-13.1,4.5-20,2.2 c-4.8-1.6-8-5.1-9-10.1c-0.7-3.5-0.2-7.2-0.9-10.7c-0.9-4.4-3.8-6.8-7.3-7.9c0,2.4-0.1,4.7-0.1,6.5c-0.1,7-0.1,14-0.4,21 c-0.3,8.1-0.5,16.3-0.7,24.4c7.3,2.3,17.9-5.4,24.8-5.7c17.7-0.9,20.4,19.2,15.4,32.3c-5.9,15.4-21.1,24.2-36.8,26.5 c-1.3,0.2-2.5,0.3-3.8,0.3c-0.1,3.9-0.2,7.8-0.3,11.6c-0.1,2.2-0.1,4.5-0.2,6.7c1.3-0.7,2.7-1.4,4.1-2 C178.9,191.1,183.9,189.2,189.4,188.5z M213.9,123c0.4-0.7,0.7-1.3,1.1-2c0.3-0.6,0.5-1.2,1.2-1.5c0.3-0.1,0.6,0.1,0.7,0.4 c0.2,0.7,0,1.3-0.1,2c-0.2,0.8-0.4,1.5-0.6,2.3C215.7,125.8,213.1,124.4,213.9,123z"/>
			<path class="st1" d="M86.4,192.5c0-0.4,0-0.9,0-1.3c-10.2,5.7-22.9,7.6-34.2,6.5c-8.6-0.9-17.6-3.8-24.2-9.2c0,0.1,0,0.3-0.1,0.4 c-0.1,0.4-0.8,0.2-0.8-0.1c-0.1-0.4-0.2-0.9-0.2-1.3c-2.6-2.3-4.7-5.1-6.3-8.2c0,0.9,0,1.8,0,2.7c0,7.7,0.1,15.4,0.1,23.1 c0,7.2,0.4,14.6-0.1,21.7c12.2-4.8,24-8.8,35.6-13.2c6.1-2.3,29.7-10.3,30.5-10.5C86.3,200.1,86.4,195.5,86.4,192.5z M26.2,216.3 c-0.1,0.3-0.6,0.1-0.7-0.1c-0.5-1.9,0.1-4.3,0.3-6.3c0.1-0.7,1.2-0.4,1.2,0.2C26.8,212.1,27.1,214.5,26.2,216.3z M26.8,204.6 c-0.1,0.3-0.5,0.3-0.6,0c-0.4-1.2-0.3-2.4-0.9-3.6c-0.4-0.8,1-1.7,1.3-0.8C27.3,201.5,27.6,203.2,26.8,204.6z M59.8,203.6 c-6,3.8-14.1,5.5-20.7,8c-0.3,0.1-0.7-0.3-0.3-0.5c6.6-2.7,13.6-6.7,20.7-8C59.7,203,60.1,203.4,59.8,203.6z M68,200.5 c-0.5,0.6-1.6-0.4-1-0.9c0.5-0.4,0.9-0.8,1.5-0.9c0.2-0.1,0.5,0.2,0.4,0.4C68.8,199.6,68.3,200.1,68,200.5z M74,197.4 c-0.3,0-0.2-0.4,0.1-0.4C74.3,197,74.3,197.4,74,197.4z"/>
			<path class="st1" d="M27.4,101.6c0-0.8,1.1-0.6,1.1,0.1c0.1,2.2,0.2,4.4,0.3,6.7c11.4-8,25.4-13.2,38.3-16.4 c4.7-1.2,9.1-2.1,13.9-0.8c1.9,0.5,3.6,1.2,5.4,2c0-8.9,0-17.7-0.1-26.6c0-2.6-0.1-5.1-0.1-7.7c-0.9-1.3-1.8-2.7-2.6-4.2 c-3.9-7.6-5.4-18.8-2.2-27.3c-0.1,0-0.1,0-0.2,0.1c-3.1,1.2-6.3,2.5-9.4,3.7c-6.3,2.5-12.6,4.9-18.9,7.3 c-6.6,2.5-13.2,5-19.8,7.4c-3.3,1.2-5.9,2.7-11.1,4.3c-0.1,22.6-0.6,43.3-0.9,64.5c2-1.9,4.1-3.6,6.3-5.3 C27.3,106.9,27.4,104.2,27.4,101.6z M28.9,91.2c-0.3,0.9-0.6,1.8-0.9,2.7c-0.1,0.3-0.7,0.3-0.7,0c0.1-0.9,0.2-1.9,0.2-2.8 C27.7,90.3,29.1,90.3,28.9,91.2z M27.6,85c-0.1-0.7,1.3-0.8,1.2,0c0,0.4,0,0.6-0.4,0.8c-0.2,0.1-0.3,0.1-0.5,0 C27.7,85.5,27.7,85.3,27.6,85z M28.3,53c0-0.4,0.9-0.4,0.9,0c-0.2,8.9,0.4,18.7-1.5,27.4c-0.1,0.3-0.6,0.3-0.6,0 C26.1,71.6,27.7,61.9,28.3,53z"/>
			<path class="st2" d="M127.4,156.9c-10.9-2-16.6,4.7-21.7,13.1c-3.5,5.8-7.1,11.5-12.2,16c-1,0.9-2.1,1.7-3.1,2.5 c0,1.6,0,3.2,0,4.8c0,2.9,0.6,6.5,0.3,9.4c0.4,0.2,12.1,4,17.7,6.2c6.2,2.3,12.4,4.6,18.7,6.9c6.5,2.4,13,4.7,19.5,7 c3.3,1.1,8.7,3.2,12.7,4.7c-0.8-4.2-0.3-8.5-0.3-12.9c0.1-4.7,0.8-9.6,3.6-13.4c0.8-1.2,1.8-2.2,2.9-3.1c0.1-2.8,0.2-5.7,0.3-8.5 c0.1-4.2,0.3-8.5,0.4-12.7c-5.1-0.5-9.8-2.2-14.2-5.5C144.3,165.7,137.3,158.7,127.4,156.9z M110.2,203.9c-4.9-0.4-10-3-14.6-4.6 c-0.5-0.2,0-0.8,0.4-0.7c4.6,1.3,10.4,2.2,14.5,4.8C110.7,203.5,110.4,203.9,110.2,203.9z M119.9,207c-0.4,0.1-0.8,0.2-1.2,0.2 c-0.7,0.1-0.5-1.2,0.3-1.1c0.4,0.1,0.7,0.1,1,0.2C120.3,206.4,120.2,206.9,119.9,207z M123.3,209c-0.7,0-1-1.3-0.2-1.3 C123.8,207.7,124.1,209,123.3,209z M131.7,211.7c-0.6,0-0.7-1.1-0.1-1.1C132.2,210.6,132.3,211.7,131.7,211.7z M157.3,220.2 c0.7,0,0.8,0.9,0.1,0.9C156.7,221.1,156.5,220.2,157.3,220.2z M153.4,219.1c-6-0.4-12.5-3.8-18-5.9c-0.6-0.2-0.1-1,0.4-0.8 c3.2,1.1,6.4,2.2,9.6,3.2c2.8,0.9,5.8,1.5,8.3,2.9C154,218.8,153.6,219.2,153.4,219.1z"/>
			<path class="st2" d="M167.5,76.7c0-2-0.1-3.9-0.1-6c-1-0.1-2-0.2-3-0.2c-16.8-0.6-33.5,4.5-50.3,2.9c-9.1-0.9-18-4.2-24.4-10.4 c0,1.6,0,3.1,0,4.7c-0.1,9.1,0,18.2,0.1,27.3c1.1,0.6,2.2,1.3,3.3,1.9c3.9,2.3,7.9,5.2,12.4,6.2c5.9,1.4,11.9-0.3,17-3.5 c7.1-4.5,12-12,20.8-13.6c7.4-1.3,13.4,3.2,16.4,9.7c1.8,3.8,2.6,8,3.3,12.2c0.8,4.4,1.1,10.1,4.3,13.5c0.3,0.3,0.5,0.5,0.8,0.7 c0.1-7.7,0-15.4-0.2-23.2C167.5,91.6,167.6,84.1,167.5,76.7z"/>
			<path class="st3" d="M209.1,138.7c-1.1,0.2-2.4-1.3-2-2.4c0.3-0.6,0.6-2.4,1.3-3.5c-0.7-3-1.9-5.8-4.1-7.8 c-3-2.8-7.6-3.1-11.5-2.6c-4.3,0.6-8.7,1.7-12.9,2.8c-3,0.8-6.1,1.6-9.3,0.9c-0.1,6.4-0.1,12.8-0.1,19.1c0,4.3,0,8.7,0,13 c0.2-0.2,0.5-0.3,0.9-0.3c2.4-0.1,4.9-1.5,7.2-1.1c0.7,0.1,1.4,0.9,1,1.7c-1.4,2.6-5.9,2.1-8.3,1.7c-0.3-0.1-0.6-0.2-0.8-0.4 c0,4.8-0.1,9.5-0.2,14.3c2.4,0,4.9-0.4,7.4-1C193.6,169.2,209.4,156.4,209.1,138.7z M196.9,147.3c1.7-1.5,2.9-3.5,5-4.5 c1-0.5,2.2,0.5,2,1.6c-0.5,3-3,4.7-5.7,5.6C196.5,150.5,195.8,148.3,196.9,147.3z M185.7,154.1c1.5-0.8,2.8-1.9,4.4-2.5 c0.7-0.3,2,0.3,1.4,1.2c-1.1,1.5-3,2.3-4.7,2.9C185.6,156,184.4,154.7,185.7,154.1z"/>
			<path class="st3" d="M180,78.5c2.7,7,0.2,16.5,8.7,20c7.8,3.2,16.5-1.7,23.9-3.9c6.1-1.8,12.4-2.9,18.4,0.2c1,0.5,2,1.2,2.8,2 c-0.4-29.8-0.7-54.9-0.6-55.8c-3.5,0.7-56.8,17.8-61,16.5c-0.2,0.2-0.3,7.3-0.4,13.7C175.4,72.4,178.6,74.6,180,78.5z"/>
			<path class="st3" d="M220,185.5c-2,2.9-4.6,6-7.9,7.5c-3.9,1.7-7.6,0-11.5-0.9c-9.8-2.2-22.7,0.3-31,6.5 c-0.1,4.1-0.3,8.3-0.4,12.4c-0.2,5-0.2,12-0.5,17c2.7-1.8,60.7-33.6,66.4-35.3c-0.1-5.4-0.2-15.1-0.4-27.1 C227.7,170.2,224.8,178.5,220,185.5z M190.3,211.7c-4.3,3.9-10.7,6.2-16,8.5c-0.6,0.2-0.8-0.8-0.3-1c5.1-2.6,10.5-6.4,16.1-8 C190.3,211.2,190.4,211.6,190.3,211.7z M196.6,207.9c-0.5,0.5-1,0.9-1.6,1.3c-0.4,0.2-0.9-0.3-0.5-0.6c0.6-0.4,1.1-0.8,1.8-1 C196.5,207.5,196.8,207.8,196.6,207.9z M199.7,206.5c-0.5,0-0.2-0.8,0.2-0.8C200.3,205.7,200.1,206.5,199.7,206.5z M205.9,203.9 C205.9,203.9,205.9,203.9,205.9,203.9C205.9,203.9,205.9,203.9,205.9,203.9z M209.7,202.7c-0.5,0-0.3-0.9,0.2-0.9 C210.4,201.7,210.2,202.7,209.7,202.7z M226.7,192.2c-4.8,3.7-10.7,6.4-16.1,9.1c-0.6,0.3-1.3-0.4-0.6-0.8 c5.3-3,10.8-6.6,16.5-8.6C226.7,191.9,226.9,192.1,226.7,192.2z"/>
			<path class="st4" d="M161.4,228.3c1.7,0.6,2.9,1,3,1c-0.1-5.8,0.5-11.7,0.7-17.4c0.1-3,0.2-6,0.3-9c-2.4,3.5-3.5,7.9-4.3,12.1 C160.2,219.5,161.1,223.9,161.4,228.3z"/>
			<path class="st4" d="M95.8,65.5c14.4,8.7,32.4,5.3,48.2,3.7c7.9-0.8,15.6-0.8,23.3,0.7c-0.1-4,0-8.1,0.6-12 c-6.8-1.4-13.7-4.8-20.2-7.2c-7.4-2.7-14.8-5.6-22.1-8.5c-7.4-2.9-14.7-5.9-21.9-9c-4.6-1.9-9.4-3.7-13.6-6.3 c0.8,5.5,0,11.8-0.1,16.9c-0.2,5.5-0.3,10.9-0.3,16.4C91.4,62.3,93.5,64.1,95.8,65.5z"/>
			<path class="st4" d="M150.2,90.8c-9-4.8-17.1,4.8-23.8,9.3c-6.1,4-12.9,6.8-20.3,6.2c-6.2-0.5-11.2-3.7-16.4-6.8 c0.1,4.6,0.1,9.2,0.2,13.8c0.2,15.2,0.4,30.4,0.4,45.6l0.1,22.4c0,1.7,0,3.3,0,5c6.3-4.4,10.3-9.9,13.9-17 c2.7-5.2,6.1-10.6,11.5-13.3c5.5-2.8,12.2-2.8,17.9-0.8c7.4,2.6,13.1,8.1,19.2,12.9c4.2,3.3,8.7,5.1,13.4,5.7 c0.3-9.6,0.6-19.2,1-28.8c0.3-6.6,0.4-13.2,0.5-19.8C155.8,119.4,162.5,97.3,150.2,90.8z M93.7,146.7c-1,0-1.6-1.9-0.5-2.1 c1.7-0.2,3.3-0.7,4.8-1.6c1.2-0.8,2.2-1.8,3.6-1.9c0.4,0,0.7,0.5,0.7,0.9C102,145.5,96.4,146.6,93.7,146.7z M112.5,133.3 c-0.4,0.9-1.1,1.4-1.8,2c-0.7,0.6-1.4,1.2-2.1,1.8c-1,0.8-3.2-0.5-2.1-1.6c1.3-1.2,2.5-2.9,4.2-3.5 C111.6,131.7,113,132.3,112.5,133.3z M124.4,127.8c-1.5,0.4-3,0.7-4.4,1.3c-1.5,0.5-1.7-2.1-0.7-2.7c1.3-0.7,6.5-3.6,7-0.7 C126.6,126.8,125.3,127.5,124.4,127.8z M135.8,130.2c-0.5,0-1,0-1.5-0.3c-0.3-0.1-0.5-0.3-0.8-0.5c-0.5-0.4-1.1-0.7-1.7-1 c-0.7-0.3-0.7-1.2-0.4-1.8c0.4-0.7,1.2-1,2-0.9c0.8,0.1,1.6,0.3,2.4,0.7c0.4,0.2,0.8,0.4,1.2,0.7c0.4,0.4,0.5,0.8,0.6,1.3 C137.8,129.4,136.6,130.2,135.8,130.2z M144.9,138c-0.9-0.3-1.6-0.9-2.2-1.8c-0.5-0.7-1-1.5-1.5-2.3c-0.9-1.3,1.1-2.4,2.2-1.5 c0.7,0.6,1.4,1.2,2.1,1.8c0.3,0.3,0.6,0.7,0.9,1c0.3,0.4,0.4,0.8,0.5,1.3C147,137.6,145.6,138.3,144.9,138z M153.3,148 c-1.1,0.7-1.9-0.5-2.3-1.4c-0.6-1.2-1-2.4-1.7-3.5c-0.8-1.3,1.3-2.6,2.3-1.6c1,1,1.9,2.1,2.3,3.4 C154.2,145.9,154.4,147.3,153.3,148z M162.7,158.7c0.7,0.1-0.6,0-0.7,0c-0.3-0.1-0.6-0.2-0.9-0.3c-0.5-0.3-1.1-0.6-1.6-1 c-1-0.7-1.8-1.6-2.5-2.5c-1.1-1.3,1.3-2.2,2.3-1.5c0.9,0.6,1.8,1.1,2.7,1.7c0.4,0.3,0.9,0.6,1.3,0.8c0.5,0.3,0.6,0.7,1,1.1 C165.1,158,163.5,158.8,162.7,158.7z"/>
			<path class="st5" d="M86,55.5c-0.1-3.7-0.2-7.4-0.3-11.1c-0.2-5.6-0.3-12.5,0-18.4c-0.4,0.2-0.9,0.3-1.3,0.5 c-1.2,2.8-2.4,5.7-2.8,8.8c-0.5,4.1-0.1,8.2,1,12.1C83.4,50.3,84.5,53,86,55.5z"/>
			<path class="st5" d="M26.8,166.4c0-0.6,1-0.4,1,0.1c0,6.1,1.1,12.9,0.5,19.1c9.6,8.1,24.3,10.4,36.7,9.3 c7.4-0.7,14.8-2.7,21.3-6.1c0-2.7,0-5.5,0-8.2c0-7.5-0.1-14.9-0.1-22.4c-0.1-15.2,0-30.5,0.1-45.7c0-4.9,0-9.9,0-14.8 c-7.6-4-15.2-4.2-23.6-1.8c-7.9,2.3-15.6,5.4-22.8,9.4c-3.8,2.1-7.4,4.5-10.9,6.9c0.3,6,0.5,12-0.4,17.7 c-0.1,0.4-0.6,0.1-0.6-0.1c-0.9-5.2-1-10.7-0.9-16.2c-2.1,1.5-4.1,3-6.2,4.4c-0.1,6.5-0.2,13-0.2,19.7c-0.1,12.5-0.2,25-0.2,37.5 c1.4,3.5,3.5,6.4,5.9,8.9C26.1,178.1,26.8,171.9,26.8,166.4z M71.4,142.4c-1.2-1.3-2.1-2.4-2.9-3.9c-0.8-1.5-1.5-3.1-2.3-4.6 c-0.3-0.6,0.8-0.8,1.1-0.4c0.9,1.3,1.8,2.7,2.6,4c1,1.5,1.5,2.9,2,4.7C72,142.5,71.5,142.6,71.4,142.4z M78.8,145.4 c1.1,0.8,2.2,1.3,3.4,1.7c0.9,0.3,2.1,0.5,2.8,1.3c0.2,0.2,0.2,0.5-0.1,0.6c-2.4,1.2-5.3-1.5-6.9-3.1 C77.5,145.6,78.4,145.1,78.8,145.4z M51.9,116.9c3.3,0.8,6.3,2.7,9.4,4c0.2,0.1,0.4,0.2,0.7,0.3c1.9-3.5,3.9-7,6.1-10.3 c0.8-1.3,3.4-0.1,2.9,1.3c-1.2,3.6-2.7,7.1-4.2,10.6c2,0.6,4,1.1,6,1.9c1.9,0.7,3.2,4.5,0.1,4.4c-2.7-0.1-5.4-0.9-8.1-1.9 c-1.7,3.6-2.8,8.5-6.7,10.2c-0.7,0.3-1.9-0.1-2.1-0.9c-1-3.8,1.9-7.9,3.9-11.3c-3.4-1.5-6.9-3.3-9.2-6.2 C49.9,117.8,50.6,116.6,51.9,116.9z M27.9,159.7c0,0.2-0.5,0.4-0.5,0.1c-0.1-0.5-0.1-1.1-0.2-1.6c0-0.5,0.9-0.7,0.9-0.1 C28.1,158.6,28,159.2,27.9,159.7z M27.9,149.7c0,0.4-0.4,0.4-0.5,0c-0.1-0.7-0.1-1.5-0.2-2.2c0-0.3,0.2-0.6,0.5-0.6 c0.3,0,0.4,0.4,0.4,0.7C28.1,148.3,28,149,27.9,149.7z M28.3,138.5c-0.1,0.8-0.1,1.5-0.3,2.2c-0.1,0.3-0.5,0.4-0.7,0.1 c-0.2-0.7-0.3-1.4-0.3-2.2C27,137.9,28.4,137.7,28.3,138.5z"/>
		</g>
		<path class="st6" d="M235.2,42c-4.5-2-9.2,0.3-13.7,1.5c-5.3,1.4-10.5,2.8-15.8,4.2c-9.9,2.7-19.9,5.1-29.3,9.1 c-0.1-0.8-0.2-1.7-0.3-2.5c-0.3-2.5-3.5-1.5-3.6,0.6c-1.3,28.6-0.7,57.1-1.2,85.7c-0.2,14.1-0.5,28.2-0.9,42.3 c-0.2,7.1-0.4,14.1-0.6,21.2c-0.2,6.9-1.6,14.7,0.3,21.4c0.8,2.7,3.8,0.9,4.5-0.7c2.6-6.2,2-14.1,2.5-20.8 c0.5-7,0.8-14.1,1.2-21.1c0.7-14.5,1.1-28.9,1.2-43.4c0.2-26.5,0.1-52.9-2.7-79.2c11.1-0.7,21.8-3.4,32.5-6.2 c5.3-1.4,10.5-2.8,15.8-4.3c4.1-1.1,8.6-1.6,11-5.4C236.6,43.6,236,42.3,235.2,42z"/>
		<path class="st6" d="M167.3,58.7c-13.1-6.5-26.3-13-39.9-18.6c-12.8-5.3-26-8-39-12.4c-0.3-0.1-0.5-0.1-0.7-0.1 c0.1-0.2,0.2-0.5,0.2-0.7c0.1-0.4-0.2-0.9-0.5-1.1c-4.1-2.6-8.3-0.1-12.5,1.4c-6.5,2.3-12.9,4.8-19.3,7.3 c-10.6,4.2-21.1,8.8-31.1,14.2c-0.9-0.9-2.5-0.2-2.7,1.5c-0.4,0.2-0.7,0.4-1.1,0.6c-1.3,0.8-0.3,2.2,0.9,2.3 c-1.6,28.4-1.6,57.1-1.4,85.6c0.1,14.5,0.1,29.1,0.3,43.6l0.3,22.4c0.1,7-0.5,14.3,0.7,21.2c0.8,4.2,6.6,3.4,7.3-0.5 c1.1-6.9,0.4-14.3,0.4-21.3l-0.2-22.4c-0.1-14.5-0.4-29.1-0.6-43.6c-0.4-28.7-0.9-57.5-3.2-86.1c11.4-3.7,22.7-8,33.9-12.2 c5.8-2.1,11.6-4.2,17.4-6.3c2.9-1,7.9-1.8,10.2-4.4c0.1,0.4,0.3,0.8,0.7,1.1c11.1,7.7,25.1,11,37.4,16.3 c13.5,5.8,26.6,12.3,39.8,18.8C169.4,68,171.9,61,167.3,58.7z"/>
		<g>
			<path class="st7" d="M28.3,53c-0.7,8.9-2.3,18.6-1.2,27.4c0,0.3,0.6,0.3,0.6,0c1.9-8.7,1.3-18.6,1.5-27.4 C29.2,52.6,28.4,52.6,28.3,53z"/>
			<path class="st7" d="M27.6,85c0,0.3,0,0.6,0.4,0.7c0.2,0.1,0.3,0.1,0.5,0c0.3-0.2,0.3-0.4,0.4-0.8C28.9,84.2,27.6,84.2,27.6,85z"/>
			<path class="st7" d="M27.6,91.1c-0.1,0.9-0.2,1.9-0.2,2.8c0,0.4,0.6,0.3,0.7,0c0.3-0.9,0.6-1.8,0.9-2.7 C29.1,90.3,27.7,90.3,27.6,91.1z"/>
			<path class="st7" d="M28.5,101.7c0-0.7-1.1-0.9-1.1-0.1c0,9.1-1,18.9,0.6,27.9c0,0.3,0.5,0.5,0.6,0.1 C30,120.7,28.7,110.8,28.5,101.7z"/>
			<path class="st7" d="M27,138.7c0.1,0.7,0.1,1.5,0.3,2.2c0.1,0.3,0.6,0.2,0.7-0.1c0.2-0.7,0.3-1.5,0.3-2.2 C28.4,137.7,27,137.9,27,138.7z"/>
			<path class="st7" d="M27.7,146.9c-0.3,0-0.5,0.3-0.5,0.6c0.1,0.7,0.2,1.5,0.2,2.2c0,0.4,0.4,0.4,0.5,0c0.1-0.7,0.1-1.4,0.2-2.1 C28.2,147.3,28.1,147,27.7,146.9z"/>
			<path class="st7" d="M27.2,158.2c0,0.5,0.1,1.1,0.2,1.6c0,0.3,0.5,0.1,0.5-0.1c0.1-0.6,0.1-1.1,0.2-1.7 C28.2,157.5,27.2,157.6,27.2,158.2z"/>
			<path class="st7" d="M27.8,166.5c0-0.5-1-0.7-1-0.1c0.1,7.2-1.2,15.4,0.2,22.4c0.1,0.3,0.8,0.5,0.8,0.1 C29.3,181.9,27.8,173.7,27.8,166.5z"/>
			<path class="st7" d="M26.7,200.1c-0.4-0.8-1.7,0.1-1.3,0.8c0.5,1.2,0.5,2.4,0.9,3.6c0.1,0.3,0.5,0.3,0.6,0 C27.6,203.2,27.3,201.5,26.7,200.1z"/>
			<path class="st7" d="M25.8,209.9c-0.2,2-0.8,4.3-0.3,6.3c0.1,0.3,0.5,0.4,0.7,0.1c0.8-1.8,0.6-4.3,0.8-6.2 C27,209.5,25.9,209.2,25.8,209.9z"/>
			<path class="st7" d="M59.4,203c-7,1.3-14.1,5.4-20.7,8c-0.4,0.2,0,0.6,0.3,0.5c6.6-2.5,14.7-4.2,20.7-8 C60.1,203.4,59.7,203,59.4,203z"/>
			<path class="st7" d="M68.4,198.7c-0.6,0.1-1.1,0.6-1.5,0.9c-0.6,0.5,0.5,1.5,1,0.9c0.4-0.4,0.8-0.9,0.9-1.5 C68.9,198.8,68.6,198.6,68.4,198.7z"/>
			<path class="st7" d="M74.1,197c-0.2,0-0.3,0.4-0.1,0.4C74.3,197.4,74.3,197,74.1,197z"/>
			<path class="st7" d="M110.5,203.3c-4.1-2.6-9.9-3.4-14.5-4.8c-0.4-0.1-0.8,0.5-0.4,0.7c4.6,1.6,9.7,4.2,14.6,4.6 C110.4,203.9,110.7,203.5,110.5,203.3z"/>
			<path class="st7" d="M120,206.4c-0.3-0.1-0.7-0.2-1-0.2c-0.8-0.1-1,1.2-0.3,1.1c0.4-0.1,0.8-0.1,1.2-0.2 C120.2,206.9,120.3,206.4,120,206.4z"/>
			<path class="st7" d="M123.1,207.7c-0.8,0-0.5,1.3,0.2,1.3C124.1,209,123.8,207.7,123.1,207.7z"/>
			<path class="st7" d="M131.5,210.6c-0.6,0-0.5,1.1,0.1,1.1C132.3,211.7,132.2,210.6,131.5,210.6z"/>
			<path class="st7" d="M153.7,218.6c-2.5-1.5-5.6-2-8.3-2.9c-3.2-1-6.4-2.1-9.6-3.2c-0.5-0.2-1,0.6-0.4,0.8 c5.6,2.1,12,5.5,18.1,5.9C153.6,219.2,154,218.8,153.7,218.6z"/>
			<path class="st7" d="M157.3,220.2c-0.7,0-0.6,0.9,0.1,0.9C158,221.1,157.9,220.2,157.3,220.2z"/>
			<path class="st7" d="M190.1,211.3c-5.5,1.6-10.9,5.4-16.1,8c-0.5,0.2-0.3,1.3,0.3,1c5.3-2.3,11.6-4.6,16-8.5 C190.4,211.6,190.3,211.2,190.1,211.3z"/>
			<path class="st7" d="M196.3,207.6c-0.7,0.2-1.2,0.6-1.8,1c-0.4,0.3,0.2,0.8,0.5,0.6c0.6-0.4,1.2-0.7,1.6-1.3 C196.8,207.8,196.5,207.5,196.3,207.6z"/>
			<path class="st7" d="M199.8,205.7c-0.4,0-0.6,0.8-0.2,0.8C200.1,206.5,200.3,205.7,199.8,205.7z"/>
			<path class="st7" d="M205.9,203.9C205.9,203.9,205.9,203.9,205.9,203.9C205.9,203.9,205.9,203.9,205.9,203.9z"/>
			<path class="st7" d="M209.9,201.7c-0.5,0-0.7,0.9-0.2,0.9C210.2,202.7,210.4,201.7,209.9,201.7z"/>
			<path class="st7" d="M226.5,191.9c-5.7,2-11.2,5.6-16.5,8.6c-0.7,0.4,0,1.1,0.6,0.8c5.4-2.8,11.3-5.4,16.1-9.1 C226.9,192.1,226.7,191.9,226.5,191.9z"/>
			<g>
				<path class="st7" d="M241.3,113.1l-0.5-39.3c-0.1-6.8-0.1-15.7-0.2-22.5c-0.1-3-0.7-17.7-1.9-18.6c-1.9-1.4-9.7,1.5-11.7,2.2 c-2.9,1-5.7,1.9-8.6,2.9c-6.3,2.1-12.6,4-19,5.8c-5.3,1.5-10.6,3.1-15.9,4.6c-2.6,0.7-9.9,1.5-13.4,3 c-6.2-3.5-56.7-22.3-64.1-25.2c-5.5-2.1-12.2-5.2-18-5.9c-4.1-0.5-9.9,1.8-13,3c-5.7,2.3-59.6,23.8-59.7,25.1 c-3.2,30-1.1,60.8-1.6,91c-0.2,14.8,0.1,28.6,0,43.4c-0.1,7.4,0.1,15.9,0.1,23.3c0,7.9-0.1,16.4,0.8,24.3c0.2,2.1,2.9,5.4,6,4.5 c6.2-1.8,13.5-5.5,19.6-7.5c6.1-2.1,12.3-4.3,18.4-6.5c5.9-2.1,11.7-4.3,17.5-6.5c3.2-1.2,6.4-2.3,9.6-3.5 c1.7-0.6,3.1-1.1,4.2-2c4.7,3.6,9.9,4.3,15.3,6.5c6.4,2.6,12.9,5.1,19.3,7.5c6.2,2.3,12.5,4.6,18.7,6.7c6.1,2.1,13.4,7,19.9,6.7 c5.1-0.2,15.2-7,18.5-8.9c6.2-3.4,12.4-6.7,18.7-10c6.5-3.4,12.9-6.7,19.5-9.9c3.4-1.7,20-8.9,22.8-11.4 C243.2,195.2,241.6,139.8,241.3,113.1z M81.6,35.3c0.4-3.1,1.6-5.9,2.8-8.8c0.4-0.2,0.9-0.3,1.3-0.5c-0.3,5.9-0.3,12.8,0,18.4 c0.2,3.7,0.3,7.4,0.3,11.1c-1.5-2.5-2.6-5.3-3.4-8.1C81.5,43.4,81.1,39.3,81.6,35.3z M21.8,50.4c5.2-1.7,7.8-3.1,11.1-4.3 c6.6-2.4,13.2-5,19.8-7.4c6.3-2.4,12.6-4.8,18.9-7.3c3.1-1.2,6.3-2.5,9.4-3.7c0.1,0,0.1,0,0.2-0.1c-3.2,8.5-1.7,19.7,2.2,27.3 c0.8,1.5,1.6,2.9,2.6,4.2c0,2.6,0.1,5.1,0.1,7.7c0.1,8.9,0.1,17.7,0.1,26.6c-1.7-0.8-3.5-1.6-5.4-2c-4.8-1.3-9.2-0.3-13.9,0.8 c-16.1,4-33.9,11-46.1,22.8C21.3,93.7,21.7,73,21.8,50.4z M20.7,137.4c0-6.7,0.1-13.2,0.2-19.7c6.3-4.3,12.3-9,19-12.7 c7.2-3.9,14.9-7.1,22.8-9.4c8.4-2.4,16-2.2,23.6,1.8c0,4.9,0,9.9,0,14.8c0,15.2-0.1,30.5-0.1,45.7c0,7.5,0.1,14.9,0.1,22.4 c0,2.7,0,5.5,0,8.2c-6.6,3.5-13.9,5.5-21.3,6.1c-16.7,1.5-37.6-3.2-44.5-19.9C20.5,162.4,20.6,149.9,20.7,137.4z M56.1,213.6 c-11.6,4.4-23.4,8.4-35.6,13.2c0.6-7.2,0.1-14.6,0.1-21.7c0-7.7,0-15.4-0.1-23.1c0-0.9,0-1.8,0-2.7c5.6,11.4,19,17.2,31.7,18.5 c11.3,1.1,24-0.8,34.2-6.5c0,0.4,0,0.9,0,1.3c0,3-0.1,7.6,0.2,10.6C85.7,203.3,62.2,211.3,56.1,213.6z M172.1,57.4 c4.2,1.3,57.5-15.8,61-16.5c-0.1,1,0.2,26,0.6,55.8c-0.8-0.8-1.8-1.4-2.8-2c-5.9-3.1-12.3-2-18.4-0.2 c-7.4,2.2-16.1,7.2-23.9,3.9c-8.5-3.5-6-13-8.7-20c-1.5-3.8-4.6-6-8.3-7.3C171.9,64.7,171.9,57.6,172.1,57.4z M170.5,159.8 c0.2,0.2,0.4,0.4,0.8,0.4c2.4,0.5,6.9,0.9,8.3-1.7c0.4-0.8-0.3-1.5-1-1.7c-2.4-0.5-4.9,0.9-7.2,1.1c-0.4,0-0.7,0.2-0.9,0.3 c0-4.3,0.1-8.7,0-13c0-6.4,0-12.8,0.1-19.1c3.1,0.7,6.2-0.1,9.3-0.9c4.2-1.1,8.6-2.2,12.9-2.8c3.9-0.5,8.4-0.2,11.5,2.6 c2.2,2,3.4,4.8,4.1,7.8c-0.7,1.1-1,2.9-1.3,3.5c-0.5,1.1,0.9,2.6,2,2.4c0.3,17.7-15.4,30.5-31.4,34.4c-2.5,0.6-5,0.9-7.4,1 C170.4,169.3,170.4,164.5,170.5,159.8z M170,188.6c0.1-3.9,0.2-7.8,0.3-11.6c1.2,0,2.5-0.2,3.8-0.3c15.7-2.3,31-11,36.8-26.5 c5-13,2.3-33.2-15.4-32.3c-6.8,0.4-17.5,8-24.8,5.7c0.1-8.1,0.3-16.2,0.7-24.4c0.3-7,0.2-14,0.4-21c0-1.8,0.1-4.1,0.1-6.5 c3.5,1.2,6.4,3.5,7.3,7.9c0.7,3.5,0.2,7.2,0.9,10.7c1,5,4.2,8.5,9,10.1c6.9,2.3,13.5,0.3,20-2.2c4.7-1.8,9.2-3.6,14.3-3.6 c4.8,0,8.8,2.5,10.5,6.5c0.3,20.6,0.6,43,0.9,61c-7.7,3.2-11.4,11.4-15.4,18.3c-1.5,2.6-3.1,5.2-5.3,7.3 c-2.8,2.6-5.7,2.9-9.4,2.2c-5.2-1-9.7-2-15.1-1.4c-5.5,0.7-10.5,2.6-15.5,4.8c-1.4,0.6-2.8,1.3-4.1,2 C169.8,193.1,169.9,190.9,170,188.6z M89.9,43.9c0.2-5.1,0.9-11.4,0.1-16.9c4.2,2.6,9,4.3,13.6,6.3c7.3,3.1,14.6,6.1,21.9,9 c7.4,2.9,14.7,5.8,22.1,8.5c6.5,2.4,13.3,5.7,20.2,7.2c-0.6,3.9-0.6,8-0.6,12c-7.8-1.5-15.4-1.5-23.3-0.7 c-15.7,1.5-33.8,4.9-48.2-3.7c-2.4-1.4-4.5-3.2-6.3-5.2C89.6,54.9,89.7,49.4,89.9,43.9z M165.1,211.9 c-0.2,5.7-0.8,11.6-0.7,17.4c-0.1,0.1-1.2-0.3-3-1c-0.4-4.4-1.2-8.8-0.4-13.3c0.8-4.2,1.9-8.6,4.3-12.1 C165.3,205.9,165.2,208.9,165.1,211.9z M165.9,189.6c-0.1,2.8-0.2,5.7-0.3,8.5c-1.1,0.9-2.1,1.9-2.9,3.1 c-2.8,3.9-3.5,8.8-3.6,13.4c-0.1,4.4-0.5,8.7,0.3,12.9c-4-1.5-9.4-3.6-12.7-4.7c-6.5-2.3-13.1-4.6-19.5-7 c-6.2-2.3-12.5-4.6-18.7-6.9c-5.6-2.1-17.4-6-17.7-6.2c0.3-2.9-0.3-6.5-0.3-9.4c0-1.6,0-3.2,0-4.8c1.1-0.8,2.1-1.6,3.1-2.5 c5.1-4.6,8.7-10.2,12.2-16c5.1-8.4,10.7-15.1,21.7-13.1c9.9,1.8,16.9,8.8,24.6,14.5c4.4,3.3,9.1,5,14.2,5.5 C166.1,181.1,166,185.4,165.9,189.6z M167.4,145c-0.4,9.6-0.7,19.2-1,28.8c-4.8-0.6-9.2-2.5-13.4-5.7 c-6-4.8-11.8-10.3-19.2-12.9c-5.7-2-12.5-2-17.9,0.8c-5.4,2.7-8.8,8.1-11.5,13.3c-3.6,7-7.5,12.6-13.9,17c0-1.7,0-3.3,0-5 l-0.1-22.4c-0.1-15.2-0.3-30.4-0.4-45.6c-0.1-4.6-0.1-9.2-0.2-13.8c5.2,3.1,10.2,6.2,16.4,6.8c7.4,0.6,14.2-2.2,20.3-6.2 c6.8-4.5,14.8-14,23.8-9.3c12.3,6.5,5.6,28.7,17.7,34.4C167.8,131.8,167.6,138.4,167.4,145z M167.9,122.2 c-0.3-0.2-0.5-0.5-0.8-0.7c-3.2-3.5-3.5-9.1-4.3-13.5c-0.7-4.1-1.5-8.3-3.3-12.2c-3-6.5-9-11-16.4-9.7 c-8.8,1.6-13.8,9.1-20.8,13.6c-5.1,3.2-11,4.9-17,3.5c-4.5-1.1-8.5-3.9-12.4-6.2c-1.1-0.7-2.2-1.3-3.3-1.9 c-0.1-9.1-0.2-18.2-0.1-27.3c0-1.6,0-3.1,0-4.7c6.4,6.2,15.3,9.5,24.4,10.4c16.9,1.6,33.5-3.5,50.3-2.9c1,0,2,0.1,3,0.2 c0,2,0.1,4,0.1,6c0.1,7.4,0,14.9,0.3,22.3C167.9,106.7,168,114.5,167.9,122.2z M168.8,228c0.3-5.1,0.3-12,0.5-17 c0.2-4.1,0.3-8.3,0.4-12.4c8.3-6.2,21.1-8.7,31-6.5c3.9,0.9,7.6,2.6,11.5,0.9c3.3-1.5,5.9-4.6,7.9-7.5 c4.8-6.9,7.7-15.3,14.8-19.9c0.2,12,0.3,21.8,0.4,27.1C229.4,194.4,171.5,226.2,168.8,228z"/>
				<path class="st7" d="M72.7,124.6c-2-0.7-4-1.3-6-1.9c1.5-3.5,2.9-7,4.2-10.6c0.5-1.5-2.1-2.6-2.9-1.3c-2.2,3.4-4.2,6.8-6.1,10.3 c-0.2-0.1-0.4-0.2-0.7-0.3c-3.1-1.3-6.1-3.3-9.4-4c-1.2-0.3-2,1-1.2,2c2.3,2.9,5.8,4.8,9.2,6.2c-2,3.5-4.9,7.5-3.9,11.3 c0.2,0.8,1.4,1.3,2.1,0.9c3.9-1.7,5-6.6,6.7-10.2c2.6,1,5.3,1.7,8.1,1.9C75.8,129.1,74.6,125.3,72.7,124.6z"/>
				<path class="st7" d="M71.9,142.2c-0.5-1.7-1.1-3.1-2-4.7c-0.8-1.4-1.7-2.7-2.6-4c-0.3-0.4-1.4-0.3-1.1,0.4 c0.8,1.5,1.5,3.1,2.3,4.6c0.8,1.5,1.7,2.6,2.9,3.9C71.5,142.6,72,142.5,71.9,142.2z"/>
				<path class="st7" d="M85,148.4c-0.7-0.8-1.8-1-2.8-1.3c-1.3-0.4-2.3-0.9-3.4-1.7c-0.4-0.3-1.2,0.1-0.8,0.6 c1.6,1.5,4.5,4.2,6.9,3.1C85.2,148.9,85.1,148.6,85,148.4z"/>
				<path class="st7" d="M101.6,141.1c-1.5,0.1-2.4,1.2-3.6,1.9c-1.5,0.9-3.1,1.4-4.8,1.6c-1.1,0.1-0.4,2.1,0.5,2.1 c2.8-0.1,8.4-1.2,8.6-4.7C102.3,141.7,102,141.1,101.6,141.1z"/>
				<path class="st7" d="M110.8,132c-1.7,0.6-3,2.3-4.2,3.5c-1.1,1.1,1.1,2.4,2.1,1.6c0.7-0.6,1.4-1.2,2.1-1.8 c0.7-0.6,1.4-1.1,1.8-2C113,132.3,111.6,131.7,110.8,132z"/>
				<path class="st7" d="M126.4,125.7c-0.5-2.9-5.8-0.1-7,0.7c-1,0.6-0.8,3.3,0.7,2.7c1.4-0.5,2.9-0.9,4.4-1.3 C125.3,127.5,126.6,126.8,126.4,125.7z"/>
				<path class="st7" d="M137.6,128.4c-0.1-0.5-0.2-0.9-0.6-1.3c-0.3-0.3-0.7-0.5-1.2-0.7c-0.8-0.3-1.6-0.6-2.4-0.7 c-0.8-0.1-1.6,0.1-2,0.9c-0.3,0.6-0.3,1.5,0.4,1.8c0.6,0.3,1.2,0.6,1.7,1c0.2,0.2,0.5,0.4,0.8,0.5c0.5,0.3,1,0.3,1.5,0.3 C136.6,130.2,137.8,129.4,137.6,128.4z"/>
				<path class="st7" d="M146.3,135.3c-0.3-0.4-0.6-0.7-0.9-1c-0.7-0.6-1.4-1.2-2.1-1.8c-1-0.9-3,0.2-2.2,1.5c0.5,0.8,1,1.5,1.5,2.3 c0.6,0.8,1.2,1.4,2.2,1.8c0.8,0.3,2.2-0.4,2-1.4C146.8,136.1,146.7,135.7,146.3,135.3z"/>
				<path class="st7" d="M153.9,144.9c-0.5-1.3-1.4-2.4-2.3-3.4c-1-1-3,0.3-2.3,1.6c0.7,1.1,1.1,2.4,1.7,3.5c0.4,0.8,1.3,2,2.3,1.4 C154.4,147.3,154.2,145.9,153.9,144.9z"/>
				<path class="st7" d="M164.2,157c-0.3-0.4-0.5-0.8-1-1.1c-0.4-0.3-0.9-0.6-1.3-0.8c-0.9-0.6-1.8-1.1-2.7-1.7 c-1-0.7-3.4,0.2-2.3,1.5c0.8,0.9,1.6,1.8,2.5,2.5c0.5,0.3,1,0.7,1.6,1c0.3,0.1,0.6,0.3,0.9,0.3c0.1,0,1.4,0.1,0.7,0 C163.5,158.8,165,158,164.2,157z"/>
				<path class="st7" d="M190.1,151.5c-1.6,0.6-2.9,1.7-4.4,2.5c-1.3,0.7,0,2,1.1,1.6c1.7-0.6,3.6-1.4,4.7-2.9 C192.1,151.8,190.8,151.2,190.1,151.5z"/>
				<path class="st7" d="M201.8,142.7c-2.1,1-3.3,3-5,4.5c-1.1,1-0.4,3.2,1.2,2.6c2.7-0.9,5.2-2.6,5.7-5.6 C204,143.2,202.8,142.2,201.8,142.7z"/>
				<path class="st7" d="M216.8,119.8c-0.1-0.3-0.4-0.5-0.7-0.4c-0.7,0.3-0.9,0.9-1.2,1.5c-0.4,0.7-0.7,1.3-1.1,2 c-0.7,1.4,1.8,2.9,2.2,1.2c0.2-0.8,0.4-1.5,0.6-2.3C216.9,121.2,217,120.6,216.8,119.8z"/>
			</g>
		</g>
	</g>
</svg>