<?xml version="1.0" ?><!DOCTYPE svg  PUBLIC '-//W3C//DTD SVG 1.1//EN'  'http://www.w3.org/Graphics/SVG/1.1/DTD/svg11.dtd'>
<svg xmlns="http://www.w3.org/2000/svg" version="1.1" viewBox="0 0 256 256">
    <g fill="#FFD561">
        <path d="M201.428,110.214v89.372c-30.798,14.404-76.429-19.764-90.081,8.525       c-13.652-28.289-51.783,5.973-82.581-8.431l0.78-152.547c-4.807,0-8.704,3.858-8.704,8.617V209.72       c0,4.759,3.897,8.617,8.704,8.617h60.431c3.884,0,7.644,1.831,9.716,5.115c2.443,3.872,7.86,6.813,16.694,6.813       c5.095,0,10.403-2.605,13.404-6.14c3.024-3.561,7.323-5.788,11.995-5.788h65.289c4.807,0,8.704-3.858,8.704-8.617V91.732       L201.428,110.214z" />
        <path d="M213.877,50.382c-1.595-1.978-4.047-3.249-6.802-3.249h-4.301h-1.345v18.198L213.877,50.382z" />
    </g>
    <g fill="#6EAF6C">
        <path d="M208.816,103.986c-1.657,0-3,1.343-3,3v100.188c0,3.098-2.559,5.618-5.704,5.618h-62.977      c-6.387,0-12.476,2.676-16.705,7.34c-2.058,2.268-5.453,3.622-9.082,3.622c-3.63,0-7.025-1.354-9.082-3.622      c-4.23-4.664-10.319-7.34-16.706-7.34H22.583c-3.146,0-5.704-2.521-5.704-5.618V53.204c0-3.098,2.559-5.617,5.704-5.617h1.776      v151.177c0,1.165,0.674,2.224,1.729,2.718c14.65,6.851,30.935,3.778,45.303,1.066c19.041-3.595,31.025-5.14,37.253,7.768      c0.509,1.054,1.569,1.696,2.701,1.696c0.222,0,0.448-0.017,0.67-0.075c1.906-0.501,2.57-2.686,2.854-3.181      c6.435-11.214,18.201-9.648,36.433-6.208c14.367,2.713,30.65,5.786,45.303-1.066c1.056-0.494,1.729-1.553,1.729-2.718v-75.818      c0-1.657-1.343-3-3-3s-3,1.343-3,3v73.854c-12.469,5.033-26.414,2.401-39.919-0.146c-14.085-2.66-28.558-5.385-38.069,3.216      V41.49c6.31-12.271,18.215-10.725,36.956-7.189c12.984,2.451,27.535,5.198,41.032,0.645v20.906c0,1.657,1.343,3,3,3s3-1.343,3-3      v-8.265h1.776c0.987,0,1.959,0.252,2.811,0.728c0.463,0.26,0.966,0.383,1.461,0.383c1.052,0,2.072-0.554,2.621-1.537      c0.809-1.446,0.292-3.273-1.154-4.082c-1.744-0.976-3.729-1.491-5.738-1.491h-1.776v-11.07c0-1.025-0.524-1.98-1.39-2.531      c-0.866-0.55-1.954-0.619-2.881-0.186c-12.9,6.034-27.516,3.273-41.649,0.606c-15.661-2.958-31.801-5.997-41.066,6.543      c-8.211-11.172-21.666-9.991-34.89-7.681c-1.633,0.284-2.725,1.839-2.439,3.471c0.284,1.634,1.853,2.719,3.471,2.44      c15.778-2.754,25.436-2.239,30.855,8.293v158.386c-9.51-8.594-23.984-5.863-38.068-3.203      c-13.505,2.549-27.45,5.183-39.919,0.146V34.946c10.677,3.604,21.855,2.601,31.594,1.045c1.636-0.262,2.75-1.8,2.489-3.437      c-0.262-1.637-1.799-2.748-3.436-2.489c-10.146,1.62-21.927,2.621-32.376-2.266c-0.929-0.433-2.014-0.362-2.881,0.186      c-0.865,0.551-1.39,1.506-1.39,2.531v11.07h-1.776c-6.454,0-11.704,5.212-11.704,11.617v153.969      c0,6.406,5.25,11.618,11.704,11.618H85.56c4.697,0,9.166,1.958,12.262,5.371c3.224,3.553,8.153,5.591,13.526,5.591      c5.372,0,10.302-2.038,13.526-5.591c3.095-3.413,7.563-5.371,12.261-5.371h62.977c6.454,0,11.704-5.212,11.704-11.618V106.986      C211.816,105.328,210.473,103.986,208.816,103.986z" />
        <path d="M98.168,173.679c-7.207-2.317-15.093-0.772-23.913,1.319l-2.002,0.478      c-1.39,0.333-2.799,0.671-4.225,0.998c-2.45,0.562-4.46,0.978-6.328,1.31c-8.371,1.489-14.868,1.435-21.063-0.18      c-1.608-0.411-3.242,0.543-3.66,2.146s0.544,3.242,2.146,3.66c4.075,1.061,8.057,1.438,11.729,1.438      c4.594,0,8.703-0.589,11.899-1.157c1.966-0.35,4.068-0.785,6.616-1.369c1.445-0.331,2.874-0.673,4.283-1.011l1.988-0.475      c7.93-1.881,14.961-3.289,20.692-1.444c1.574,0.505,3.267-0.359,3.774-1.939C100.614,175.876,99.745,174.187,98.168,173.679z" />
        <path d="M98.168,152.71c-7.864-2.526-16.636-0.427-25.923,1.799c-10.187,2.441-20.717,4.967-31.608,2.126      c-1.608-0.41-3.242,0.545-3.66,2.146c-0.418,1.604,0.544,3.242,2.146,3.66c3.955,1.03,7.853,1.441,11.665,1.441      c8.086,0,15.791-1.846,22.854-3.538c8.812-2.113,16.422-3.938,22.689-1.921c1.574,0.505,3.267-0.359,3.774-1.938      C100.614,154.908,99.745,153.218,98.168,152.71z" />
        <path d="M98.168,131.742c-7.864-2.526-16.636-0.427-25.923,1.799c-10.187,2.441-20.717,4.968-31.608,2.126      c-1.608-0.41-3.242,0.543-3.66,2.146s0.544,3.242,2.146,3.66c3.955,1.03,7.853,1.44,11.665,1.44      c8.086,0,15.791-1.846,22.854-3.538c8.812-2.113,16.422-3.939,22.689-1.921c1.574,0.505,3.267-0.359,3.774-1.939      C100.614,133.939,99.745,132.249,98.168,131.742z" />
        <path d="M98.168,89.804c-7.864-2.527-16.636-0.427-25.923,1.799c-10.187,2.44-20.717,4.967-31.608,2.126      c-1.608-0.41-3.242,0.543-3.66,2.146s0.544,3.242,2.146,3.66c3.955,1.03,7.853,1.44,11.665,1.44      c8.086,0,15.791-1.846,22.854-3.538c8.812-2.113,16.422-3.938,22.689-1.921c1.574,0.506,3.267-0.36,3.774-1.939      C100.614,92.001,99.745,90.312,98.168,89.804z" />
        <path d="M98.168,68.835c-7.864-2.527-16.636-0.427-25.923,1.799C62.059,73.076,51.529,75.6,40.637,72.76      c-1.608-0.41-3.242,0.545-3.66,2.146c-0.418,1.604,0.544,3.242,2.146,3.66c3.955,1.03,7.853,1.44,11.665,1.44      c8.086,0,15.791-1.846,22.854-3.538c8.812-2.113,16.422-3.938,22.689-1.921c1.574,0.506,3.267-0.36,3.774-1.938      C100.614,71.033,99.745,69.343,98.168,68.835z" />
        <path d="M98.168,47.867c-7.864-2.527-16.636-0.426-25.923,1.799c-10.187,2.441-20.717,4.967-31.608,2.126      c-1.608-0.41-3.242,0.543-3.66,2.146c-0.418,1.604,0.544,3.242,2.146,3.66c3.955,1.03,7.853,1.44,11.665,1.44      c8.086,0,15.791-1.846,22.854-3.538c8.812-2.113,16.422-3.938,22.689-1.921c1.574,0.506,3.267-0.36,3.774-1.938      C100.614,50.064,99.745,48.374,98.168,47.867z" />
        <path d="M98.168,110.773c-7.864-2.526-16.636-0.427-25.923,1.799c-10.187,2.441-20.717,4.967-31.608,2.126      c-1.608-0.41-3.242,0.545-3.66,2.146c-0.418,1.604,0.544,3.242,2.146,3.66c3.955,1.03,7.853,1.44,11.665,1.44      c8.086,0,15.791-1.846,22.854-3.538c8.812-2.113,16.422-3.938,22.689-1.921c1.574,0.505,3.267-0.36,3.774-1.938      C100.614,112.97,99.745,111.281,98.168,110.773z" />
        <path d="M180.664,142.42c0.15,0,0.302-0.011,0.454-0.034c1.504-0.229,3.002-0.535,4.452-0.913      c1.604-0.418,2.564-2.056,2.147-3.659c-0.418-1.604-2.059-2.559-3.659-2.147c-1.25,0.325-2.543,0.591-3.841,0.788      c-1.639,0.249-2.765,1.778-2.516,3.416C177.928,141.356,179.206,142.42,180.664,142.42z" />
        <path d="M124.526,131.743c-1.577,0.507-2.444,2.197-1.937,3.774c0.409,1.271,1.587,2.082,2.854,2.082      c0.305,0,0.614-0.047,0.92-0.146c3.421-1.099,7.475-1.15,13.14-0.166c1.63,0.28,3.186-0.809,3.47-2.442      c0.283-1.632-0.81-3.186-2.442-3.47C133.859,130.217,128.921,130.328,124.526,131.743z" />
        <path d="M159.364,99.66c1.413,0,2.672-1.003,2.944-2.442c0.309-1.628-0.761-3.197-2.389-3.506      c-3.213-0.609-6.394-1.371-9.469-2.108c-9.287-2.226-18.057-4.325-25.924-1.799c-1.577,0.508-2.445,2.197-1.938,3.774      c0.508,1.578,2.202,2.443,3.774,1.939c6.266-2.017,13.877-0.192,22.689,1.921c3.145,0.753,6.396,1.532,9.75,2.168      C158.991,99.642,159.179,99.66,159.364,99.66z" />
        <path d="M178.753,79.534c1.64-0.235,2.779-1.755,2.544-3.396c-0.234-1.639-1.749-2.776-3.395-2.544      c-9.445,1.354-18.602-0.839-27.452-2.96c-9.286-2.225-18.056-4.325-25.923-1.799c-1.578,0.508-2.445,2.197-1.938,3.774      c0.508,1.578,2.202,2.443,3.774,1.938c6.266-2.017,13.877-0.191,22.689,1.92c7.015,1.682,14.762,3.538,22.872,3.538      C174.175,80.006,176.454,79.863,178.753,79.534z" />
        <path d="M185.718,53.938c-0.417-1.603-2.05-2.558-3.66-2.146c-10.89,2.838-21.424,0.315-31.608-2.126      c-9.286-2.225-18.059-4.326-25.923-1.799c-1.577,0.508-2.445,2.197-1.938,3.774c0.508,1.578,2.202,2.443,3.774,1.938      c6.266-2.017,13.877-0.192,22.689,1.921c7.064,1.692,14.768,3.539,22.855,3.538c3.811,0,7.71-0.41,11.665-1.44      C185.174,57.18,186.136,55.541,185.718,53.938z" />
        <path d="M147.551,117.964c1.358,0,2.59-0.93,2.916-2.311c0.382-1.612-0.616-3.229-2.229-3.609      c-8.719-2.064-16.52-3.583-23.712-1.271c-1.578,0.508-2.445,2.197-1.938,3.774c0.508,1.578,2.202,2.443,3.774,1.938      c5.721-1.842,12.666-0.456,20.495,1.396C147.09,117.938,147.322,117.964,147.551,117.964z" />
        <path d="M245.079,46.751c-0.198-1.819-1.094-3.448-2.52-4.587l-11.227-8.963      c-2.939-2.347-7.252-1.875-9.61,1.048l-69.738,86.358c-1.051,1.301-5.124,11.895-12.11,31.491      c-4.326-0.59-10.471-0.957-15.347,0.611c-1.578,0.508-2.445,2.197-1.938,3.774c0.409,1.272,1.588,2.083,2.855,2.083      c0.305,0,0.607-0.073,0.919-0.145c8.111-1.852,15.327,0.025,15.504,0.025c0.546,0,1.094-0.148,1.58-0.45      c19.099-11.835,29.336-18.52,30.429-19.873l38.393-47.59c1.04-1.29,0.838-3.179-0.451-4.219      c-1.291-1.041-3.18-0.838-4.219,0.451l-36.518,45.267l-12.533-10.005l58.743-72.742l12.52,9.995l-7.381,9.119      c-1.042,1.288-0.843,3.177,0.444,4.22c1.288,1.04,3.177,0.844,4.22-0.444l16.52-20.41      C244.757,50.35,245.279,48.568,245.079,46.751z M166.618,136.151c-3.895,2.628-11.257,7.328-19.02,12.191      c3.103-8.594,6.129-16.761,7.864-21.097L166.618,136.151z M238.946,47.995l-5.361,6.624l-12.525-10l5.331-6.602      c0.288-0.356,0.84-0.416,1.198-0.127l11.227,8.963c0.229,0.183,0.286,0.423,0.3,0.549      C239.132,47.557,239.116,47.785,238.946,47.995z" />
        <path d="M220.136,57.056c-1.299-1.029-3.187-0.808-4.214,0.491l-48.081,60.775      c-1.028,1.3-0.809,3.187,0.491,4.214c0.551,0.436,1.207,0.647,1.859,0.647c0.886,0,1.763-0.391,2.355-1.139l48.081-60.775      C221.656,59.97,221.436,58.083,220.136,57.056z" />
    </g>
</svg>