<svg xmlns="http://www.w3.org/2000/svg" width="33px" height="33px" viewBox="315 560 100 200" version="1.1">
    <g fill="#eee" stroke="#BBB" stroke-width="2.5">
        <path d="M265.000002,671.099998 L376.1,560 Z M398.300003,759.999997 L465,693.3 Z M420.6,560 L265.049997,715.550003 Z M264.949998,626.650002 L331.6,560 Z M265.05,737.75 L442.8,560 Z M309.35,560 L264.949998,604.400002 Z M465,582.15 L287.199997,759.950003 Z M398.3,560 L264.999997,693.300003 Z M309.399994,760.000006 L465,604.4 Z M264.949999,582.200001 L287.15,560 Z M465,648.85 L353.849998,760.000002 Z M465,626.6 L331.649994,759.950006 Z M465.000002,671.099998 L376.1,760 Z M353.85,560 L265.000002,648.849998 Z M420.6,760 L465.050001,715.549999 Z M465,560 L265,760 Z M465.05,737.75 L442.8,760 Z M465.05,737.75"/>
    </g>
</svg>